<svg xmlns="http://www.w3.org/2000/svg" height="2688" preserveAspectRatio="none" style="display: block;" version="1.1" viewBox="0 0 2688 2688" width="1536">
<path d="M 0 0 L 2688 0 L 2688 108.908 L 2688 124.686 L 2688 286.088 L 2688 306.433 L 2688 564.71 L 2688 585.712 L 2688 853.062 L 2688 864.162 L 2688 950.851 L 2688 962.491 L 2688 1101.06 L 2688 1113.85 L 2688 1193.39 L 2688 1205.89 L 2688 1305.25 L 2688 1317.65 L 2688 1642.55 L 2688 1655.76 L 2688 1721.09 L 2688 1729.04 L 2688 1732.8 L 2688 1743.03 L 2688 2150.21 L 2688 2162.71 L 2688 2342.96 L 2688 2352.59 L 2688 2655.13 L 2688 2667.04 L 2688 2688 L 2222.73 2688 L 2205.72 2688 L 1767.87 2688 L 1757.89 2688 L 1336.54 2688 L 1327.27 2688 L 913.362 2688 L 905.409 2688 L 452.547 2688 L 442.141 2688 L 0 2688 L 0 2676.93 L 0 2667.1 L 0 2362.74 L 0 2353.7 L 0 2148.37 L 0 2135.46 L 0 1139.25 L 0 1122.3 L 0 967.661 L 0 956.005 L 0 865.7 L 0 854.366 L 0 588.296 L 0 578.993 L 0 544.79 L 0 538.174 L 0 318.122 L 0 297.217 L 0 124.849 L 0 110.011 L 0 0 z" fill="rgb(14,9,11)" transform="translate(0,0)"></path>
<path d="M 0 0 L 2688 0 L 2688 108.908 L 2688 124.686 L 2688 286.088 L 2688 306.433 L 2688 564.71 L 2688 585.712 L 2688 853.062 L 2688 864.162 L 0 865.7 L 0 854.366 L 0 588.296 L 0 578.993 L 0 544.79 L 0 538.174 L 0 318.122 L 0 297.217 L 0 124.849 L 0 110.011 L 0 0 z" fill="rgb(14,9,11)" transform="translate(0,0)"></path>
<path d="M 1277.33 124.862 L 1407.35 124.759 L 1406.6 454.781 C 1406.29 492.631 1401.13 755.934 1408.07 766.953 C 1416.08 767.511 1426.78 758.979 1433.19 754.479 C 1474.81 725.227 1514.1 692.851 1554.61 662.201 L 1809.8 470.064 L 2044.2 293.195 C 2072.47 271.435 2101.34 251.802 2128.7 228.683 C 2149.53 243.006 2172.7 257.353 2194.13 270.996 C 2153.16 301.514 1803.12 571.624 1797.22 584.539 L 1798.9 586.081 C 1803.08 586.162 1805.95 585.384 1809.31 582.83 C 1829.57 567.445 1849.84 551.853 1869.9 536.253 L 1983.85 447.08 C 2005.21 430.16 2026.9 413.506 2048.71 397.168 C 2100.87 358.112 2151.37 316.767 2202.19 275.972 C 2221.53 286.777 2242.07 302.001 2261.22 313.767 C 2311.48 344.646 2360.75 376.796 2409.39 410.163 C 2425.31 421.085 2443.6 431.237 2459.99 441.831 L 2583.96 521.21 C 2612.29 538.966 2658.91 570.752 2688 585.712 L 2688 853.062 L 2688 864.162 L 0 865.7 L 0 854.366 L 0 588.296 C 15.6354 580.095 32.6204 566.949 48.2615 557.744 C 93.3167 531.231 135.956 502.657 179.103 473.326 C 237.503 433.627 298.694 396.78 357.72 357.947 C 399.138 330.699 440.203 301.468 483.004 276.412 C 521.008 298.715 745.467 485.645 764.37 486.664 L 765.451 485.144 C 763.653 477.737 752.524 472.744 746.53 468.029 C 661.698 401.299 579.52 332.556 490.373 271.427 C 511.217 258.726 535.136 243.733 554.883 229.587 C 563.685 234.752 576.827 244.955 585.602 251.048 C 617.616 273.276 647.392 298.402 678.583 321.768 L 997.7 559.758 L 1201.56 712.623 C 1213.61 721.659 1269.57 768.892 1279.46 768.411 C 1280.4 765.957 1279.65 689.697 1279.66 682.704 L 1279.17 488.104 C 1279.15 450.142 1279.9 410.56 1279.31 372.752 L 1277.31 234.358 C 1276.75 199.173 1275.64 160.002 1277.33 124.862 z" fill="rgb(3,59,130)" transform="translate(0,0)"></path>
<path d="M 794.048 532.323 C 792.904 518.537 792.361 511.165 810.094 512.42 C 817.522 512.945 825.273 512.917 832.743 512.861 C 833.089 518.993 833.027 526.225 833.138 532.458 C 840.874 532.142 849.509 530.717 855.968 534.063 C 860.85 539.69 861.086 547.597 856.856 553.674 C 851.912 556.962 841.193 555.504 834.704 555.236 C 834.122 644.226 836.612 731.912 834.901 821.361 C 845.7 821.3 856.498 821.335 867.296 821.467 C 867.375 828.896 866.947 837.653 866.773 845.19 C 856.151 845.929 842.359 842.94 834.079 850.319 L 834.357 852.16 C 844.375 856.608 1185.82 853.625 1224.85 853.554 C 1205.51 839.78 1177.05 815.508 1157.42 800.067 L 1011.28 685.107 C 973.092 654.976 934.01 626.585 896.681 595.465 C 885.023 585.746 871.175 578.933 862.215 565.89 L 864.895 563.366 C 886.248 570.808 923.992 608.195 944.578 622.879 C 1006.62 667.136 1065.97 717.206 1125.79 764.52 C 1145.56 780.163 1167.38 793.707 1187.08 809.571 C 1204.62 823.698 1221.43 838.605 1238.37 853.429 L 1446.39 853.174 C 1478.27 825.461 1503.13 808.242 1536.37 782.826 L 1643.9 699.775 C 1657.82 689.214 1736.31 621.421 1748.08 623.431 L 1748.22 625.278 C 1742.17 637.441 1730.02 643.235 1719.64 651.911 C 1682.81 682.707 1644.7 711.407 1606.63 740.601 L 1461.11 853.214 L 2688 853.062 L 2688 864.162 L 0 865.7 L 0 854.366 C 51.8623 855.065 103.859 854.228 155.737 854.961 C 163.174 855.066 172.487 856.426 177.21 849.805 L 176.466 848.398 C 169.839 844.668 157.364 845.905 149.12 845.963 C 147.624 837.045 144.441 829.5 151.07 822.821 C 157.445 820.33 166.286 821.285 173.451 821.439 C 173.012 779.368 174.426 739.017 174.84 697.282 L 175.147 555.04 L 156.156 554.94 C 154.984 548.244 151.414 536.198 157.423 532.015 C 165.824 533.408 168.688 534.689 175.42 529.889 C 177.16 524.107 175.739 518.958 179.167 514.249 C 185.275 512.248 206.512 512.533 212.732 514.986 C 215.137 519.669 214.403 526.163 214.362 531.649 L 794.048 532.323 z" fill="rgb(14,9,11)" transform="translate(0,0)"></path>
<path d="M 518.624 555.337 L 792.816 555.238 L 793.353 685.419 C 767.07 683.262 714.694 684.517 686.743 684.635 C 631.032 684.854 575.321 684.732 519.611 684.269 L 518.624 555.337 z" fill="rgb(3,59,130)" transform="translate(0,0)"></path>
<path d="M 671.681 609.449 C 698.51 608.368 705.773 624.8 680.882 630.972 C 655.874 631.476 647.957 615.7 671.681 609.449 z" fill="rgb(243,234,220)" transform="translate(0,0)"></path>
<path d="M 215.758 555.337 L 479.568 555.01 C 477.792 596.187 478.896 643.277 479.207 684.861 C 391.354 685.035 303.502 684.582 215.656 683.503 C 215.859 640.768 214.955 598.097 215.758 555.337 z" fill="rgb(3,59,130)" transform="translate(0,0)"></path>
<path d="M 292.904 599.881 C 311.77 599.149 326.252 610.316 306.674 617.2 L 304.31 618.108 C 286.258 618.721 269.544 608.852 292.904 599.881 z" fill="rgb(243,234,220)" transform="translate(0,0)"></path>
<path d="M 598.207 708.094 C 663.148 708.534 728.091 708.501 793.032 707.993 C 793.416 746.588 793.167 783.099 794.384 821.806 L 720.048 821.349 L 518.317 821.327 C 518.391 783.23 519.305 746.397 519.746 708.444 L 598.207 708.094 z" fill="rgb(3,59,130)" transform="translate(0,0)"></path>
<path d="M 582.392 769.494 C 603.841 768.066 614.89 779.671 593.906 786.943 C 578.856 786.876 561.079 779.35 582.392 769.494 z" fill="rgb(243,234,220)" transform="translate(0,0)"></path>
<path d="M 671.345 732.439 C 681.403 731.997 700.829 735.641 684.698 746.193 L 680.565 746.279 C 669.664 746.432 658.158 742.014 671.345 732.439 z" fill="rgb(243,234,220)" transform="translate(0,0)"></path>
<path d="M 216.814 707.821 C 301.212 706.07 393.481 708.591 478.651 708.496 C 478.911 746.606 478.751 782.894 479.401 821.228 C 464.207 823.094 418.318 821.326 400.132 821.343 L 215.931 821.626 C 216.524 783.694 216.818 745.758 216.814 707.821 z" fill="rgb(3,59,130)" transform="translate(0,0)"></path>
<path d="M 251.067 828.821 C 375.342 826.625 504.946 828.447 629.526 828.614 L 781.274 828.811 C 794.326 828.814 845.631 826.216 854.235 831.153 C 856.134 835.379 855.678 833.13 854.941 838.231 C 848.538 841.491 780.483 839.67 766.828 839.649 L 297.415 839.135 C 283.327 839.172 163.89 841.307 159.872 838.159 C 159.88 833.185 158.994 832.943 161.386 829.761 C 169.299 827.954 237.063 829.211 251.067 828.821 z" fill="rgb(3,59,130)" transform="translate(0,0)"></path>
<path d="M 387.749 538.81 C 410.456 536.744 447.253 538.933 471.082 539.007 L 633.062 539.344 C 697.398 539.566 761.848 539.709 826.182 539.119 C 831.851 539.068 842.241 537.941 846.232 541.725 L 845.887 546.791 C 845.242 547.378 844.596 547.965 843.951 548.552 C 781.656 548.446 683.799 548.111 624.681 548.645 L 308.51 548.687 L 207.983 548.638 C 198.587 548.629 172.925 550.961 166.673 545.956 L 166.445 541.711 C 170.546 537.389 189.567 539.724 196.402 539.543 C 259.736 537.865 324.57 540.928 387.749 538.81 z" fill="rgb(3,59,130)" transform="translate(0,0)"></path>
<path d="M 285.631 845.889 C 329.033 846.898 377.002 845.539 420.875 845.583 C 496.913 846.374 572.955 846.612 648.997 846.295 L 746.154 845.438 C 757.697 845.366 786.938 842.89 794.649 848.413 L 794.744 852.135 L 795.592 850.215 L 794.493 852.276 C 786.811 855.076 739.137 853.624 728.109 853.542 L 341.498 854.663 L 253.941 854.702 C 246.598 854.698 219.179 856.672 215.738 851.516 L 216.794 849.032 C 225.77 844.274 272.821 845.959 285.631 845.889 z" fill="rgb(3,59,130)" transform="translate(0,0)"></path>
<path d="M 806.508 555.078 C 812.265 554.931 817.74 554.083 822.111 557.276 C 823.968 584.846 820.945 628.599 821.422 657.999 C 822.3 712.129 822.452 766.867 822.35 821.006 C 818.246 821.893 811.457 822.268 807.564 820.349 C 806.18 813.715 806.902 754.56 806.898 743.031 L 806.508 555.078 z" fill="rgb(3,59,130)" transform="translate(0,0)"></path>
<path d="M 188.923 555.395 C 192.305 555.27 197.096 554.793 200.043 556.002 C 201.481 556.592 201.835 556.697 201.971 557.823 C 204.419 578.039 204.023 819.444 203.077 821.577 L 186.802 821.466 C 187.718 794.546 187.169 765.443 187.495 738.282 C 188.812 677.329 189.288 616.361 188.923 555.395 z" fill="rgb(3,59,130)" transform="translate(0,0)"></path>
<path d="M 492.548 555.229 C 498.011 555.061 500.75 554.574 505.852 556.197 C 509.327 567.395 506.121 646.319 506.878 663.536 C 509.146 715.1 505.124 769.772 505.091 821.358 C 500.606 821.474 496.021 822.278 492.465 820.027 C 491.336 812.883 492.323 797.6 492.494 789.754 C 492.738 775.006 492.84 760.256 492.8 745.505 C 492.67 681.546 491.431 619.604 492.548 555.229 z" fill="rgb(3,59,130)" transform="translate(0,0)"></path>
<path d="M 518.883 691.662 L 520.682 691.635 C 587.583 690.694 719.033 691.739 791.582 691.869 C 792.191 692.461 792.801 693.053 793.411 693.645 L 793.502 700.623 C 738.629 700.209 683.755 700.187 628.882 700.556 C 595.064 700.92 554.716 702.6 521.472 701.453 C 518.719 698.374 519.481 696.735 518.883 691.662 z" fill="rgb(3,59,130)" transform="translate(0,0)"></path>
<path d="M 215.377 691.829 C 285.676 690.917 356.229 692.297 426.558 691.501 C 442.861 691.317 460.721 690.898 476.842 691.907 C 479.626 694.848 478.739 695.653 479.223 700.797 C 467.965 701.275 454.781 701.148 443.504 700.868 C 369.223 699.025 292.879 703.09 218.742 700.159 C 215.617 697.935 216.435 696.916 215.377 691.829 z" fill="rgb(3,59,130)" transform="translate(0,0)"></path>
<path d="M 806.455 520.102 C 822.179 519.968 820.178 517.673 820.171 532.579 C 805.055 532.429 805.94 534.827 806.455 520.102 z" fill="rgb(8,44,102)" transform="translate(0,0)"></path>
<path d="M 189.041 520.088 C 202.864 520.175 202.775 517.921 201.655 531.672 C 188.15 531.539 188.705 533.713 189.041 520.088 z" fill="rgb(8,44,102)" transform="translate(0,0)"></path>
<path d="M 188.763 846.58 C 201.039 846.621 202.047 843.682 204.678 854.628 C 191.932 854.751 189.442 858.212 188.763 846.58 z" fill="rgb(3,59,130)" transform="translate(0,0)"></path>
<path d="M 807.519 845.842 C 816.696 845.922 823.497 842.856 821.297 853.784 C 813.08 853.803 807.492 856.811 807.599 848.248 L 807.519 845.842 z" fill="rgb(8,44,102)" transform="translate(0,0)"></path>
<path d="M 1396.13 775.237 C 1405.1 781.551 1388.2 789.884 1382.58 792.915 C 1373.17 787.784 1392.01 777.474 1396.13 775.237 z" fill="rgb(14,9,11)" transform="translate(0,0)"></path>
<path d="M 1293.9 778.277 L 1295.47 778.243 C 1302.94 778.006 1313.2 785.533 1314.16 791.965 L 1314.53 794.24 C 1309.18 792.988 1297.02 784.704 1294.88 780.215 L 1293.9 778.277 z" fill="rgb(14,9,11)" transform="translate(0,0)"></path>
<path d="M 1776.54 598.255 C 1792.63 596.396 1775.01 607.802 1771.67 610.409 L 1769.68 610.713 C 1755.99 613.037 1774.94 599.437 1776.54 598.255 z" fill="rgb(14,9,11)" transform="translate(0,0)"></path>
<path d="M 772.937 493.395 C 779.937 494.353 792.59 500.083 792.314 508.106 C 788.398 507.445 786.629 506.954 783.245 504.428 L 775.586 498.661 C 773.155 496.813 773.264 496.174 772.937 493.395 z" fill="rgb(14,9,11)" transform="translate(0,0)"></path>
<path d="M 0 0 L 2688 0 L 2688 108.908 L 0 110.011 L 0 0 z" fill="rgb(3,59,130)" transform="translate(0,0)"></path>
<path d="M 2017.04 74.1069 C 2053.94 72.586 2095.07 75.2266 2133.03 74.7843 C 2257.63 72.6831 2382.26 72.4052 2506.88 73.9509 C 2534.96 74.2136 2563.91 72.8979 2592.05 73.3026 C 2602.86 73.458 2623.55 72.5248 2633.31 74.5394 L 2634.46 76.5596 L 2634.73 75.1702 L 2635.04 76.3228 C 2617.38 83.2954 2485.33 78.8175 2456.35 78.9982 L 2159.01 81.012 C 2120.92 81.0163 2075.59 82.5717 2038.16 80.9837 L 1662.86 82.1293 C 1605.88 82.7377 1548.89 82.8476 1491.91 82.4589 C 1471.1 82.433 1450.15 82.9083 1429.34 83.1906 C 1424.82 83.2519 1420.86 81.5424 1416.87 79.5789 L 1417.03 77.7049 C 1428.98 73.9656 1459.32 76.1449 1473.12 76.1436 L 1553.91 75.6856 L 1816.13 74.4304 C 1882.81 74.4786 1950.36 75.908 2017.04 74.1069 z" fill="rgb(14,9,11)" transform="translate(0,0)"></path>
<path d="M 550.41 76.7681 L 1088.74 76.8072 C 1152.91 76.0561 1217.09 75.842 1281.27 76.1648 C 1301.54 76.222 1351.77 74.0055 1368.5 79.0135 L 1368.31 80.53 C 1355.01 84.4165 1290.86 82.6396 1271.81 82.5944 L 1132.03 82.921 C 921.113 84.2415 710.189 84.1941 499.272 82.7789 C 455.479 82.4997 411.216 85.3356 367.332 84.4917 C 345.95 84.0806 327.131 85.4222 306.259 80.4909 C 320.528 77.4866 371.084 78.1304 389.357 77.9934 C 443.038 77.2273 496.724 76.8188 550.41 76.7681 z" fill="rgb(14,9,11)" transform="translate(0,0)"></path>
<path d="M 86.1148 79.2109 C 104.284 78.6987 122.694 78.5706 140.89 78.295 C 147.282 78.1982 164.789 75.3093 162.459 83.9048 C 152.587 84.2127 98.7212 85.5765 86.4512 82.8096 C 85.6773 82.6351 86.0249 80.0795 86.1148 79.2109 z" fill="rgb(14,9,11)" transform="translate(0,0)"></path>
<path d="M 207.596 78.0501 C 213.378 77.6643 249.443 76.9682 256.713 79.1216 C 257.498 79.3542 257.028 82.4955 256.957 83.2193 C 246.995 84.4648 218.761 85.2045 208.121 82.3671 C 207.107 82.0967 207.536 78.7142 207.596 78.0501 z" fill="rgb(14,9,11)" transform="translate(0,0)"></path>
<path d="M 305.677 124.774 C 417.531 123.604 533.528 124.38 645.631 124.663 C 635.069 133.899 599.293 154.487 585.502 162.94 L 503.019 214.6 C 494.344 220.041 440.601 251.514 439.289 259.15 C 449.75 261.258 499.962 224.717 512.821 216.86 L 594.326 166.712 C 616.07 153.312 636.886 141.135 657.281 125.698 C 668.906 127.566 680.829 123.699 685.366 129.377 C 661.55 147.095 629.513 165.717 604.054 181.925 L 485.339 258.625 C 435.58 291.02 386.146 323.912 337.045 357.294 L 214.249 437.301 L 103.32 510.768 C 69.4038 532.824 32.6758 555.402 0 578.993 L 0 544.79 L 0 538.174 L 0 318.122 C 22.1152 307.588 39.6475 293.866 60.1354 280.961 C 90.2693 261.98 120.2 243.431 149.791 223.567 C 200.851 189.29 254.41 158.547 305.677 124.774 z" fill="rgb(3,59,130)" transform="translate(0,0)"></path>
<path d="M 0 538.174 C 18.4757 526.995 34.8515 514.414 52.7917 502.832 L 267.634 367.034 C 281.784 358.227 356.957 306.6 366.056 309.226 C 365.571 316.593 328.559 336.64 319.896 342.083 L 225.954 401.349 C 192.35 422.589 157.686 443.41 124.355 464.662 C 82.5886 491.294 43.0196 519.523 0 544.79 L 0 538.174 z" fill="rgb(14,9,11)" transform="translate(0,0)"></path>
<path d="M 408.147 275.389 C 426.097 274.454 399.403 289.328 395.828 291.116 C 378.765 291.396 405.732 276.799 408.147 275.389 z" fill="rgb(14,9,11)" transform="translate(0,0)"></path>
<path d="M 2052.3 124.721 C 2165.01 123.015 2277.74 122.739 2390.46 123.894 L 2592.84 247.739 C 2625.94 267.96 2651.64 288.323 2688 306.433 L 2688 564.71 C 2672.16 557.286 2624.37 524.696 2607.98 513.972 L 2478.81 430.78 C 2422.62 394.253 2364.85 358.984 2308.75 322.384 L 2126.28 204.399 C 2084.47 177.501 2044.27 150.791 2001.74 124.942 C 2014.09 124.733 2026.78 124.845 2039.17 124.803 C 2050.89 134.503 2077.89 149.097 2091.99 157.815 L 2217.63 235.004 C 2237.29 247.226 2256.65 259.913 2276.58 271.723 C 2283.79 275.991 2293.88 287.09 2303.38 283.495 C 2300.68 276.516 2222.66 230.4 2211.68 223.728 L 2100.3 154.839 C 2086.82 146.566 2065.33 135.506 2053.89 126.056 L 2052.3 124.721 z" fill="rgb(3,59,130)" transform="translate(0,0)"></path>
<path d="M 2321.91 296.575 C 2332.71 296.746 2355.42 312.307 2364.56 318.78 L 2371.58 323.226 L 2393.13 336.551 C 2396.66 338.718 2400.07 341.059 2403.63 343.183 L 2413.86 349.828 C 2415.67 350.994 2417.66 352.229 2419.42 353.402 L 2429.32 360.008 C 2435.72 364.34 2447.86 369.013 2447.41 376.348 C 2436.34 376.475 2428.74 369.322 2419.36 363.123 L 2393.03 346.093 C 2392 345.443 2390.96 344.793 2389.93 344.143 L 2381.54 338.581 C 2380.89 338.164 2380.24 337.747 2379.59 337.331 L 2374.77 334.144 C 2369.36 330.509 2363.81 327.058 2358.36 323.481 L 2352.84 319.935 C 2347.4 316.41 2322.7 302.355 2322.13 298.015 L 2321.91 296.575 z" fill="rgb(14,9,11)" transform="translate(0,0)"></path>
<path d="M 2472.27 390.834 C 2480.88 391.751 2482.53 393.279 2490.07 398.512 C 2496.5 404.151 2511.23 410.439 2516.84 415.828 C 2523.94 422.651 2560.8 440.267 2560.46 447.212 L 2560.4 448.905 C 2549.77 446.736 2473.94 399.282 2472.63 392.546 L 2472.27 390.834 z" fill="rgb(14,9,11)" transform="translate(0,0)"></path>
<path d="M 2617.08 481.562 C 2624.32 482.879 2637.63 490.118 2641.17 496.402 C 2634.01 496.364 2617.4 489.39 2617.08 481.562 z" fill="rgb(14,9,11)" transform="translate(0,0)"></path>
<path d="M 2589.7 467.334 C 2595.34 466.742 2602.84 467.046 2602.01 474.745 C 2596 474.506 2591.63 473.682 2589.7 467.334 z" fill="rgb(14,9,11)" transform="translate(0,0)"></path>
<path d="M 2663.52 506.597 C 2668.51 507.043 2671.15 507.18 2673.92 511.655 L 2675.17 513.57 C 2670.39 512.943 2666.86 513.014 2664.44 508.306 L 2663.52 506.597 z" fill="rgb(14,9,11)" transform="translate(0,0)"></path>
<path d="M 0 124.849 L 268.654 125.03 C 220.64 159.796 164.669 188.957 116.431 223.889 C 101.965 234.364 83.6049 242.495 69.0962 253.185 C 48.0545 266.414 21.4948 285.789 0 297.217 L 0 124.849 z" fill="rgb(3,59,130)" transform="translate(0,0)"></path>
<path d="M 2429.55 124.59 C 2514.97 123.283 2602.44 124.509 2688 124.686 L 2688 286.088 L 2505.74 172.526 C 2483.54 158.49 2449.75 139.298 2429.55 124.59 z" fill="rgb(3,59,130)" transform="translate(0,0)"></path>
<path d="M 657.281 125.698 C 658.953 125.266 704.838 121.698 685.366 129.377 C 680.829 123.699 668.906 127.566 657.281 125.698 z" fill="rgb(8,44,102)" transform="translate(0,0)"></path>
<path d="M 716.788 124.853 L 1255 124.793 L 1255.9 356.374 C 1255.64 481.91 1254.36 613.413 1257.62 738.673 C 1228.07 717.405 1199.96 694.971 1170.11 673.664 C 1062.81 591.948 954.959 510.945 846.578 430.658 L 729.338 343.134 C 674.342 301.719 622.071 262.043 564.517 224.02 C 578.772 215.476 594.787 203.313 609.368 193.834 L 716.788 124.853 z" fill="rgb(8,44,102)" transform="translate(0,0)"></path>
<path d="M 1432.89 124.831 L 1967.36 125.055 C 2017.95 156.434 2068.11 193.443 2119.4 222.936 C 2017.7 295.298 1920.42 372.028 1820.15 445.909 C 1791.6 466.809 1764.97 488.152 1736.85 509.388 L 1429.72 742.026 C 1432.38 536.306 1433.44 330.568 1432.89 124.831 z" fill="rgb(8,44,102)" transform="translate(0,0)"></path>
<path d="M 0 865.7 L 2688 864.162 L 2688 950.851 L 2688 962.491 L 2688 1101.06 C 2568 1100.98 2448.01 1102.85 2328.07 1106.66 C 2128.22 1111.65 1924.83 1120.83 1728.03 1157.97 C 1670.68 1168.8 1595.15 1182.45 1549.64 1220.93 C 1518.92 1246.91 1540.93 1279.61 1557.38 1303.86 C 1555.57 1314.65 1556.83 1323.28 1556.52 1333.97 C 1528.42 1311.19 1501.41 1285.6 1473.09 1262.48 C 1424.84 1274.35 1292.82 1272.08 1241.48 1264.65 C 1213.15 1292.56 1184.5 1324.46 1156.47 1353.48 C 1081.97 1429.68 1008.3 1506.68 935.471 1584.48 L 780.358 1746.19 C 765.991 1761.29 744.782 1781.63 731.56 1796.43 C 732.749 1728.4 730.51 1661.56 730.135 1593.59 L 730.946 1334.79 C 731.016 1300.52 732.08 1246.66 729.254 1214.07 C 724.961 1164.59 627.61 1130.15 588.364 1125.36 C 556.958 1121.52 534.119 1122.5 504.142 1122.55 L 396.315 1122.52 L 0 1122.3 L 0 967.661 L 0 956.005 L 0 865.7 z" fill="rgb(3,59,130)" transform="translate(0,0)"></path>
<path d="M 0 967.661 C 46.9416 969.072 96.0742 968.257 143.242 968.205 L 393.342 967.495 L 903.851 968.354 L 1119.89 968.371 C 1144.68 968.347 1184.59 965.884 1206.9 967.144 C 1221.64 968.757 1270.1 964.921 1275.71 970.454 C 1240.72 997.052 1239.31 1023.78 1244.7 1064.42 C 1231.91 1066.7 1216.39 1068.93 1204.33 1073.13 C 1204.27 1082.72 1204.17 1091.28 1203.53 1100.84 C 1208.89 1102.32 1214.57 1103.77 1219.86 1105.4 C 1217.07 1121.46 1218.01 1194.34 1218.7 1213.38 C 1210.89 1214.81 1208.8 1215.48 1201.4 1218.43 C 1200.59 1231.78 1200.18 1240.81 1200.93 1254.2 C 1215.3 1260.21 1226.07 1261.94 1241.48 1264.65 C 1213.15 1292.56 1184.5 1324.46 1156.47 1353.48 C 1081.97 1429.68 1008.3 1506.68 935.471 1584.48 L 780.358 1746.19 C 765.991 1761.29 744.782 1781.63 731.56 1796.43 C 732.749 1728.4 730.51 1661.56 730.135 1593.59 L 730.946 1334.79 C 731.016 1300.52 732.08 1246.66 729.254 1214.07 C 724.961 1164.59 627.61 1130.15 588.364 1125.36 C 556.958 1121.52 534.119 1122.5 504.142 1122.55 L 396.315 1122.52 L 0 1122.3 L 0 967.661 z" fill="rgb(3,59,130)" transform="translate(0,0)"></path>
<path d="M 2688 962.491 L 2688 1101.06 C 2568 1100.98 2448.01 1102.85 2328.07 1106.66 C 2128.22 1111.65 1924.83 1120.83 1728.03 1157.97 C 1670.68 1168.8 1595.15 1182.45 1549.64 1220.93 C 1518.92 1246.91 1540.93 1279.61 1557.38 1303.86 C 1555.57 1314.65 1556.83 1323.28 1556.52 1333.97 C 1528.42 1311.19 1501.41 1285.6 1473.09 1262.48 C 1484.69 1260.04 1490.24 1258.47 1501.25 1254.25 C 1501.79 1242.22 1501.78 1230.67 1501.79 1218.65 L 1477.32 1213.5 C 1478.62 1177.77 1477.4 1142.03 1476.58 1106.3 L 1491.4 1101.14 C 1491.34 1090.96 1490.98 1082.29 1490.31 1072.12 C 1477.96 1070 1465.62 1067.76 1453.31 1065.38 C 1452.02 1021.28 1455.56 992.453 1413.06 967.278 C 1450.47 965.94 1492.4 966.759 1530.2 966.676 L 1768.66 966.201 L 2688 962.491 z" fill="rgb(3,59,130)" transform="translate(0,0)"></path>
<path d="M 1326.75 934.633 C 1332.71 934.247 1339.01 933.686 1344.94 933.149 C 1366.76 931.168 1372.73 931.438 1372.06 954.13 L 2688 950.851 L 2688 962.491 L 1768.66 966.201 L 1530.2 966.676 C 1492.4 966.759 1450.47 965.94 1413.06 967.278 C 1455.56 992.453 1452.02 1021.28 1453.31 1065.38 C 1465.62 1067.76 1477.96 1070 1490.31 1072.12 C 1490.98 1082.29 1491.34 1090.96 1491.4 1101.14 L 1476.58 1106.3 C 1477.4 1142.03 1478.62 1177.77 1477.32 1213.5 L 1501.79 1218.65 C 1501.78 1230.67 1501.79 1242.22 1501.25 1254.25 C 1490.24 1258.47 1484.69 1260.04 1473.09 1262.48 C 1424.84 1274.35 1292.82 1272.08 1241.48 1264.65 C 1226.07 1261.94 1215.3 1260.21 1200.93 1254.2 C 1200.18 1240.81 1200.59 1231.78 1201.4 1218.43 C 1208.8 1215.48 1210.89 1214.81 1218.7 1213.38 C 1218.01 1194.34 1217.07 1121.46 1219.86 1105.4 C 1214.57 1103.77 1208.89 1102.32 1203.53 1100.84 C 1204.17 1091.28 1204.27 1082.72 1204.33 1073.13 C 1216.39 1068.93 1231.91 1066.7 1244.7 1064.42 C 1239.31 1023.78 1240.72 997.052 1275.71 970.454 C 1270.1 964.921 1221.64 968.757 1206.9 967.144 C 1184.59 965.884 1144.68 968.347 1119.89 968.371 L 903.851 968.354 L 393.342 967.495 L 143.242 968.205 C 96.0742 968.257 46.9416 969.072 0 967.661 L 0 956.005 L 393.588 955.764 L 1326.23 954.242 L 1326.75 934.633 z" fill="rgb(14,9,11)" transform="translate(0,0)"></path>
<path d="M 1206.9 967.144 C 1218.83 965.608 1265.04 966.057 1280.4 966.563 C 1280.67 966.571 1280.66 967.198 1280.69 967.37 C 1279.86 968.841 1277.23 969.818 1275.71 970.454 C 1270.1 964.921 1221.64 968.757 1206.9 967.144 z" fill="rgb(8,44,102)" transform="translate(0,0)"></path>
<path d="M 1294.64 1097.92 C 1332.52 1096.42 1370.44 1096.72 1408.28 1098.84 C 1409.24 1111.07 1408.52 1119.43 1408.81 1131.27 C 1409.1 1155.1 1409.13 1178.63 1409.77 1202.53 C 1369.14 1200.47 1332.03 1200.04 1291.31 1203.34 L 1291.29 1138.1 C 1292.12 1124.54 1293.25 1111.43 1294.64 1097.92 z" fill="rgb(250,241,190)" transform="translate(0,0)"></path>
<path d="M 1294.64 1097.92 C 1332.52 1096.42 1370.44 1096.72 1408.28 1098.84 C 1409.24 1111.07 1408.52 1119.43 1408.81 1131.27 C 1370.26 1112.43 1328.69 1120.34 1291.29 1138.1 C 1292.12 1124.54 1293.25 1111.43 1294.64 1097.92 z" fill="rgb(239,187,168)" transform="translate(0,0)"></path>
<path d="M 1342.51 1206.76 C 1391.14 1205.63 1443.23 1209.55 1489.47 1224.76 C 1489.71 1231.73 1489.46 1238.95 1489.34 1245.94 C 1440.75 1237.04 1407.36 1236.48 1358.11 1236.11 C 1313.76 1235.6 1255.54 1239.13 1212.46 1247.31 C 1212.39 1238.92 1212.85 1230.49 1213.2 1222.11 C 1247.12 1211.31 1306.75 1208.52 1342.51 1206.76 z" fill="rgb(239,187,168)" transform="translate(0,0)"></path>
<path d="M 1323.14 975.158 C 1323.89 975.617 1324.64 976.076 1325.39 976.535 C 1331.13 986.535 1350.16 985.026 1360.05 983.46 C 1363.96 982.842 1370.39 978.748 1376.01 978.645 C 1387.51 978.376 1398.58 983.029 1406.43 991.435 C 1419.05 1005.02 1421.22 1026.86 1420.77 1044.67 C 1407.28 1041.32 1397.6 1039.11 1383.7 1036.96 C 1348.14 1034.03 1309.14 1034.67 1274.77 1044.52 C 1275.05 1003.46 1282.88 988.676 1323.14 975.158 z" fill="rgb(3,59,130)" transform="translate(0,0)"></path>
<path d="M 1230.4 1110.47 C 1250.28 1103.8 1261.24 1101.18 1282.22 1099.14 C 1280.06 1126.73 1277.33 1152 1278.92 1179.94 C 1279.3 1186.66 1279.42 1197.73 1278.82 1204.39 C 1263.32 1204.85 1245.29 1208.35 1230.01 1211.12 C 1230.03 1203.86 1229.68 1192.96 1230.09 1185.96 C 1229.51 1163.88 1229.93 1132.58 1230.4 1110.47 z" fill="rgb(239,187,168)" transform="translate(0,0)"></path>
<path d="M 1276.83 1141.73 C 1277.02 1160.68 1275.2 1186.57 1278.82 1204.39 C 1263.32 1204.85 1245.29 1208.35 1230.01 1211.12 C 1230.03 1203.86 1229.68 1192.96 1230.09 1185.96 C 1232.97 1174.45 1229 1174.8 1240.05 1165.2 C 1251.37 1155.35 1263.99 1149.22 1276.83 1141.73 z" fill="rgb(250,241,190)" transform="translate(0,0)"></path>
<path d="M 1420.58 1100.01 C 1435.29 1102.11 1448.27 1102.88 1461.96 1109.39 L 1463.48 1110.09 C 1462.54 1142.45 1463.98 1176.6 1463.61 1209.44 C 1448.67 1206.54 1436.96 1204.55 1421.64 1203.44 C 1421.73 1197.11 1421.79 1192.16 1422.51 1185.83 C 1422.06 1181.15 1422.14 1169.34 1422.51 1164.64 C 1420.74 1145.26 1422.38 1121.94 1420.58 1100.01 z" fill="rgb(239,187,168)" transform="translate(0,0)"></path>
<path d="M 1423.12 1139.85 C 1441.15 1154.32 1453.21 1167.53 1432.66 1191.19 C 1430.85 1193.29 1425.87 1198.5 1423.42 1198.95 C 1423.25 1198.41 1422.71 1187.9 1422.51 1185.83 C 1422.06 1181.15 1422.14 1169.34 1422.51 1164.64 C 1423.42 1155.92 1423.16 1148.61 1423.12 1139.85 z" fill="rgb(250,241,190)" transform="translate(0,0)"></path>
<path d="M 1325.25 1063.9 C 1370.35 1060.78 1424.19 1067.43 1468.87 1074.49 C 1475.84 1075.59 1480.29 1083.92 1477.35 1090.66 C 1472.94 1090.99 1462.29 1088.75 1457.5 1087.87 C 1427.12 1082.3 1397.02 1080.66 1366.18 1079.15 C 1320.99 1076.76 1261.54 1081.93 1217.38 1091.97 L 1217.54 1076.05 C 1245.45 1068.3 1296.26 1065.26 1325.25 1063.9 z" fill="rgb(239,187,168)" transform="translate(0,0)"></path>
<path d="M 1319.32 1243.53 C 1324.74 1242.64 1345.73 1242.84 1351.77 1242.78 C 1396.27 1242.3 1438.61 1244.63 1482.56 1251.87 C 1445.64 1260.64 1421.68 1262.24 1384.36 1263.12 C 1342.83 1265.71 1258.26 1262.51 1219.59 1253.27 C 1247.42 1246.4 1290.79 1244.59 1319.32 1243.53 z" fill="rgb(191,137,104)" transform="translate(0,0)"></path>
<path d="M 1331.57 1041.38 C 1353.49 1037.69 1417.55 1043.45 1433.74 1059.14 L 1432.81 1060.58 C 1427.17 1061.58 1375.35 1057.62 1364.02 1057.24 C 1332.56 1056.28 1287.56 1058.4 1257.13 1064.3 C 1281.74 1044.77 1301.02 1043.57 1331.57 1041.38 z" fill="rgb(191,137,104)" transform="translate(0,0)"></path>
<path d="M 1368.8 965.024 C 1380.66 963.285 1385.74 966.392 1396.82 969.907 C 1438.49 983.129 1443.09 1014.49 1441.78 1053.5 C 1437.9 1053.21 1435.1 1050.81 1431.81 1048.7 L 1429.85 1047.5 C 1429.95 1022.03 1431.92 1005.38 1412.03 985.858 C 1398.17 972.253 1375.05 974.23 1368.8 965.024 z" fill="rgb(239,187,168)" transform="translate(0,0)"></path>
<path d="M 1325.29 1086.08 C 1344.85 1085.66 1456.23 1087.73 1469.72 1098 L 1468.82 1100.02 C 1461.36 1102.71 1447.26 1096.68 1438.71 1095.25 C 1416.11 1091.47 1392.02 1090.72 1369.25 1089.96 C 1331.74 1087.59 1287.98 1089.93 1250.98 1097.21 C 1241.16 1099.15 1235.31 1101.78 1224.99 1099.08 L 1225.28 1097.87 L 1225.47 1099.21 L 1226.47 1097.3 C 1253.9 1089.16 1296.45 1086.88 1325.29 1086.08 z" fill="rgb(191,137,104)" transform="translate(0,0)"></path>
<path d="M 1324.03 963.757 C 1324.45 963.995 1326.53 965.174 1325.55 965.984 C 1321.85 969.045 1314.98 968.542 1310.46 970.878 C 1308.95 971.662 1304.8 972.161 1303.1 973.227 C 1292.03 977.533 1283.57 983.638 1276.39 993.149 C 1272.04 998.926 1267.23 1005.54 1265.28 1012.59 C 1262.05 1024.02 1264.04 1035.79 1263.56 1047.39 C 1263.5 1048.92 1259.6 1050.87 1258.7 1051.44 L 1256.66 1052.87 C 1253.42 1049.95 1254.6 1042.67 1254.43 1038.18 C 1252.64 990.978 1281.14 970.439 1324.03 963.757 z" fill="rgb(239,187,168)" transform="translate(0,0)"></path>
<path d="M 1336.19 940.156 C 1345.07 939.522 1351.6 939.598 1360.55 939.699 C 1359.74 952.308 1360.55 963.814 1360.14 976.253 L 1337.89 976.667 C 1337.14 965.875 1336.19 950.841 1336.19 940.156 z" fill="rgb(239,187,168)" transform="translate(0,0)"></path>
<path d="M 0 1139.25 L 391.032 1138.95 C 429.033 1138.63 467.035 1138.53 505.037 1138.67 C 568.295 1138.88 634.8 1141.17 684.376 1188.63 C 696.394 1200.13 704.845 1213.15 704.09 1230.25 C 704.271 1256.35 704.328 1282.45 704.242 1308.56 L 705.003 1589.15 C 704.888 1665.21 703.235 1749.86 705.233 1825.21 C 690.217 1834.01 651.169 1877.63 636.477 1892.8 L 486.31 2048.77 C 460.466 2076.12 428.354 2103.15 406.296 2133.66 C 415.107 2133.64 441.249 2132.87 448.342 2135.15 C 299.926 2136.84 148.707 2135.28 0 2135.46 L 0 1139.25 z" fill="rgb(239,187,168)" transform="translate(0,0)"></path>
<path d="M 185.029 1241.41 C 193.476 1242.77 203.513 1253.8 209.541 1259.8 C 312.954 1362.84 378.527 1495.82 419.726 1634.55 C 424.558 1650.82 447.544 1735.26 441.035 1747.21 C 438.973 1746.54 438.294 1746.06 436.368 1745.05 C 430.535 1726.03 427.148 1704.9 422.017 1684.94 C 383.313 1534.34 320.209 1393.64 215.798 1276.88 C 210.184 1270.6 186.029 1247.81 185.029 1241.41 z" fill="rgb(14,9,11)" transform="translate(0,0)"></path>
<path d="M 441.96 1764.38 C 443.92 1764.88 444.951 1765.37 446.827 1766.12 C 451.917 1775.41 451.337 1797.19 453.966 1809.62 C 471.077 1890.56 477.776 1975.6 454.233 2056.67 C 453.756 2056.97 450.733 2058.04 450.094 2058.28 L 448.132 2057.3 C 447.115 2053.55 452.449 2027.2 453.415 2021.1 C 464.396 1951.79 459.343 1882.49 447.015 1813.76 C 444.552 1800.03 440.455 1777.62 441.96 1764.38 z" fill="rgb(14,9,11)" transform="translate(0,0)"></path>
<path d="M 150.872 1211.51 C 160.751 1211.02 173.506 1221.53 174.503 1230.13 C 167.451 1229.21 153.051 1217.17 150.872 1211.51 z" fill="rgb(14,9,11)" transform="translate(0,0)"></path>
<path d="M 1168.96 2065.02 C 1229.24 2066.89 1281.91 2065.9 1342.18 2064.76 C 1342.06 2074.89 1340.57 2096.19 1346.12 2104.37 L 1348.04 2104.01 C 1353.04 2094.41 1351.42 2076.56 1351.08 2065.31 L 1560.7 2066.07 C 1562.72 2068.72 1564.77 2071.47 1567.06 2073.9 C 1601.37 2110.29 1761.56 2135.48 1812.27 2138.5 C 1831.5 2159.5 1861.08 2204.52 1880.19 2229.53 C 1855.97 2228.36 1832.05 2228.93 1807.86 2228.65 C 1743.26 2227.91 1679.25 2229.44 1614.64 2228.5 C 1609.08 2208.61 1578.75 2122.5 1565.7 2111.97 C 1563.66 2122.6 1575.96 2152.05 1579.54 2164.04 C 1591.55 2203.8 1601.18 2244.95 1614.67 2284.25 C 1623.11 2308.86 1634.73 2333.58 1643.54 2358.18 C 1652.81 2384.06 1661.8 2410.16 1671.13 2436.02 C 1675.17 2437.04 1673.37 2437.35 1676.74 2435.36 C 1680.05 2424.32 1623.15 2253.92 1616.44 2235.55 C 1705.53 2234.59 1794.64 2234.46 1883.73 2235.16 C 1893.21 2249.38 1936.2 2313.43 1949.56 2317.04 L 1949.88 2314.71 C 1942.63 2294.48 1843.93 2163.2 1824.2 2140.02 L 2086.74 2160.19 C 2102.04 2173.97 2125.39 2190.91 2142.02 2204.23 C 2170.7 2227.01 2198.13 2251.33 2224.18 2277.08 C 2209.7 2286.46 2170.19 2299.57 2152.3 2307.46 C 2113.95 2324.23 2075.7 2340.7 2036.61 2355.75 C 2020.98 2361.76 2003.47 2369.67 1986.99 2372.9 C 1986.06 2373.02 1985.12 2373.14 1984.19 2373.26 C 1984.26 2383.07 2019.07 2425.46 2026.68 2436.89 C 2039.74 2456.52 2053.11 2477.95 2066.3 2497.42 C 2109.92 2562.98 2156.44 2626.57 2205.72 2688 L 1767.87 2688 L 1757.89 2688 L 1336.54 2688 L 1327.27 2688 L 913.362 2688 C 919.837 2673.16 932.599 2649.6 936.315 2634.18 C 950.39 2592.66 972.105 2545.76 988.732 2504.98 L 1106.98 2220.99 C 1127.46 2172.53 1153.9 2115.19 1168.96 2065.02 z" fill="rgb(243,234,220)" transform="translate(0,0)"></path>
<path d="M 1692.46 2478.86 C 1738.07 2468.45 1784.85 2450.24 1828.7 2433.99 C 1878.83 2415.41 1936.1 2396.34 1984.19 2373.26 C 1984.26 2383.07 2019.07 2425.46 2026.68 2436.89 C 2039.74 2456.52 2053.11 2477.95 2066.3 2497.42 C 2109.92 2562.98 2156.44 2626.57 2205.72 2688 L 1767.87 2688 L 1757.89 2688 L 1336.54 2688 C 1335.74 2675.59 1336.49 2655.88 1336.59 2643.41 C 1336.72 2627.75 1335.15 2568.4 1338.53 2555.78 C 1339.49 2560.64 1338.98 2571.48 1338.92 2576.94 C 1345.15 2575 1351.52 2573.15 1357.89 2571.78 C 1409.03 2560.59 1461.27 2552.15 1511.29 2536.51 C 1568.55 2518.61 1631.46 2504.07 1686.56 2480.39 C 1686.65 2482.16 1686.84 2483.56 1688.6 2484.41 C 1689.64 2484.92 1690.85 2484.96 1691.92 2484.52 C 1694.86 2483.32 1693.43 2480.71 1692.46 2478.86 z" fill="rgb(228,195,198)" transform="translate(0,0)"></path>
<path d="M 1757.89 2688 C 1750.34 2670.52 1742.22 2641.57 1735.4 2623.02 C 1727.2 2600.71 1695.59 2526.96 1698.46 2507.26 L 1700.11 2504.95 C 1704.7 2505.06 1702.68 2504.33 1706.3 2507.41 C 1710.36 2519.19 1712.22 2535.53 1716.17 2545.19 C 1735.66 2592.76 1751.99 2639.18 1767.87 2688 L 1757.89 2688 z" fill="rgb(14,9,11)" transform="translate(0,0)"></path>
<path d="M 1324.23 2580.82 C 1324.17 2571.11 1324.31 2554.5 1326.83 2545.43 C 1327.25 2577.82 1325.8 2610.96 1325.66 2643.4 C 1325.6 2658.11 1327.58 2672.67 1327.27 2688 L 913.362 2688 C 919.837 2673.16 932.599 2649.6 936.315 2634.18 C 943.498 2638.27 971.878 2634.63 981.399 2634.4 C 1099.45 2631.61 1209.29 2606.41 1324.23 2580.82 z" fill="rgb(228,195,198)" transform="translate(0,0)"></path>
<path d="M 1326.83 2545.43 C 1327.73 2527.67 1329.48 2507.41 1329.1 2489.82 C 1326.45 2369.61 1340.21 2249.94 1340.72 2129.6 C 1340.73 2125.85 1341.05 2125.25 1343.44 2122.73 C 1347.35 2123.54 1345.62 2122.61 1348.23 2126.57 C 1349.16 2135.21 1348.73 2147.88 1348.87 2157.01 C 1349.32 2177.79 1349.55 2198.58 1349.58 2219.36 C 1350.08 2281.56 1350.91 2341.8 1347.56 2404.24 C 1345.05 2451.04 1337.29 2509.88 1338.53 2555.78 C 1335.15 2568.4 1336.72 2627.75 1336.59 2643.41 C 1336.49 2655.88 1335.74 2675.59 1336.54 2688 L 1327.27 2688 C 1327.58 2672.67 1325.6 2658.11 1325.66 2643.4 C 1325.8 2610.96 1327.25 2577.82 1326.83 2545.43 z" fill="rgb(14,9,11)" transform="translate(0,0)"></path>
<path d="M 1686.56 2480.39 C 1685.19 2476.92 1678.08 2463.85 1679.1 2461.69 C 1683.73 2451.86 1691.77 2477.34 1692.46 2478.86 C 1693.43 2480.71 1694.86 2483.32 1691.92 2484.52 C 1690.85 2484.96 1689.64 2484.92 1688.6 2484.41 C 1686.84 2483.56 1686.65 2482.16 1686.56 2480.39 z" fill="rgb(14,9,11)" transform="translate(0,0)"></path>
<path d="M 1953.35 2328.04 C 1961.06 2328.46 1960.59 2328.64 1965.31 2335.38 C 1972.37 2345.48 1980.11 2357.05 1985.55 2368.13 C 1977.38 2367.77 1975.26 2366.45 1972.02 2358.21 C 1968.64 2349.62 1956.27 2337.49 1954.03 2330.14 L 1953.35 2328.04 z" fill="rgb(14,9,11)" transform="translate(0,0)"></path>
<path d="M 1553.61 2078.24 C 1563.45 2080.25 1564.54 2090.57 1563.93 2099.55 C 1553.87 2097.28 1552.04 2087.53 1553.61 2078.24 z" fill="rgb(14,9,11)" transform="translate(0,0)"></path>
<path d="M 1473.09 1262.48 C 1501.41 1285.6 1528.42 1311.19 1556.52 1333.97 L 1559.11 1849.58 C 1559.75 1914.81 1556.64 1992.78 1559.71 2056.64 C 1539.06 2054.22 1494.82 2055.6 1472.1 2055.7 L 1335.32 2055.37 C 1225.74 2054.91 1116.16 2055 1006.58 2055.65 L 729.143 2060.13 C 727.126 1985.59 732.478 1910.41 732.179 1835.84 C 732.127 1822.73 731.51 1809.5 731.56 1796.43 C 744.782 1781.63 765.991 1761.29 780.358 1746.19 L 935.471 1584.48 C 1008.3 1506.68 1081.97 1429.68 1156.47 1353.48 C 1184.5 1324.46 1213.15 1292.56 1241.48 1264.65 C 1292.82 1272.08 1424.84 1274.35 1473.09 1262.48 z" fill="rgb(206,184,160)" transform="translate(0,0)"></path>
<path d="M 1581.8 1311.35 C 1638.87 1271.91 1765.49 1257.44 1833.93 1249.39 C 1915.14 1239.89 1996.61 1232.71 2078.22 1227.87 C 2281.19 1213.9 2484.56 1206.57 2688 1205.89 L 2688 1305.25 C 2647.83 1314.55 2607.96 1321.72 2567.62 1335.43 C 2485.39 1363.39 2401.24 1408.27 2351.84 1482.36 C 2336.48 1505.39 2319.31 1550.53 2316.22 1576.48 C 2313.59 1598.54 2314.83 1630.81 2315.02 1653.48 C 2315.25 1694.66 2315.28 1735.84 2315.09 1777.01 L 2313.66 2016.08 C 2313.58 2041.13 2311.12 2069.96 2311.94 2093.66 L 2161.96 1938.62 C 2139.28 1915.16 2116.63 1894.11 2094.96 1869.42 C 2064.43 1834.63 2029.92 1803.32 2000.39 1767.19 C 1992.7 1757.8 1975.97 1744.96 1966.67 1735.87 L 1821.63 1593.81 C 1743.38 1516.07 1666.62 1435.1 1583.19 1362.68 C 1583.13 1378.55 1583.56 1418.63 1580.42 1433.57 C 1579.77 1419.11 1580.85 1401.34 1581.13 1386.54 C 1581.58 1361.48 1581.8 1336.42 1581.8 1311.35 z" fill="rgb(175,146,197)" transform="translate(0,0)"></path>
<path d="M 1583.19 1362.68 C 1666.62 1435.1 1743.38 1516.07 1821.63 1593.81 L 1966.67 1735.87 C 1975.97 1744.96 1992.7 1757.8 2000.39 1767.19 C 2029.92 1803.32 2064.43 1834.63 2094.96 1869.42 C 2116.63 1894.11 2139.28 1915.16 2161.96 1938.62 L 2311.94 2093.66 L 2312.1 2156.58 C 2196.26 2153.75 2080.5 2148.27 1964.91 2140.15 C 1921.2 2137 1877.4 2132.33 1834.02 2129.41 C 1833.48 2126.8 1832.9 2124.2 1832.29 2121.62 C 1830.83 2115.29 1829.06 2106.19 1823.28 2102.56 L 1821.56 2104.28 C 1819.93 2112.87 1822.45 2119.78 1824.23 2128.61 C 1769.37 2121.76 1618.62 2103.42 1579.54 2065.81 C 1588.08 2039.13 1585.2 1941.07 1584.78 1910.39 L 1580.82 1572.09 L 1579.76 1478.24 C 1579.73 1464.46 1579.24 1447.05 1580.42 1433.57 C 1583.56 1418.63 1583.13 1378.55 1583.19 1362.68 z" fill="rgb(228,195,198)" transform="translate(0,0)"></path>
<path d="M 1769.85 1882.57 C 1770.89 1882.68 1772.16 1882.78 1773.17 1883.03 C 1774.94 1883.45 1777.01 1883.76 1777.92 1885.46 C 1781.55 1892.25 1781.69 1945.21 1782.95 1957.9 C 1785.39 1982.35 1792.47 2007.84 1799.36 2031.42 C 1801.89 2040.09 1815.76 2075.32 1814.37 2080.5 C 1812.12 2080.14 1808.73 2079.46 1807.64 2077.48 C 1779.67 2027.03 1763.92 1937.01 1769.85 1882.57 z" fill="rgb(14,9,11)" transform="translate(0,0)"></path>
<path d="M 1773.37 1788.01 C 1779.35 1790.13 1778.82 1789.88 1777.43 1796.8 C 1775.28 1807.48 1775.48 1818.76 1774.62 1829.7 C 1774.32 1829.6 1769.96 1828.54 1769.79 1827.74 C 1768.19 1820.08 1768.51 1796.2 1772.4 1789.72 L 1773.37 1788.01 z" fill="rgb(14,9,11)" transform="translate(0,0)"></path>
<path d="M 1770.49 1840.65 C 1779.08 1843.8 1776.13 1849.43 1774.25 1858.03 C 1766.28 1854.85 1768.47 1848.79 1770.49 1840.65 z" fill="rgb(14,9,11)" transform="translate(0,0)"></path>
<path d="M 726.844 2066.8 C 810.225 2067.53 895.026 2065.95 978.469 2064.67 C 1038.75 2063.75 1099.03 2065.43 1158.99 2065.1 C 1145.25 2098.29 1130.71 2131.14 1115.36 2163.62 C 1107.81 2179.32 1097.48 2197.33 1090.82 2212.82 C 1054.37 2297.55 1021.58 2384.32 990.21 2471.04 C 970.758 2524.82 944.265 2581.93 928.035 2636.29 C 923.418 2642.33 910.199 2677.36 905.409 2688 L 452.547 2688 C 473.909 2660.74 501.008 2631.01 523.628 2603.31 C 533.39 2590.8 546.957 2575.73 557.428 2563.16 L 632.511 2471.99 L 738.687 2340.22 C 751.619 2323.91 763.67 2306.76 776.562 2290.6 C 785.206 2279.76 796.149 2268.56 805.275 2257.53 C 832.389 2224.47 858.976 2190.98 885.025 2157.08 C 891.275 2149.03 918.776 2116.83 918.823 2110.47 L 916.101 2110.5 C 904.381 2117.16 899.551 2127.08 891.316 2136.98 C 866.666 2166.62 841.636 2196.11 817.328 2225.98 C 817.06 2226.39 816.792 2226.79 816.525 2227.19 C 764.807 2228.83 709.984 2226.7 657.641 2228.22 C 635.044 2228.87 584.455 2231.79 563.285 2230.12 C 555.159 2229 547.595 2229.27 539.409 2229.39 C 533.644 2229.48 534.306 2230.07 531.738 2225.51 C 549.024 2209.31 570.834 2193.45 588.969 2177.6 C 603.055 2165.28 616.737 2152.1 631.385 2140.62 C 638.68 2134.9 648.431 2133.87 656.977 2129.55 C 697.206 2109.2 706.229 2104.94 726.844 2066.8 z" fill="rgb(243,234,220)" transform="translate(0,0)"></path>
<path d="M 452.547 2688 C 473.909 2660.74 501.008 2631.01 523.628 2603.31 C 537.773 2608.01 567.286 2612.1 582.694 2614.9 C 696.685 2634.59 812.486 2641.76 928.035 2636.29 C 923.418 2642.33 910.199 2677.36 905.409 2688 L 452.547 2688 z" fill="rgb(228,195,198)" transform="translate(0,0)"></path>
<path d="M 942.588 2073.1 C 957.864 2074.49 945.613 2078.72 940.583 2088.52 C 939.528 2090.58 935.937 2093.8 934.195 2095.48 C 919.783 2098.16 939.787 2076.76 942.588 2073.1 z" fill="rgb(14,9,11)" transform="translate(0,0)"></path>
<path d="M 2688 1317.65 L 2688 1642.55 C 2622.36 1661.4 2560.36 1677.97 2501.84 1714.49 C 2485.1 1724.94 2472.47 1737.21 2457.32 1749.25 C 2405.54 1790.41 2364.48 1837.55 2337.54 1898.48 C 2334.84 1843.62 2336.83 1778.45 2336.08 1722.38 C 2338.58 1669.23 2330.49 1607.04 2341.8 1555.33 C 2374.49 1405.86 2559.62 1339.78 2688 1317.65 z" fill="rgb(8,44,102)" transform="translate(0,0)"></path>
<path d="M 516.214 2237.84 C 614.28 2235.19 712.376 2233.77 810.479 2233.55 C 702.719 2351.55 616.167 2482.71 512.558 2602.02 C 425.933 2576.94 352.213 2553.01 282.257 2493.55 C 269.043 2482.32 257.881 2476.26 249.283 2461.08 C 260.366 2450.23 278.769 2435.83 291.088 2425.47 L 366.523 2362.04 C 411.255 2324.5 470.689 2271.38 516.214 2237.84 z" fill="rgb(243,234,220)" transform="translate(0,0)"></path>
<path d="M 2397.98 2169.99 C 2402.98 2168.52 2407.35 2167.09 2411.72 2170.44 C 2443.94 2195.13 2480.73 2215.77 2514.46 2238.54 C 2571.5 2277.04 2632.17 2312.58 2688 2352.59 L 2688 2655.13 C 2670.69 2642.74 2655.51 2628.48 2638.9 2615.21 C 2589.23 2575.55 2538.4 2533.89 2490.51 2492.29 C 2406.71 2419.48 2317.2 2348.68 2235.74 2273.77 C 2260.7 2259.95 2399.2 2196.84 2409.06 2184.12 C 2407.95 2178.75 2402.22 2173.26 2397.98 2169.99 z" fill="rgb(228,195,198)" transform="translate(0,0)"></path>
<path d="M 1575.17 1299.11 C 1564.74 1288.65 1555.21 1272.14 1554.5 1257.25 C 1553.01 1226.17 1587.44 1209.99 1612.32 1200.59 C 1690.72 1170.99 1777.53 1160.14 1860.3 1149.48 C 2030.94 1127.5 2202.59 1123.09 2374.31 1118.39 C 2478.83 1114.51 2583.42 1113 2688 1113.85 L 2688 1193.39 C 2607.17 1195.98 2524.24 1195.22 2442.87 1197.43 C 2292.28 1201.05 2141.82 1209.04 1991.7 1221.42 C 1936.45 1225.53 1881.31 1230.99 1826.32 1237.8 C 1746.42 1247.26 1645.69 1258.64 1575.17 1299.11 z" fill="rgb(175,146,197)" transform="translate(0,0)"></path>
<path d="M 2090.22 2503.75 L 2487.92 2505.85 L 2585.41 2585.19 C 2619.54 2612.57 2654.21 2639.24 2688 2667.04 L 2688 2688 L 2222.73 2688 C 2210.82 2670.41 2197.31 2652.88 2184.86 2635.51 L 2090.22 2503.75 z" fill="rgb(228,195,198)" transform="translate(0,0)"></path>
<path d="M 318.147 2148.49 L 399.839 2148.25 C 389.226 2155.58 366.952 2193.8 355.169 2207.27 C 306.604 2262.82 239.466 2315.64 219.947 2389.37 C 214.027 2411.73 223.06 2442.15 242.218 2455.84 C 191.021 2501.28 139.469 2546.33 87.5661 2590.96 C 59.9555 2614.95 28.3684 2645.23 0 2667.1 L 0 2362.74 C 22.1236 2350.38 47.1408 2325.2 70.2571 2311.29 C 102.659 2291.79 134.292 2268.89 165.95 2248.1 C 216.436 2214.94 269.04 2183.63 318.147 2148.49 z" fill="rgb(228,195,198)" transform="translate(0,0)"></path>
<path d="M 2446.5 2154.08 C 2446.39 2083.4 2442.95 2015.32 2467.6 1947.35 C 2493.57 1875.75 2555 1817.35 2618.83 1778.08 C 2641.22 1764.3 2664.61 1754.51 2688 1743.03 L 2688 2150.21 C 2667.64 2152.94 2612.77 2151.69 2590.28 2152.13 C 2543.01 2153.06 2493.51 2155.3 2446.5 2154.08 z" fill="rgb(8,44,102)" transform="translate(0,0)"></path>
<path d="M 0 2676.93 C 10.8349 2669.21 27.4497 2654.21 37.8138 2645.27 L 108.606 2583.63 C 144.29 2552.89 181 2522.97 215.577 2490.95 C 226.286 2481.04 239.19 2471.39 249.283 2461.08 C 257.881 2476.26 269.043 2482.32 282.257 2493.55 C 352.213 2553.01 425.933 2576.94 512.558 2602.02 C 489.124 2629.89 465.345 2659.63 442.141 2688 L 0 2688 L 0 2676.93 z" fill="rgb(228,195,198)" transform="translate(0,0)"></path>
<path d="M 2224.18 2277.08 C 2247.89 2302.53 2281.19 2329.15 2307.29 2353.05 C 2363.28 2404.33 2423.02 2451.05 2481 2499.87 C 2400.8 2498.18 2320.58 2497.32 2240.36 2497.31 L 2157.97 2497.55 C 2135.38 2497.55 2109.43 2496.97 2086.98 2499.12 C 2080.3 2490.04 2073.68 2480.99 2066.75 2471.92 C 2042.4 2440.02 2019.69 2406.43 1993.27 2376.2 C 1991.06 2373.67 1987.32 2373.58 1984.19 2373.26 C 1985.12 2373.14 1986.06 2373.02 1986.99 2372.9 C 2003.47 2369.67 2020.98 2361.76 2036.61 2355.75 C 2075.7 2340.7 2113.95 2324.23 2152.3 2307.46 C 2170.19 2299.57 2209.7 2286.46 2224.18 2277.08 z" fill="rgb(228,195,198)" transform="translate(0,0)"></path>
<path d="M 406.296 2133.66 C 428.354 2103.15 460.466 2076.12 486.31 2048.77 L 636.477 1892.8 C 651.169 1877.63 690.217 1834.01 705.233 1825.21 C 707.1 1853.94 704.164 1888 705.362 1918.26 C 707.142 1963.21 709.717 2014.09 704.572 2058.97 C 704.007 2063.91 694.956 2077.13 691.373 2080.66 C 654.158 2117.27 596.295 2134.77 544.845 2134.83 C 522.978 2134.86 502.128 2136.11 480.386 2135.42 C 471.079 2135.12 456.751 2135.94 448.342 2135.15 C 441.249 2132.87 415.107 2133.64 406.296 2133.66 z" fill="rgb(243,234,220)" transform="translate(0,0)"></path>
<path d="M 399.839 2148.25 C 443.634 2148.07 487.459 2147.59 531.222 2147.28 C 564.687 2147.04 580.666 2147.97 614.242 2142.98 C 494.834 2250.09 363.191 2349.16 242.218 2455.84 C 223.06 2442.15 214.027 2411.73 219.947 2389.37 C 239.466 2315.64 306.604 2262.82 355.169 2207.27 C 366.952 2193.8 389.226 2155.58 399.839 2148.25 z" fill="rgb(243,234,220)" transform="translate(0,0)"></path>
<path d="M 2329.58 2121.99 C 2330.86 2087.92 2332.49 2053.8 2332.68 2019.71 C 2332.72 2011.27 2332.2 1998.53 2333.47 1990.45 C 2347.21 1903.43 2391.7 1825.98 2459.12 1769.28 C 2475.67 1755.38 2492.44 1739.28 2510.46 1727.35 C 2564.71 1691.44 2625.82 1672.7 2688 1655.76 L 2688 1721.09 C 2591.41 1748.25 2520.17 1790.52 2457.46 1870.09 C 2396.61 1947.28 2397.97 2037.93 2399.93 2131.01 C 2400.1 2137.34 2405.11 2159.14 2399.05 2159.4 C 2382.09 2160.13 2356.81 2159.11 2340.15 2156.54 C 2338.06 2156.6 2331.03 2157.09 2330.56 2155.72 C 2329.11 2151.52 2329.53 2125.6 2329.58 2121.99 z" fill="rgb(175,146,197)" transform="translate(0,0)"></path>
<path d="M 2329.58 2121.99 C 2336.11 2126.94 2354.32 2149.46 2360.11 2156.64 C 2352.6 2156.27 2347.66 2155.91 2340.15 2156.54 C 2338.06 2156.6 2331.03 2157.09 2330.56 2155.72 C 2329.11 2151.52 2329.53 2125.6 2329.58 2121.99 z" fill="rgb(228,195,198)" transform="translate(0,0)"></path>
<path d="M 0 2148.37 L 204.644 2148.54 C 238.046 2148.59 273.293 2147.89 306.486 2148.55 C 224.382 2202.67 140.591 2254.95 58.8899 2309.98 C 38.4601 2323.74 19.848 2340.12 0 2353.7 L 0 2148.37 z" fill="rgb(228,195,198)" transform="translate(0,0)"></path>
<path d="M 2417.97 2166.85 C 2451.66 2163.74 2477.04 2164.62 2510.32 2164.11 C 2569.54 2163.14 2628.77 2162.67 2688 2162.71 L 2688 2342.96 C 2599.86 2281.17 2505.99 2227.68 2417.97 2166.85 z" fill="rgb(228,195,198)" transform="translate(0,0)"></path>
<path d="M 2101.1 2160.68 C 2170.08 2163.67 2239 2166.63 2308.03 2167.26 C 2332.05 2167.47 2375.82 2172.99 2397.98 2169.99 C 2402.22 2173.26 2407.95 2178.75 2409.06 2184.12 C 2399.2 2196.84 2260.7 2259.95 2235.74 2273.77 C 2206.96 2245.85 2174.9 2221.35 2144.14 2195.59 C 2130.08 2183.81 2114.61 2173.25 2101.1 2160.68 z" fill="rgb(243,234,220)" transform="translate(0,0)"></path>
<path d="M 2688 1732.8 C 2657.67 1745.87 2618.35 1762.53 2590.75 1781.36 C 2485.84 1852.96 2434.64 1936.78 2429.03 2064.03 C 2428.44 2086.97 2428.61 2109.89 2427.81 2132.84 C 2427.45 2142.88 2433.92 2163.02 2414.73 2156.57 C 2410.12 2141.46 2413.54 2015.75 2415.46 1999.2 C 2426.37 1904.74 2502.66 1819.82 2582.22 1773.84 C 2616.18 1754.22 2650.1 1741.68 2688 1729.04 L 2688 1732.8 z" fill="rgb(175,146,197)" transform="translate(0,0)"></path>
<path d="M 531.738 2225.51 C 534.306 2230.07 533.644 2229.48 539.409 2229.39 C 547.595 2229.27 555.159 2229 563.285 2230.12 C 556.984 2230.93 533.999 2231.88 526.615 2230.69 C 526.388 2230.65 526.35 2230.22 526.459 2229.97 C 527.12 2228.47 530.605 2226.3 531.738 2225.51 z" fill="rgb(243,234,220)" transform="translate(0,0)"></path>
<metadata><recraft-signature>{"signed_by": "recraft", "signature_b64": "vuE9gpTDfqiuRmw2L0eSHMakd+omC4/shSPfWx+Nrl0hLBfYRjbD5aKZ2qX4Qf/cvCnqdrpcOU+AoUc7P/iqBA==", "signing_algo": "Ed25519", "generation_timestamp": 1781921703, "identifier": "a117e4f5-dd14-4cf3-a164-cea4d0e26fd0"}</recraft-signature></metadata></svg>