<svg xmlns="http://www.w3.org/2000/svg" height="2688" preserveAspectRatio="none" style="display: block;" version="1.1" viewBox="0 0 2688 2688" width="1536">
<path d="M 0 0 L 313.095 0 L 323.734 0 L 523.053 0 L 597.998 0 L 2688 0 L 2688 248.228 L 2688 259.265 L 2688 342.595 L 2688 347.172 L 2688 456.711 L 2688 480.916 L 2688 565.902 L 2688 646.221 L 2688 680.614 L 2688 822.327 L 2688 827.89 L 2688 980.35 L 2688 986.602 L 2688 1126.61 L 2688 1132.02 L 2688 1252.45 L 2688 1258.63 L 2688 1559.75 L 2688 1566.75 L 2688 1771.47 L 2688 1777.14 L 2688 2688 L 0 2688 L 0 1777.85 L 0 1771.52 L 0 1557.3 L 0 1552.3 L 0 1323.24 L 0 1318.12 L 0 1123.91 L 0 1113.65 L 0 909.913 L 0 904.277 L 0 763.06 L 0 734.074 L 0 673.337 L 0 666.862 L 0 570.741 L 0 566.233 L 0 484.122 L 0 456.15 L 0 347.916 L 0 342.019 L 0 214.674 L 0 208.303 L 0 59.4934 L 0 54.9074 L 0 0 z" fill="rgb(1,1,1)" transform="translate(0,0)"></path>
<path d="M 0 1777.85 C 59.9139 1780.22 126.243 1779.17 186.376 1778.82 L 356.113 1778.53 L 1094.79 1778.34 L 2152.93 1777.79 L 2445.7 1777.32 C 2525.76 1777.47 2608.02 1778.65 2688 1777.14 L 2688 2688 L 0 2688 L 0 1777.85 z" fill="rgb(252,251,252)" transform="translate(0,0)"></path>
<path d="M 1494.98 1815.74 C 1517.24 1814.54 1545.16 1815.28 1567.79 1815.28 L 1696.93 1815.25 L 2092.7 1815.29 L 2357.41 1815.26 L 2437.82 1815.24 C 2491.96 1815.24 2541.61 1815.85 2587.35 1850.08 C 2620.31 1874.76 2615.89 1900.89 2615.63 1936.76 L 2615.71 2003.87 L 2615.91 2087.99 C 2616.02 2103.03 2617.55 2126.94 2615.11 2140.97 C 2605.27 2197.47 2531.69 2212.73 2486.84 2217.96 C 2412.76 2219.64 2332.73 2218.25 2258.18 2218.25 L 1826.42 2218.23 L 1601.72 2218.23 C 1531.29 2218.28 1447.78 2228.14 1388.95 2182.34 C 1357.13 2157.57 1363.2 2125.31 1363.28 2089.72 L 1363.51 2001.18 C 1363.56 1967.32 1360.83 1920.78 1364.78 1888.35 C 1370.83 1838.72 1456.65 1818.55 1494.98 1815.74 z" fill="rgb(1,1,1)" transform="translate(0,0)"></path>
<path d="M 1544.02 1821.09 L 2197.03 1821.35 L 2384.52 1821.2 C 2443.79 1821.02 2573.73 1809.39 2603.18 1886.58 C 2606.3 1894.78 2604.72 1946.25 2604.75 1959.01 L 2604.97 2123.53 C 2604.92 2144.07 2602.43 2159.86 2586.34 2174.45 C 2546.11 2210.91 2493.39 2212.26 2443.55 2212.17 L 1780.95 2212.04 L 1594.84 2212.13 C 1539.94 2212.34 1396.62 2224.87 1375.68 2144.51 C 1371.89 2129.99 1374.55 2076.07 1374.73 2056.79 C 1375.04 2013.89 1374.98 1970.99 1374.53 1928.1 C 1374.41 1902.53 1371.66 1878.6 1392.28 1859.89 C 1435.27 1820.88 1491.27 1821.22 1544.02 1821.09 z" fill="rgb(252,251,252)" transform="translate(0,0)"></path>
<path d="M 206.281 1815.74 C 272.607 1813.32 349.416 1815.25 416.701 1815.25 L 817.812 1815.25 L 1067.32 1815.27 C 1103.11 1815.22 1138.88 1814.96 1174.72 1815.21 C 1215.73 1815.5 1257.34 1822.99 1291.6 1846.81 C 1328.72 1872.61 1325.15 1898.5 1324.89 1938.72 L 1324.48 2012.89 L 1324.82 2093.66 C 1324.95 2120.89 1329.67 2147.52 1310.98 2169.4 C 1280.95 2204.56 1238.27 2213 1194.7 2218.04 C 1123.6 2219.99 1045.61 2218.3 973.807 2218.3 L 549.253 2218.27 L 314.337 2218.3 C 273.926 2218.32 228.701 2220.03 189.056 2216.65 C 147.101 2213.07 76.539 2187.45 73.806 2137.3 C 72.9682 2121.92 73.4918 2101.63 73.5052 2085.68 L 73.5363 1991.87 L 73.4874 1928.49 C 73.4347 1903.68 70.2259 1881.23 88.6692 1861.47 C 118.365 1829.65 164.467 1818.56 206.281 1815.74 z" fill="rgb(1,1,1)" transform="translate(0,0)"></path>
<path d="M 1162.57 1821.1 C 1213.96 1820.66 1280.75 1829.91 1309.16 1879.45 C 1312.68 1885.58 1313.66 1898.71 1313.66 1906.02 C 1313.67 1971.49 1313.39 2036.99 1313.71 2102.46 C 1313.77 2115.62 1314.31 2129.17 1312.33 2142.18 C 1304.52 2184.89 1250.87 2203.97 1213.27 2209.6 C 1175.34 2213.71 1136.02 2212.26 1098.78 2212.28 L 911.933 2212.29 L 246.422 2212.35 C 197.213 2212.39 145.412 2211.23 104.952 2176.67 C 92.7306 2166.23 83.7674 2148.58 83.8997 2132.39 C 84.3166 2081.35 83.8813 2030.5 84.1688 1979.4 C 85.3628 1951.51 81.8428 1919.63 85.0234 1892.28 C 90.0118 1849.38 152.54 1827.13 188.532 1823.54 C 225.656 1819.84 263.673 1821.32 300.385 1821.29 L 498.563 1821.21 L 1162.57 1821.1 z" fill="rgb(252,251,252)" transform="translate(0,0)"></path>
<path d="M 1500.97 2242.3 L 2185.33 2242.2 L 2397.09 2242.35 C 2462.96 2242.6 2532.98 2234.61 2588.79 2277.83 C 2622.79 2304.17 2615.89 2337.03 2615.83 2375.57 L 2615.67 2465.11 L 2615.76 2527.8 C 2615.85 2573.63 2616.73 2595.98 2571.2 2620.87 C 2543.2 2636.19 2516.37 2641.37 2484.88 2644.35 C 2465.9 2645.44 2438.56 2644.67 2419 2644.67 L 2293.99 2644.7 L 1903.97 2644.64 L 1624.82 2644.69 L 1542.83 2644.7 C 1521.86 2644.73 1500.05 2645.41 1478.72 2642.88 C 1433.45 2637.55 1367.71 2614.72 1363.5 2560.83 C 1362.45 2547.31 1363.24 2529.64 1363.33 2515.87 C 1363.53 2490.4 1363.57 2464.93 1363.46 2439.45 L 1363.11 2362.39 C 1362.99 2335.67 1359.1 2308.79 1378.82 2287.76 C 1409.57 2254.95 1457.97 2244.79 1500.97 2242.3 z" fill="rgb(1,1,1)" transform="translate(0,0)"></path>
<path d="M 1493.56 2248.87 C 1515.45 2247.64 1542.11 2248.33 1564.47 2248.34 L 1681.24 2248.37 L 2054.11 2248.32 L 2344.42 2248.32 L 2431.91 2248.24 C 2480.99 2248.14 2528.04 2246.64 2571.18 2274.79 C 2607.79 2298.67 2604.74 2317.82 2604.75 2356.21 L 2604.69 2425.1 L 2604.61 2516.37 C 2604.57 2539.17 2608.37 2573.48 2593.99 2591.72 C 2570.6 2621.37 2529.49 2632.4 2493.81 2637.35 C 2475.81 2639.65 2452.24 2638.55 2433.79 2638.54 L 2336.61 2638.55 L 2017.2 2638.51 L 1658.26 2638.4 L 1554.62 2638.56 C 1496.87 2638.74 1430.54 2641.8 1388.06 2594.69 C 1369.6 2574.22 1374.5 2545.9 1374.49 2520.03 L 1374.54 2425.19 L 1374.15 2360.29 C 1373.89 2327.13 1370.65 2300.86 1401.07 2278.46 C 1428.11 2258.55 1460.78 2251.74 1493.56 2248.87 z" fill="rgb(252,251,252)" transform="translate(0,0)"></path>
<path d="M 220.423 2242.41 L 865.674 2242.38 L 1087.14 2242.18 C 1157.06 2242.15 1243.9 2232.47 1300.89 2280.77 C 1331.66 2306.85 1324.73 2345.65 1324.64 2382.09 L 1324.81 2467.39 C 1324.84 2488.55 1326.95 2556.28 1323.23 2572.24 C 1311.17 2624.06 1231.49 2642.87 1184.2 2644.63 L 496.861 2644.67 L 304.209 2644.63 C 235.185 2644.83 151.034 2653.72 94.8927 2605.4 C 65.7568 2580.32 73.4401 2534.47 73.4838 2498.98 C 73.2957 2461.92 73.3161 2424.86 73.5449 2387.8 C 73.7429 2354.2 65.7949 2309.06 91.7352 2284.37 C 126.32 2251.45 174.519 2243.57 220.423 2242.41 z" fill="rgb(1,1,1)" transform="translate(0,0)"></path>
<path d="M 204.049 2248.82 C 272.084 2246.66 347.638 2248.39 416.272 2248.36 L 824.208 2248.35 L 1072.51 2248.37 C 1113.25 2248.37 1157.27 2247.38 1197.65 2249.12 C 1226.47 2252.18 1256.09 2258.93 1280.32 2274.94 C 1317.33 2299.4 1313.68 2321.8 1313.72 2360.98 L 1313.72 2434.7 L 1313.66 2516.74 C 1313.65 2540.53 1317.45 2573.51 1301.9 2592.73 C 1276.88 2623.67 1235.48 2633.21 1197.92 2638.02 C 1123.39 2640.32 1038.79 2638.59 963.647 2638.51 L 561.832 2638.49 L 322.68 2638.43 C 280.368 2638.49 235.085 2639.82 193.195 2637.08 C 155.194 2634.59 89.926 2611.4 84.7571 2567.16 C 83.1527 2553.42 83.9877 2529.8 83.9764 2515.01 L 83.9376 2425.64 L 83.9524 2356.55 C 83.9665 2332.2 80.7037 2310.07 98.2739 2290.53 C 124.59 2261.27 166.516 2251.9 204.049 2248.82 z" fill="rgb(252,251,252)" transform="translate(0,0)"></path>
<path d="M 1147.15 1527.33 C 1253.58 1528.65 1360.21 1527.34 1466.64 1527.41 L 1970.41 1528.5 L 2157.02 1527.63 C 2206.9 1527.59 2236.1 1521.9 2283.99 1540.4 C 2337.42 1561.04 2414.39 1545.36 2471.49 1549.04 C 2543.63 1555.71 2615.94 1560.73 2688 1566.75 L 2688 1771.47 C 2650.24 1770.63 2615 1771.87 2577.75 1771.9 L 2351.04 1772.32 L 1808.95 1773.8 L 592.94 1772.65 C 592.486 1754.77 591.704 1735.94 592.823 1718.14 C 596.353 1662.02 596.712 1606.26 596.45 1550.01 C 607.551 1550.08 645.999 1552.91 653.293 1551.72 L 654.473 1549.39 C 653.165 1545.43 652.584 1545.33 653.173 1541.49 C 671.896 1541.19 703.468 1554.69 719.96 1563.55 C 730.263 1560.68 737.534 1560.11 748.026 1558.64 C 799.205 1551.46 851.126 1546.05 902.277 1538.97 L 880.849 1556.18 C 905.967 1556.44 927.254 1558.25 952.773 1556.63 C 977.173 1555.08 1000.63 1552.08 1024.99 1551.73 C 1038.67 1551.54 1056.47 1561.64 1064.77 1557.39 L 1064.94 1555.08 C 1061.19 1549.13 1055.63 1545.04 1050.23 1540.39 C 1063.94 1544.14 1103.91 1554.45 1116.84 1553.95 C 1122.58 1549.4 1122.02 1551.58 1130.62 1551.36 L 1132.25 1550.32 L 1132.29 1550.79 L 1132.32 1550.5 C 1131.9 1550.17 1131.49 1549.83 1131.07 1549.49 C 1131.29 1549.38 1141.2 1548.8 1142.52 1548.66 C 1149.13 1549.18 1155.23 1550.39 1161.19 1548.02 L 1162.96 1545.54 C 1161.92 1539.55 1152 1531.78 1147.15 1527.33 z" fill="rgb(231,211,194)" transform="translate(0,0)"></path>
<path d="M 2138.1 1603.12 C 2162.03 1601.91 2177.19 1606.73 2200.46 1609.42 C 2250.56 1615.22 2299.98 1626.31 2349.76 1634.01 C 2396.05 1640.84 2442.29 1648.07 2488.46 1655.68 C 2500.13 1657.52 2569.28 1661.45 2562.47 1678.84 C 2536.82 1700.71 2318.47 1698.37 2273.56 1699.69 L 2019.39 1705.39 C 1997.58 1705.79 1974.82 1707.48 1953.17 1707.33 C 1923.16 1707.11 1895.22 1705.42 1865.06 1706.31 C 1855.47 1706.15 1809.81 1693.45 1798.86 1690.6 C 1766.37 1682.15 1733.81 1674 1701.17 1666.14 C 1683.98 1661.94 1664.39 1656.32 1647.18 1653.46 C 1577.03 1641.8 1507.92 1622.78 1438.43 1607.26 C 1471.24 1606.04 1501.99 1607.62 1534.56 1607.94 L 1700.03 1609.2 C 1787.09 1610.19 1873.2 1604.92 1960.08 1604.28 C 2019.5 1603.85 2078.41 1606.19 2138.1 1603.12 z" fill="rgb(250,240,207)" transform="translate(0,0)"></path>
<path d="M 988.912 1607.14 C 1027.45 1608.31 1066 1609.01 1104.55 1609.23 C 1170.82 1609.2 1237.8 1606.38 1304.17 1609.95 C 1322.52 1610.94 1359.55 1608.65 1374.49 1610.54 C 1417.76 1616.04 1466.41 1632.58 1508.45 1642.5 L 1778.04 1704.24 C 1728.54 1708.91 1657.54 1707.07 1606.83 1707.14 C 1554.8 1710.44 1494.24 1706.71 1441.41 1706.32 C 1378.09 1705.84 1310.64 1707.12 1247.63 1703.76 C 1144.28 1698.26 1036.66 1682.34 936.603 1655.89 C 901.808 1646.48 847.834 1629.8 816.447 1612.69 C 833.948 1610.66 851.931 1611.07 869.52 1610.49 L 988.912 1607.14 z" fill="rgb(250,240,207)" transform="translate(0,0)"></path>
<path d="M 1228.85 1546.33 C 1268.26 1544.63 1309.55 1545.43 1349.2 1545.38 C 1429.73 1544.79 1510.26 1545.92 1590.73 1548.77 C 1609.99 1549.44 1629.24 1551.06 1648.5 1551.99 C 1674.05 1553.24 1699.77 1553.18 1725.27 1554.38 C 1773.21 1556.84 1821.12 1559.9 1868.99 1563.54 C 1891.78 1565.06 1926.31 1565.66 1947.98 1568.72 C 1992.9 1575.07 2042.73 1583.54 2087.2 1592.65 L 1758.42 1597.07 C 1653.51 1597.61 1548.22 1595.02 1443.31 1595.67 C 1394.69 1595.97 1380.93 1592.21 1334.81 1581.28 L 1205.15 1549.61 C 1203.63 1549.36 1190.14 1547.33 1189.91 1546.01 C 1190.5 1545.3 1224.92 1546.18 1228.85 1546.33 z" fill="rgb(250,240,207)" transform="translate(0,0)"></path>
<path d="M 1205.15 1549.61 C 1203.63 1549.36 1190.14 1547.33 1189.91 1546.01 C 1190.5 1545.3 1224.92 1546.18 1228.85 1546.33 C 1223.45 1547.12 1206.89 1546.34 1205.15 1549.61 z" fill="rgb(247,230,204)" transform="translate(0,0)"></path>
<path d="M 754.848 1724.65 C 759.731 1724.69 780.563 1733.68 788.051 1735.51 C 813.468 1741.71 837.522 1743.12 863.569 1742.51 C 870.841 1742.34 900.728 1738.9 904.266 1741.17 L 903.474 1743.52 C 861.685 1750.01 806.131 1751.08 766.88 1734.23 C 761.31 1731.83 756.794 1729.94 754.848 1724.65 z" fill="rgb(1,1,1)" transform="translate(0,0)"></path>
<path d="M 2584.56 1721.22 C 2583.96 1724.95 2582.54 1725.04 2578.35 1725.76 C 2548.22 1730.96 2517.04 1735.64 2486.52 1735.16 C 2486.21 1732.54 2486.88 1732.05 2489.78 1731.99 C 2521.61 1731.43 2552.93 1723.98 2584.56 1721.22 z" fill="rgb(1,1,1)" transform="translate(0,0)"></path>
<path d="M 597.998 0 L 2688 0 L 2688 248.228 C 2686.55 241.343 2686.61 218.617 2686.45 210.444 C 2613.49 208.162 2540.48 207.713 2467.5 209.096 C 2404.15 209.901 2342.7 210.903 2279.16 208.896 C 2243.97 207.785 2205.55 211.864 2169.97 211.986 L 1453.48 211.715 C 1412.19 212.052 1365.39 208.894 1323.38 208.798 L 943.691 210.236 L 740.525 209.605 C 692.609 209.15 645.297 207.431 597.213 207.902 C 601.467 163.266 597.226 104.581 596.896 58.1674 C 620.515 56.7461 637.186 59.3238 659.534 59.3322 L 774.976 58.2434 C 794.194 58.2358 835.917 61.9118 851.44 55.5332 C 841.196 51.7934 746.685 54.56 729.749 54.5531 L 596.644 54.3445 C 596.743 35.0754 598.685 20.4304 597.998 0 z" fill="rgb(242,180,157)" transform="translate(0,0)"></path>
<path d="M 2507.01 74.6096 C 2512.28 77.7417 2507.44 79.0471 2505.09 81.8773 C 2489.29 100.904 2467.51 112.297 2445.16 121.776 C 2426.33 129.763 2412.83 132.189 2392.6 132.78 C 2391.08 132.105 2390.89 132.6 2390.85 131.413 C 2388.08 133.809 2443.01 117.29 2450.4 113.514 C 2473.58 101.672 2486.84 90.1474 2507.01 74.6096 z" fill="rgb(1,1,1)" transform="translate(0,0)"></path>
<path d="M 1408.61 92.6093 C 1416.68 96.7412 1411.15 104.653 1406.54 109.905 C 1389.76 129.048 1362.92 133.732 1338.86 136.717 C 1338.98 136.817 1336.63 135.03 1337.24 134.639 C 1343.19 131.305 1352.29 131.907 1359.44 129.542 C 1376.72 123.826 1397.25 117.071 1405.31 99.0565 C 1406.06 97.3843 1405.94 96.4267 1407.17 94.6508 L 1408.61 92.6093 z" fill="rgb(1,1,1)" transform="translate(0,0)"></path>
<path d="M 323.734 0 L 523.053 0 C 521.656 12.6923 522.961 26.8679 521.685 39.6736 C 517.846 78.1952 521.712 115.735 521.86 154.456 L 523.117 469.48 L 520.561 895.789 C 520.589 911.597 524.917 927.726 524.752 943.278 C 523.495 1061.83 527.434 1179.71 519.599 1298.17 C 519.123 1305.36 523.193 1312.76 523.077 1319.71 C 522.872 1332.02 521.406 1344.46 521.042 1356.78 C 521.923 1393.53 518.65 1429.92 519.683 1466.71 L 521.972 1554.77 C 522.181 1560.92 525.702 1565.12 525.326 1570.42 C 523.859 1591.14 523.576 1612.03 521.78 1632.69 C 517.655 1680.17 524.407 1724.93 521.735 1772.91 C 511.989 1773.22 501.945 1772.67 492.188 1772.31 C 435.332 1770.2 377.346 1774.08 320.532 1771.12 C 321.973 1759.99 325.567 1729.91 325.284 1718.75 C 324.275 1679.02 321.391 1639.17 321.431 1599.25 L 321.486 1228.53 C 321.488 1183.93 322.451 1138.53 324.009 1093.89 C 326.942 1009.89 321.501 925.106 321.253 841.02 C 321.124 797.412 325.288 754.666 320.866 710.871 C 319.69 699.224 321.359 684.01 321.419 671.997 L 321.629 533.062 C 321.68 518.308 319.134 502.075 319.13 487.2 C 319.122 458.062 323.757 429.662 324.854 400.762 C 325.328 388.25 322.205 373.788 322.026 361.225 L 320.457 157.368 C 320.259 139.237 323.14 122.161 323.829 104.319 C 325.187 69.1524 324.188 34.9544 323.734 0 z" fill="rgb(243,214,157)" transform="translate(0,0)"></path>
<path d="M 438.923 1121.96 C 440.373 1122.49 441.823 1123.02 443.273 1123.55 C 442.95 1126.36 436.249 1129.34 433.963 1130.87 C 403.897 1151.26 403.375 1183.06 425.608 1209.89 C 430.508 1215.8 436.995 1220.99 434.818 1228.21 C 416.36 1219.24 398.33 1185.31 401.538 1164.85 C 404.99 1142.84 422.312 1133.25 438.923 1121.96 z" fill="rgb(1,1,1)" transform="translate(0,0)"></path>
<path d="M 396.597 127.337 C 420.429 132.978 445.099 164.299 438.646 189.683 C 436.44 198.359 434.279 203.013 430.51 210.807 C 426.988 211.503 422.987 211.322 424.823 206.776 C 436.923 176.805 428.253 149.376 400.219 132.67 C 397.564 131.087 397.103 130.156 396.597 127.337 z" fill="rgb(1,1,1)" transform="translate(0,0)"></path>
<path d="M 423.695 1504.99 C 429.272 1506.52 429.681 1506.39 430.103 1512.64 C 430.714 1521.67 430.202 1530.56 428.837 1539.56 C 425.95 1558.57 426.796 1579.14 427.716 1598.55 C 426.868 1598.49 421.267 1598.57 421.058 1596.65 C 419.974 1579.44 417.28 1552.36 421.35 1535.62 C 424.681 1521.91 422.153 1515.82 423.695 1504.99 z" fill="rgb(1,1,1)" transform="translate(0,0)"></path>
<path d="M 437.919 590.964 C 443.175 592.592 443.743 592.353 444.778 597.753 C 446.86 608.619 445.201 619.325 445.644 630.347 C 439.943 632.053 438.78 631.693 438.451 625.457 C 437.867 614.355 436.409 602.025 437.919 590.964 z" fill="rgb(1,1,1)" transform="translate(0,0)"></path>
<path d="M 595.388 347.866 L 1324.31 349.251 L 1658.32 349.203 L 1852.93 348.387 C 1870.98 348.36 1890 347.442 1907.71 347.647 C 2091.62 349.575 2275.55 349.472 2459.45 347.34 L 2609.79 347.016 C 2635.75 347.164 2662.81 350.126 2688 347.172 L 2688 456.711 C 2623.84 454.836 2555.44 456.252 2491.13 456.361 L 2312.06 456.828 C 2286.68 456.773 2261 455.814 2235.86 455.906 C 2211.96 455.993 2187.64 458.182 2163.31 458.183 L 1153.54 455.99 L 822.062 455.651 C 772.365 455.558 722.639 456.79 672.973 455.549 C 610.356 453.984 590.739 402.347 595.388 347.866 z" fill="rgb(243,214,157)" transform="translate(0,0)"></path>
<path d="M 660.718 372.152 C 680.763 371.153 713.099 369.899 732.13 374.946 C 718.511 376.759 714.097 376.64 700.168 376.819 C 692.204 376.577 684.861 375.85 676.576 375.814 C 665.605 375.767 653.376 376.422 642.416 375.761 C 641.629 375.936 639.396 373.791 640.868 373.322 C 646.627 371.484 654.46 372.655 660.718 372.152 z" fill="rgb(1,1,1)" transform="translate(0,0)"></path>
<path d="M 28.1831 1335.03 C 57.1389 1321.3 99.0052 1310.62 131.008 1309.73 C 132.839 1316.02 133.84 1322.06 138.134 1326.73 C 141.456 1328.17 144.495 1329.59 148.267 1327.48 C 162.334 1319.61 165.464 1315.68 181.48 1310.83 C 179.053 1315.28 173.305 1323.56 173.853 1327.78 C 180.92 1330.99 219.955 1312.48 232.635 1309.65 C 230.981 1315.84 225.88 1331.4 225.932 1336.46 C 227.363 1337.81 228.459 1339.14 230.745 1338.54 C 260.574 1330.73 278.632 1319.79 310.709 1319 C 309.473 1355.94 312.045 1388.6 313.803 1425.42 C 314.348 1436.82 311.821 1452.58 311.668 1464.77 C 311.336 1491.15 310.988 1517.61 311.127 1544.01 C 262.17 1552.33 264.321 1554.56 213.796 1538.22 C 208.094 1536.37 197.762 1532.29 193.475 1536.41 C 192.91 1541.33 194.649 1544.96 196.212 1549.74 C 175.778 1546.42 139.594 1537.29 121.903 1537.08 C 84.2817 1536.63 37.5667 1551.27 0 1552.3 L 0 1323.24 C 7.33853 1326.42 21.3722 1333.33 28.1831 1335.03 z" fill="rgb(241,178,96)" transform="translate(0,0)"></path>
<path d="M 101.724 1486.17 C 104.302 1487.35 106.144 1488.15 105.47 1491.52 C 103.21 1502.81 112.769 1512.65 122.347 1516.94 C 125.996 1518.58 127.599 1518.74 125.503 1521.98 C 109.466 1519.31 86.6451 1504.91 100.439 1487.81 L 101.724 1486.17 z" fill="rgb(1,1,1)" transform="translate(0,0)"></path>
<path d="M 0 1557.3 C 44.8974 1556.37 91.9854 1537.37 137.276 1544.08 C 148.116 1545.69 198.587 1558.57 205.609 1555 C 208.153 1547.18 201.905 1546.21 205.912 1543.76 C 260.606 1554.66 252.32 1561.04 310.084 1549.66 C 309.95 1568.02 309.79 1586.37 309.7 1604.73 C 309.425 1660.94 314.997 1715.48 309.587 1771.85 C 206.393 1772.96 103.191 1772.85 0 1771.52 L 0 1557.3 z" fill="rgb(231,211,194)" transform="translate(0,0)"></path>
<path d="M 125.365 1104.92 C 126.783 1111.91 127.427 1118.27 133.318 1122.51 C 144.268 1124.15 158.125 1114.24 168.364 1112.21 C 194.968 1106.93 228.468 1098.35 255.165 1096.66 C 252.317 1101.33 243.478 1114.25 244.328 1118.82 C 252.204 1121.02 297.105 1112.95 313.451 1112.93 C 311.028 1151.06 310.353 1189.28 311.429 1227.47 C 312.275 1264.79 315.306 1273.45 312.388 1312.14 C 273.753 1316.75 271.519 1317.93 235.216 1331.44 C 237.866 1321.53 240.913 1311.74 244.349 1302.08 C 212.887 1307.1 208.754 1313.53 182.613 1321.08 C 185.993 1316.25 189.272 1312.68 190.207 1307 L 189.039 1304.37 C 182.224 1301.8 170.557 1307.92 163.864 1310.96 C 157.243 1313.98 150.656 1317.07 144.102 1320.24 L 138.91 1304.76 C 111.668 1302.89 50.064 1316.87 25.5947 1329.02 C 17.2931 1324.85 8.95486 1320.76 0 1318.12 L 0 1123.91 C 2.41192 1126.61 6.67299 1132.05 10.0711 1131.82 C 23.6855 1130.91 33.4202 1117.32 49.4905 1109.22 C 49.2637 1116.29 48.5395 1121.42 50.6843 1128.14 L 52.5855 1130.04 C 82.9801 1119.3 90.5722 1112.59 125.365 1104.92 z" fill="rgb(241,178,96)" transform="translate(0,0)"></path>
<path d="M 201.855 1152.57 C 203.313 1152.81 204.257 1152.92 205.088 1154.18 C 204.434 1156.7 202.518 1156.01 200.259 1156.65 C 187.869 1160.16 183.91 1164.57 177.01 1173.85 C 174.151 1173.02 170.834 1171.66 173.45 1167.91 C 180.188 1158.25 190.852 1154.81 201.855 1152.57 z" fill="rgb(1,1,1)" transform="translate(0,0)"></path>
<path d="M 0 909.913 C 27.1937 904.204 55.5705 897.848 83.0691 894.58 C 74.5587 902.181 50.496 923.006 44.0562 930.524 C 71.0753 924.893 102.798 903.745 137.165 895.156 C 135.03 900.933 125.295 921.567 125.348 923.771 C 130.958 926.187 136.422 922.903 141.696 920.362 C 175.582 904.034 209.289 898.933 246.377 896.7 C 244.557 902.004 238.983 916.563 239.032 921.151 C 251.784 927.167 288.987 899.035 303.161 904.816 C 307.129 912.553 299.3 913.831 308.958 919.664 C 314.701 942.841 314.431 1082.45 312.703 1107.69 L 257.426 1112.45 C 261.923 1103.99 263.54 1100.07 266.798 1091.03 C 235.352 1092.2 167.397 1106.05 137.545 1116.64 C 135.939 1110.24 135.383 1103.89 130.745 1099.68 C 114.981 1096.68 73.9 1114.23 58.2004 1121.81 C 58.5119 1117.04 59.909 1106.98 57.9076 1103.34 C 45.071 1098.32 23.9142 1119.34 13.2944 1125.81 C 8.51261 1120.18 6.31138 1117.63 0 1113.65 L 0 909.913 z" fill="rgb(241,178,96)" transform="translate(0,0)"></path>
<path d="M 0 59.4934 C 37.0446 59.5773 74.366 58.0385 111.342 58.6068 C 177.303 59.6206 244.442 63.1431 310.371 59.2903 C 310.045 71.3671 311.107 83.1447 312.012 95.1777 C 312.631 103.405 308.939 118.664 310.228 125.33 C 315.734 153.795 307.694 181.772 309.805 208.891 C 261.499 210.448 212.565 208.245 164.283 210.605 C 142.168 211.686 121.128 210.482 99.1018 209.344 C 65.9908 209.535 33.0771 208.616 0 208.303 L 0 59.4934 z" fill="rgb(242,180,157)" transform="translate(0,0)"></path>
<path d="M 0 763.06 C 73.3983 761.813 146.519 764.198 219.906 762.68 C 249.475 762.068 282.473 765.901 311.371 762.506 C 311.156 770.646 310.755 787.475 309.026 795.157 C 303.191 821.093 315.789 857.376 308.712 881.59 C 305.608 884.376 301.196 888.044 298.788 891.222 C 257.124 890.984 215.573 890.859 173.91 891.858 C 161.869 892.146 151.105 889.129 139.889 888.984 C 85.5307 888.282 52.2202 891.909 0 904.277 L 0 763.06 z" fill="rgb(242,180,157)" transform="translate(0,0)"></path>
<path d="M 77.1146 822.034 C 105.765 820.473 136.791 821.99 165.529 822.326 C 177.548 822.466 204.166 820.159 213.837 822.744 L 214.682 824.706 L 212.302 826.389 C 198.796 827.021 77.2689 825.887 74.7215 824.645 L 77.1146 822.034 z" fill="rgb(1,1,1)" transform="translate(0,0)"></path>
<path d="M 0 347.916 L 197.022 347.889 C 221.048 348.059 245.026 348.294 269.063 348.222 C 281.712 348.184 295.122 349.648 307.73 349.366 C 314.345 387.873 309.565 416.819 309.609 454.311 L 134.232 456.06 C 94.7041 456.795 38.982 458.635 0 456.15 L 0 347.916 z" fill="rgb(243,214,157)" transform="translate(0,0)"></path>
<path d="M 20.7381 374.752 C 46.6436 372.725 107.143 373.714 136.32 375.719 C 137.02 375.768 137.796 378.319 137.96 378.763 C 117.754 381.328 46.7133 376.792 21.8712 377.373 C 21.4744 377.382 20.5539 374.215 20.7381 374.752 z" fill="rgb(1,1,1)" transform="translate(0,0)"></path>
<path d="M 2458.58 878.719 L 2688 827.89 L 2688 980.35 C 2672.91 983.437 2656.61 984.735 2641.45 987.458 C 2579.99 998.49 2518.25 1003.54 2457 1014.55 C 2456.7 1005.49 2459.14 992.595 2458.26 984.685 C 2454.3 949.141 2459.14 913.698 2458.58 878.719 z" fill="rgb(242,180,157)" transform="translate(0,0)"></path>
<path d="M 2678.88 919.055 C 2681.69 919.917 2686.33 920.925 2684.72 925.37 C 2679.49 939.776 2665.22 947.758 2651.64 952.884 C 2637.85 954.197 2655.01 946.173 2657.45 944.894 C 2669.19 938.745 2673.89 931.017 2678.88 919.055 z" fill="rgb(1,1,1)" transform="translate(0,0)"></path>
<path d="M 2455.6 748.14 C 2487.8 739.604 2520.28 727.291 2552.32 719.248 C 2599.52 707.398 2641.94 696.642 2688 680.614 L 2688 822.327 C 2614.81 841.012 2529.66 851.812 2457.25 874.804 C 2459.52 830.275 2456.69 792.182 2455.6 748.14 z" fill="rgb(242,180,157)" transform="translate(0,0)"></path>
<path d="M 2608.77 733.727 C 2609.6 733.565 2614.55 733.042 2612.61 735.342 C 2608.65 740.042 2598.24 742.426 2592.15 744.055 C 2579.79 747.365 2566.84 751.03 2554.47 754.361 C 2549.56 755.173 2549.15 752.196 2553.4 750.84 C 2567.45 746.356 2581.34 741.753 2595.56 737.757 C 2599.99 736.496 2604.39 735.152 2608.77 733.727 z" fill="rgb(1,1,1)" transform="translate(0,0)"></path>
<path d="M 2455.81 1019.29 C 2534.08 1011.51 2610.57 997.166 2688 986.602 L 2688 1126.61 C 2680.24 1126.18 2662.44 1127.84 2653.86 1128.28 C 2627.02 1129.67 2599.93 1131.83 2573.15 1134.14 C 2537.54 1137.22 2490.65 1137.11 2456.08 1143.66 C 2456.51 1116.83 2454.4 1090.86 2456.37 1064.03 C 2457.35 1050.63 2457.41 1032.55 2455.81 1019.29 z" fill="rgb(242,180,157)" transform="translate(0,0)"></path>
<path d="M 2456.42 1148.79 C 2518.98 1141.75 2578.19 1141.25 2640.67 1135.27 C 2656.65 1133.74 2671.78 1134.22 2688 1132.02 L 2688 1252.45 C 2613.27 1251.56 2533.32 1255.63 2457.34 1255.79 C 2457.7 1243.8 2453.42 1225.91 2453.97 1212.53 C 2454.88 1190.41 2456.82 1171.07 2456.42 1148.79 z" fill="rgb(242,180,157)" transform="translate(0,0)"></path>
<path d="M 2495.24 1168.78 C 2500 1170.92 2500.94 1174 2499.1 1178.62 C 2493.87 1191.75 2514.51 1205.31 2512.76 1211.78 C 2494.83 1204.93 2484.56 1186.09 2495.24 1168.78 z" fill="rgb(1,1,1)" transform="translate(0,0)"></path>
<path d="M 2687.18 565.668 L 2688 565.902 L 2688 646.221 C 2679.24 647.943 2660.93 654.805 2651.29 657.626 L 2540.05 690.482 L 2426.74 722.459 C 2404.16 728.764 2383.88 735.025 2361.61 741.83 C 2356.82 716.104 2362.1 703.627 2355.36 677.941 C 2372.07 674.483 2386.36 667.283 2402.23 662.056 C 2423.8 654.946 2445.34 647.01 2466.82 639.881 L 2611.1 592.239 C 2633.14 585.162 2655.6 578.808 2677.62 571.644 C 2683.83 569.625 2684.06 569.974 2687.18 565.668 z" fill="rgb(243,214,157)" transform="translate(0,0)"></path>
<path d="M 2610.17 1259.68 C 2633.8 1259.1 2665.73 1260.86 2688 1258.63 L 2688 1559.75 C 2662.14 1558.27 2636.31 1556.32 2610.53 1553.91 C 2609.1 1541.62 2609.6 1523.74 2610.11 1511.2 C 2613.51 1485.69 2608.26 1456.55 2610.02 1431.95 C 2613.21 1387.49 2609.98 1344.35 2611.35 1299.88 C 2611.78 1286.17 2608.88 1274.06 2610.17 1259.68 z" fill="rgb(242,180,157)" transform="translate(0,0)"></path>
<path d="M 0 214.674 C 40.9955 216.129 82.3625 216.47 123.4 217.046 C 144.93 217.348 169.7 214.87 190.835 216.37 C 176.857 241.059 167.305 270.038 157.408 296.839 C 148.852 320.01 152.334 320.364 138.577 342.719 L 0 342.019 L 0 214.674 z" fill="rgb(242,180,157)" transform="translate(0,0)"></path>
<path d="M 0 673.337 C 39.8027 673.44 80.2631 671.428 119.761 672.083 C 161.441 672.774 201.986 675.332 243.963 672.694 C 265.342 671.351 287.536 673.433 309.492 671.56 L 309.604 733.987 C 234.584 736.16 159.285 736.036 84.3087 733.732 C 56.8985 732.89 27.092 737.706 0 734.074 L 0 673.337 z" fill="rgb(243,214,157)" transform="translate(0,0)"></path>
<path d="M 2688 480.916 L 2688 565.902 L 2687.18 565.668 L 2685.89 562.604 C 2676.19 564.376 2663.13 569.317 2653.42 572.204 C 2599.59 588.205 2547.42 609.155 2493.25 624.144 C 2480.82 627.583 2467.57 631.452 2455.54 636.054 C 2454.16 599.415 2450.46 583.437 2471.5 552.464 C 2544.92 530.475 2615.75 502.762 2688 480.916 z" fill="rgb(242,180,157)" transform="translate(0,0)"></path>
<path d="M 0 0 L 313.095 0 C 312.387 18.3199 311.798 36.6442 311.325 54.9717 L 0 54.9074 L 0 0 z" fill="rgb(242,180,157)" transform="translate(0,0)"></path>
<path d="M 0 484.122 C 37.4861 483.199 74.9811 482.685 112.478 482.58 C 109.166 493.27 105.877 500.363 101.607 510.745 C 98.724 517.754 91.2156 533.647 90.3734 540.088 C 88.8973 551.376 86.9939 556.637 83.3733 566.844 C 66.6159 566.979 59.153 565.25 43.3129 564.186 C 31.1244 563.368 13.177 565.851 0 566.233 L 0 484.122 z" fill="rgb(242,180,157)" transform="translate(0,0)"></path>
<path d="M 0 570.741 C 30.4272 571.354 51.5807 571.233 82.8444 572.926 C 80.0279 580.604 78.4732 587.04 74.7909 594.555 C 67.7267 608.972 61.9842 615.911 57.5217 631.955 C 54.6805 642.171 48.4446 656.603 44.7698 667.06 C 30.2541 666.647 14.6849 666.985 0 666.862 L 0 570.741 z" fill="rgb(240,191,151)" transform="translate(0,0)"></path>
<path d="M 2688 259.265 L 2688 342.595 C 2685.47 338.112 2672.59 340.291 2667.66 340.393 C 2652.49 340.705 2637.36 340.596 2622.2 340.955 C 2631.26 327.851 2641.25 319.869 2650.29 307.475 C 2662.31 290.98 2674.01 274.187 2688 259.265 z" fill="rgb(242,180,157)" transform="translate(0,0)"></path>
<path d="M 1100.25 1542.19 C 1113.36 1544.11 1129.75 1546.14 1142.52 1548.66 C 1141.2 1548.8 1131.29 1549.38 1131.07 1549.49 C 1131.49 1549.83 1131.9 1550.17 1132.32 1550.5 L 1132.29 1550.79 L 1132.25 1550.32 L 1130.62 1551.36 C 1122.02 1551.58 1122.58 1549.4 1116.84 1553.95 C 1115.52 1547.16 1107.25 1546.68 1101.02 1544.63 L 1100.25 1542.19 z" fill="rgb(247,230,204)" transform="translate(0,0)"></path>
<path d="M 1101.02 1544.63 C 1100.42 1544.47 1097.38 1544.06 1097.43 1542.94 C 1098.11 1542.29 1099.48 1542.32 1100.25 1542.19 L 1101.02 1544.63 z" fill="rgb(146,123,95)" transform="translate(0,0)"></path>
<path d="M 851.141 1315.79 C 847.75 1321.18 839.947 1332.1 840.171 1337.86 C 843.128 1339.16 844.235 1339.45 847.584 1338.39 C 886.815 1325.94 925.393 1321.2 964.739 1309.26 C 960.133 1315.43 946.009 1330.78 951.262 1338.2 C 959.958 1340.02 975.998 1331.19 984.632 1327.17 C 986.454 1328.87 987.296 1329.56 989.28 1331.11 C 988.255 1333 987.712 1334.42 986.879 1336.39 L 988.917 1338.16 C 998.58 1339.57 1028.73 1327.65 1042.56 1324.91 L 1044.62 1324.51 C 1040.22 1329.49 1030.33 1339.29 1028.39 1344.53 L 1029.86 1346.31 C 1036.09 1346.97 1085.94 1331.88 1100.75 1330.87 C 1103.7 1330.13 1132.07 1323.36 1116.99 1332.88 C 1112.65 1336.45 1106.05 1340.05 1107.78 1345.92 C 1114.27 1349.81 1145.34 1345.43 1156.4 1345.25 C 1149.82 1353.52 1141.53 1361.43 1140.77 1371.54 C 1143.2 1379.95 1159.82 1386.95 1169.7 1395.28 L 1171.48 1396.8 C 1164.12 1395.12 1157.25 1393.88 1149.82 1392.55 C 1140.42 1399.12 1128.96 1408.74 1120.07 1416.12 C 1136.48 1428.81 1144.14 1428.69 1161.05 1446.34 C 1152.56 1443.81 1146.82 1443.09 1138.06 1441.81 C 1144.91 1450.09 1152.26 1459.75 1157.24 1469.25 C 1150.71 1466.88 1140.51 1462.34 1134.07 1463.93 C 1131 1470.71 1143.49 1505.4 1146.51 1513.46 C 1140.49 1510.84 1128.76 1504.52 1122.93 1508.04 C 1123.42 1514.61 1146.18 1536.34 1152.68 1543.88 C 1139.04 1542.9 1082.61 1533.16 1077.5 1533.79 L 1076.67 1535.62 L 1080.47 1541.81 C 1070.05 1541.29 1040.6 1530.59 1034.26 1534.56 C 1036.44 1538.39 1045.92 1546.52 1049.64 1549.95 C 1008.03 1542.37 999.119 1547.48 957.456 1550.13 C 937.14 1551.41 916.775 1551.72 896.431 1551.05 C 901.724 1547.24 913.251 1539.96 914.94 1534.25 L 913.096 1532.6 C 902.68 1531.47 862.63 1539.78 848.785 1541.15 C 806.656 1545.3 764.144 1551.31 722.228 1557.2 C 710.605 1550.32 655.151 1528.85 644.054 1535.16 C 640.949 1540.68 643.363 1539.21 642.179 1546.41 C 633.623 1547.25 607.823 1544.99 596.639 1544.64 C 594.874 1525.1 596.321 1504.52 595.876 1484.97 C 594.771 1436.47 598.231 1381.3 595.267 1333.47 C 607.819 1329.13 619.741 1324.95 632.54 1321.29 C 632.967 1328.6 633.307 1340.62 636.13 1347.06 L 639.114 1347.99 C 650.131 1345.76 672.873 1329.41 682.581 1322.27 C 682.276 1327.3 681.163 1335.21 683.972 1339.08 C 692.777 1339.86 730.288 1321.56 746.364 1316.88 C 744.963 1321.1 741.383 1331.28 742.581 1334.98 C 758.061 1337.59 825.321 1317.88 851.141 1315.79 z" fill="rgb(241,178,96)" transform="translate(0,0)"></path>
<path d="M 1100.75 1330.87 C 1103.7 1330.13 1132.07 1323.36 1116.99 1332.88 C 1111.96 1330.79 1106.91 1331.47 1100.75 1330.87 z" fill="rgb(240,191,151)" transform="translate(0,0)"></path>
<path d="M 593.487 763.532 C 623.571 765.868 670.32 764.46 702.765 764.776 C 806.628 765.786 912.998 762.063 1016.84 762.29 L 1446.49 761.619 L 1687.72 762.581 C 1731.43 762.66 1772.64 763.749 1816.96 762.61 C 1842.35 780.775 1852.31 783.883 1878.51 798.22 L 1981.6 854.57 C 1994.86 861.89 2029.18 884.838 2042.07 889.403 L 2042.35 893.739 C 1971.83 897.755 1897.45 892.201 1826.76 893.051 C 1731.79 894.193 1635.97 896.539 1541.08 893.638 C 1520.63 893.013 1495.51 895.662 1476.97 893.85 C 1480.32 840.138 1409.37 813.477 1365.82 807.28 C 1332.69 802.567 1284.25 807.009 1249.07 807.22 L 980.075 809.846 C 936.957 810.226 890.05 810.691 847.079 809.922 C 818.305 809.235 789.521 809.023 760.74 809.285 C 744.875 809.34 711.091 808.819 696.63 812.165 C 666.907 819.042 601.818 840.76 598.031 876.898 C 596.813 877.926 596.024 878.353 594.643 879.226 C 594.854 855.008 594.143 835.504 593.315 811.368 C 592.736 794.479 594.832 782.337 593.487 763.532 z" fill="rgb(242,180,157)" transform="translate(0,0)"></path>
<path d="M 1652.46 798.551 C 1662.99 797.431 1689.96 797.544 1701.44 798.435 C 1702.05 798.482 1703.18 801.676 1703.11 801.526 C 1691.54 802.512 1667.1 801.951 1654.17 801.431 C 1653.58 801.407 1652.64 798.963 1652.46 798.551 z" fill="rgb(1,1,1)" transform="translate(0,0)"></path>
<path d="M 1449.31 672.536 C 1456.82 671.555 1466.1 671.671 1473.76 671.656 C 1525.61 671.56 1576.9 674.862 1628.82 674.242 C 1729.54 672.95 1830.26 672.785 1930.97 673.749 C 1952.74 673.918 1974.91 675.334 1996.58 675.363 L 2317.55 674.227 C 2313.86 700.201 2314.99 706.569 2316.49 733.234 L 1463.24 734.881 C 1432.7 735.124 1399.43 733.004 1368.36 732.868 L 1046.28 733.276 L 798.163 734.868 C 778.945 734.992 759.651 736.13 740.421 736.194 C 692.482 736.237 644.546 735.302 596.645 733.388 C 596.743 715.025 597.854 692.828 597.013 675.04 C 645.43 672.427 705.297 676.157 755.823 675.693 L 1237.03 674.607 L 1385.26 672.85 C 1407.02 672.626 1427.51 674.815 1449.31 672.536 z" fill="rgb(243,214,157)" transform="translate(0,0)"></path>
<path d="M 2290.81 690.677 C 2302.44 691.821 2298.15 696.342 2297.27 708.436 C 2288.18 704.123 2289.58 700.308 2290.81 690.677 z" fill="rgb(1,1,1)" transform="translate(0,0)"></path>
<path d="M 2333.94 570.12 C 2357.74 569.475 2385.87 569.306 2409.6 570.89 C 2408.77 598.185 2410.29 624.772 2409.45 651.892 C 2390.93 660.003 2365.55 666.169 2348.09 674.705 C 2344.01 682.705 2348.67 693.857 2348.28 702.173 C 2347.4 720.492 2347.23 731.405 2351.97 749.328 C 2366.32 750.472 2390.46 750.137 2405.76 750.589 C 2406.29 783.126 2402.13 819.737 2401.27 852.343 C 2400.06 871.796 2406.69 898.217 2404.49 916.878 C 2401.46 942.487 2404.45 967.828 2403.01 992.546 C 2400.82 1029.98 2402.36 1066.7 2401.48 1103.81 C 2400.06 1163.83 2401.45 1222.96 2402.54 1282.97 C 2402.68 1293.18 2405.19 1311.34 2404.29 1320.66 C 2400.02 1364.48 2402.16 1406.53 2404.38 1450.37 C 2405.11 1465.41 2401.3 1482.71 2401.46 1497.82 C 2401.64 1514.08 2402.92 1527.18 2400.47 1543.54 C 2378.31 1543.24 2353.59 1544.43 2331.02 1544.67 L 2330.05 1231.17 C 2330.05 1218.91 2332.97 1202.55 2332.27 1191.42 C 2329.92 1154.26 2334.69 1113.92 2329.02 1077.63 C 2328.81 1073.32 2328.3 1070.69 2324.22 1069.18 C 2322.66 1070.43 2320.73 1071.54 2320.65 1074.14 C 2319.95 1095.42 2318.64 1120.1 2319.18 1141.08 C 2318.89 1151.98 2324.18 1169.33 2323.16 1179.63 C 2321.47 1196.64 2321.26 1213.61 2320.42 1230.44 C 2318.91 1260.36 2318.16 1288.86 2319.49 1318.77 C 2320.58 1325.19 2318 1345.67 2319.62 1350.9 C 2327.19 1375.41 2323.57 1389.26 2322.26 1413.71 C 2321.15 1437.33 2320.5 1460.96 2320.32 1484.59 C 2320.22 1493.43 2320.68 1538.71 2319.79 1542.86 C 2313.34 1544.21 2267.71 1528.23 2261.37 1525 C 2261.22 1514.99 2258.65 1505.15 2258.62 1494.77 C 2258.38 1476.74 2260.42 1458.18 2259.9 1440.2 C 2259.12 1412.98 2257.74 1386.3 2262.13 1359.31 C 2262.88 1354.71 2263.96 1346.04 2263.74 1341.36 C 2261.43 1311.92 2263.18 1282.88 2263 1253.51 C 2262.86 1230.27 2261.24 1208.21 2262.22 1184.55 C 2262.8 1170.59 2260.53 1151.04 2260.18 1136.11 C 2259.18 1093.96 2264.62 1050.7 2259.53 1008.91 C 2278.49 1010.4 2300.42 1009.57 2320.01 1010.19 C 2319.91 1021.02 2318.31 1045.1 2325.43 1052.55 C 2332.69 1049.4 2329.82 995.022 2330.1 984.007 C 2331.84 914.981 2331.49 845.919 2329.04 776.915 C 2328.57 761.909 2322.33 703.715 2325.91 692.341 C 2332.61 671.026 2322.91 578.224 2328.33 570.844 L 2333.94 570.12 z" fill="rgb(247,230,204)" transform="translate(0,0)"></path>
<path d="M 1887.35 1028.29 C 1915.52 1025.99 1958.08 1028.16 1987.35 1028.2 L 2142.86 1027.93 C 2178.76 1028.02 2214.02 1029.13 2250 1028.01 C 2250.76 1070.79 2248.85 1107.56 2248.75 1149.1 C 2141.63 1146.92 2033.28 1149.05 1926.13 1147.41 C 1898.15 1146.98 1870.68 1148.8 1842.42 1148.04 C 1822.95 1147.31 1798.93 1148.37 1779 1148.43 L 1675.53 1147.94 L 1554.98 1148.27 C 1529.84 1148.22 1502.44 1147.24 1477.53 1148.34 C 1480.62 1116.4 1478.27 1062.6 1479.23 1028.5 C 1551.74 1030.83 1632.66 1028.87 1705.73 1028.56 C 1762.53 1028.33 1832.37 1031 1887.35 1028.29 z" fill="rgb(242,180,157)" transform="translate(0,0)"></path>
<path d="M 1770.58 1084.73 C 1786.82 1084 1805.89 1084.78 1822.47 1084.74 C 1841.23 1084.7 1865.37 1083.06 1883.16 1086.52 C 1879 1089.66 1852.9 1088.58 1846.18 1088.46 C 1827.47 1090.61 1750.12 1089.98 1733.02 1086.9 L 1732.55 1086.04 C 1745.2 1084.94 1757.88 1084.93 1770.58 1084.73 z" fill="rgb(1,1,1)" transform="translate(0,0)"></path>
<path d="M 1476.81 898.662 C 1509.12 898.647 1543.37 901.728 1574.96 900.816 C 1640.76 898.914 1705.49 900.51 1771.12 901.017 C 1867.58 902.229 1964.05 901.59 2060.49 899.098 C 2083.74 910.263 2108.67 929.619 2132.38 941.908 C 2172.32 962.605 2210.89 983.561 2249.45 1006.76 C 2249.56 1012.12 2250.87 1019.16 2248.09 1022.23 L 1720.38 1022.5 L 1563.84 1022.78 C 1532.4 1022.7 1510.42 1023.74 1477.87 1022.37 C 1475.48 984.751 1482.45 929.148 1476.81 898.662 z" fill="rgb(242,180,157)" transform="translate(0,0)"></path>
<path d="M 1641.9 948.013 C 1660.97 947.681 1700.08 950.374 1721.18 948.944 C 1722.3 948.869 1723.03 951.419 1723.36 952.37 C 1709.97 954.033 1659.95 953.082 1643.43 951.293 C 1642.66 951.211 1642.07 948.613 1641.9 948.013 z" fill="rgb(1,1,1)" transform="translate(0,0)"></path>
<path d="M 1381.06 1255.21 C 1423.19 1244.83 1452.22 1238.14 1478.06 1197.74 C 1483.16 1189.76 1473.93 1163.62 1479.72 1153.87 C 1488.4 1151.97 1537.39 1153.45 1550.3 1153.54 L 1701.78 1154.11 C 1743.35 1154.64 1786.48 1153.35 1828.15 1153.26 L 2075.29 1153.3 C 2119.53 1153.09 2165.14 1155.39 2209.76 1153.8 C 2222.04 1153.37 2235.74 1154.46 2247.91 1153.88 C 2251.2 1171.87 2253.05 1242.03 2248.59 1260.13 C 2223.91 1258.89 2199.54 1259.56 2174.88 1259.73 C 2173.51 1259.74 2171.46 1258.26 2170.41 1257.54 C 2105.39 1264.82 2023.49 1258.64 1956.95 1258.59 L 1479.89 1257.5 C 1464.39 1260.34 1377.19 1259.18 1359.24 1257.52 C 1366.49 1256.54 1373.75 1255.62 1381.06 1255.21 z" fill="rgb(242,180,157)" transform="translate(0,0)"></path>
<path d="M 1359.24 1257.52 C 1366.49 1256.54 1373.75 1255.62 1381.06 1255.21 C 1381.08 1255.33 1381.26 1257 1381.61 1257.04 C 1404.48 1259.57 1459.77 1256.62 1479.89 1257.5 C 1464.39 1260.34 1377.19 1259.18 1359.24 1257.52 z" fill="rgb(129,103,95)" transform="translate(0,0)"></path>
<path d="M 1971.57 1199.6 C 1987.13 1198.27 2053.71 1195.66 2064.51 1201.14 C 2061.06 1205.06 1923.32 1203.95 1910.67 1203.64 C 1899.57 1203.5 1900.7 1199.05 1913.95 1199.57 C 1932.73 1200.32 1952.7 1199.01 1971.57 1199.6 z" fill="rgb(1,1,1)" transform="translate(0,0)"></path>
<path d="M 1910.67 1203.64 C 1899.57 1203.5 1900.7 1199.05 1913.95 1199.57 C 1932.73 1200.32 1952.7 1199.01 1971.57 1199.6 C 1958.38 1202.28 1925.64 1200.55 1909.11 1201.52 C 1909.24 1202.12 1910.3 1203.17 1910.67 1203.64 z" fill="rgb(89,69,61)" transform="translate(0,0)"></path>
<path d="M 1750.97 215.907 C 1774.59 215.09 1799.98 215.341 1823.73 215.148 C 1807.26 245.385 1788.44 270.932 1769.42 299.53 C 1759.6 314.298 1749.19 325.731 1741.4 342.28 C 1703.72 339.905 1667.19 343.873 1630.12 343.633 C 1557.32 343.162 1484.26 342.08 1411.45 341.417 C 1376.61 341.1 1341.89 343.808 1306.69 343.114 C 1268.82 342.368 1228.7 339.743 1191.16 342.19 C 1166.92 342.863 1140.19 342.327 1115.75 342.228 C 1126.76 325.618 1138.94 309.689 1150.52 293.455 C 1167.23 270.015 1181.13 237.98 1200.78 217.015 C 1321.67 218.018 1442.56 217.822 1563.43 216.426 C 1626.5 216.273 1687.23 218.019 1750.97 215.907 z" fill="rgb(242,180,157)" transform="translate(0,0)"></path>
<path d="M 1457.43 267.162 C 1472.5 266.385 1592.08 265.64 1596.2 268.818 C 1589.24 272.416 1505.1 271.57 1492.64 270.802 C 1466.68 270.431 1374.54 275.592 1356.07 269.977 C 1362.79 267.173 1442.32 267.584 1457.43 267.162 z" fill="rgb(1,1,1)" transform="translate(0,0)"></path>
<path d="M 1073.33 841.919 C 1131.13 840.707 1187.53 841.597 1245.25 842.915 C 1274.6 843.564 1304.96 840.814 1334.07 843.965 C 1352.07 846.05 1398.13 862.205 1403.07 882.485 C 1409.91 910.612 1406.24 960.676 1405.36 990.899 C 1404.92 1006.07 1401.48 1015.3 1404.09 1030.7 C 1387.45 1030.27 1372.78 1029.88 1356.14 1030.59 C 1323.48 1031.78 1291.5 1030.64 1259.05 1030.66 L 1033.91 1031.02 C 1036.12 1009.89 1033.73 1001.91 1034.02 982.648 L 1035.81 842.676 C 1048.27 842.85 1060.86 842.314 1073.33 841.919 z" fill="rgb(252,251,252)" transform="translate(0,0)"></path>
<path d="M 1042.44 1037.46 C 1082.37 1038.45 1118.36 1037.28 1157.94 1037.12 C 1194.15 1036.97 1230 1038.91 1266.77 1038.4 L 1352.96 1037.5 C 1371.02 1037.39 1385.38 1036.23 1403.59 1038.39 C 1409.04 1051.05 1401.09 1173.29 1401.85 1195.79 L 1401.94 1198.11 L 1385.23 1212.8 C 1373.92 1218.89 1367.35 1221.76 1354.26 1223.08 C 1311.68 1227.38 1267.28 1225.9 1224.7 1225.45 L 1035.82 1224.71 C 1036.01 1205.92 1033.74 1192.17 1033.62 1173.9 C 1031.06 1155.29 1038.8 1129.37 1037.75 1112.13 C 1036.35 1089.02 1037.04 1062.49 1035.47 1039.89 C 1037.65 1037.2 1037.78 1038.06 1042.44 1037.46 z" fill="rgb(252,251,252)" transform="translate(0,0)"></path>
<path d="M 598.554 1108.97 C 619.562 1108.27 639.185 1111.67 656.119 1110.68 C 680.478 1093.87 697.904 1119.95 713.08 1116.82 C 716.318 1113.53 716.822 1105.24 719.605 1098.96 C 729.426 1092.05 768.026 1130 780.802 1119.78 C 786.219 1114.07 785.085 1119.08 788.772 1115.98 C 797.641 1120.62 808.403 1126.69 817.761 1129.53 C 819.756 1125.33 821.343 1121.53 824.031 1117.72 C 834.134 1112.15 847.751 1105.65 856.961 1099.86 C 857.728 1106.08 858 1116.82 861.216 1121.17 C 868.073 1123.76 876.907 1118.74 884.185 1115.79 C 890.569 1113.12 897.026 1110.82 903.482 1108.33 C 900.727 1114.36 897.555 1122.17 894.654 1127.73 L 893.958 1132.73 C 899.89 1140.24 920.609 1138.47 931.583 1142.26 C 931.565 1142.75 931.708 1143.75 931.25 1144.22 C 931.003 1144.47 930.556 1144.65 930.296 1144.79 C 924.731 1146.78 926.686 1145.14 923.324 1148.92 C 926.538 1155.18 954.433 1165.39 957.114 1175.37 C 950.108 1178.73 931.483 1167.64 926.194 1174.45 C 927.356 1187.13 944.784 1220.56 950.986 1235.41 C 933.672 1232.59 916.401 1229.51 899.178 1226.18 C 908.353 1233.77 945.091 1255.63 944.817 1268.99 C 937.703 1271.04 926.759 1262.89 918.851 1267.46 C 918.902 1270.88 927.712 1284.18 930.474 1295.86 C 922.938 1293.87 914.417 1291.06 906.788 1290.99 L 905.338 1292.58 C 906.902 1298.32 913 1306.16 916.538 1312.56 C 900.363 1318.22 870.147 1326.58 853.429 1330.71 C 855.559 1325.89 860.761 1315.84 859.747 1311.34 C 852.19 1307.67 766.064 1327.78 750.944 1330.58 C 759.475 1303.54 751.239 1309.44 729.696 1316.54 C 716.255 1320.96 702.507 1327.93 689.773 1334.17 C 690.962 1329.19 693.888 1319.48 692.178 1314.94 C 682.389 1312.73 653.721 1334.42 642.64 1340.95 C 641.919 1331.14 642.901 1322.68 636.015 1316.24 C 628.893 1313.64 606.029 1324.61 596.033 1328.19 L 598.554 1108.97 z" fill="rgb(241,178,96)" transform="translate(0,0)"></path>
<path d="M 884.185 1115.79 C 890.569 1113.12 897.026 1110.82 903.482 1108.33 C 900.727 1114.36 897.555 1122.17 894.654 1127.73 C 888.597 1119.27 894.485 1123.28 885.211 1116.54 L 884.185 1115.79 z" fill="rgb(243,214,157)" transform="translate(0,0)"></path>
<path d="M 732.241 843.184 C 762.628 841.973 795.758 842.705 826.379 842.573 L 1023.83 842.632 C 1024.04 854.448 1021.02 866.155 1020.95 878.075 C 1020.65 928.879 1023.39 979.818 1021.34 1030.62 C 982.467 1028.32 924.393 1030.21 884.953 1031.62 C 823.692 1032.87 755.4 1031.91 693.937 1031.78 C 686.893 1006.95 684.629 1003.91 670.408 981.977 C 679.019 984.162 701.889 992.839 708.026 990.101 L 708.655 987.54 C 702.804 972.166 681.445 958.157 668.341 948.297 C 674.462 947.805 685.645 948.378 688.83 942.912 C 685.417 937.054 658.575 928.69 649.853 925.122 C 649.485 914.588 649.627 897.075 647.418 887.4 C 649.327 882.481 652.911 872.423 656.268 868.865 C 676.598 847.318 705.17 845.239 732.241 843.184 z" fill="rgb(252,251,252)" transform="translate(0,0)"></path>
<path d="M 2037.02 216.668 C 2075.4 218.55 2115.14 216.787 2153.61 216.969 L 2393.96 217.35 C 2432.81 217.31 2470.24 216.1 2509.31 216.756 C 2490.88 235.689 2471.8 266.309 2456.7 288.385 C 2450.99 296.723 2442.91 302.858 2438.66 309.031 C 2431.88 318.877 2425.56 330.913 2418.65 341.33 C 2374.83 342.934 2325.88 341.343 2281.32 341.404 L 1944.5 341.369 C 1965.29 315.506 1985.04 287.451 2002.34 259.222 C 2010.22 246.362 2025.52 226.357 2037.02 216.668 z" fill="rgb(242,180,157)" transform="translate(0,0)"></path>
<path d="M 2114.06 260.492 C 2133.45 260.344 2190.95 260.235 2213.41 261.541 C 2214 261.575 2213.85 264.04 2213.84 264.485 C 2198.29 265.509 2134.27 265.124 2115 264.341 C 2114.44 264.318 2114.13 261.057 2114.06 260.492 z" fill="rgb(1,1,1)" transform="translate(0,0)"></path>
<path d="M 1005.03 571.551 L 1293.77 570.979 C 1394.82 572.426 1495.88 572.606 1596.94 571.519 C 1583.25 586.59 1569.96 608.502 1556.33 624.81 C 1545.32 637.973 1536.99 653.085 1525.08 666.821 L 932.011 668.493 C 943.797 637.278 972.98 604.328 990.721 572.713 L 1005.03 571.551 z" fill="rgb(240,191,151)" transform="translate(0,0)"></path>
<path d="M 1215.2 638.505 C 1237.23 637.399 1265.76 637.59 1288.18 638.536 C 1289.6 638.596 1289.8 640.81 1289.07 640.926 C 1271.45 643.714 1250.1 641.943 1231.58 641.951 C 1216.6 642.072 1169.14 644.618 1158.12 641.966 L 1158.3 641.952 L 1156.49 640.859 L 1156.37 641.012 C 1157.72 637.923 1207.87 638.905 1215.2 638.505 z" fill="rgb(1,1,1)" transform="translate(0,0)"></path>
<path d="M 1313.88 483.607 C 1333.11 482.849 1352.57 482.628 1371.81 483.223 C 1383.67 483.59 1395.52 483.845 1407.38 484.048 C 1493.77 485.529 1580.61 482.607 1666.88 483.284 C 1657.23 492.273 1651.71 502.236 1643.49 511.834 C 1627.91 530.012 1614.15 547.043 1599.67 566.168 C 1591.69 566.408 1583.87 566.346 1575.89 566.094 C 1512.34 564.083 1448.73 568.968 1385.17 565.97 C 1373.26 565.409 1361.3 564.845 1349.38 565.253 C 1293.08 566.955 1222.53 567.846 1166.95 566.819 L 1067.12 565.939 C 1041.9 565.824 1019.04 565.073 993.896 567.139 C 1004.09 541.271 1013.15 534.089 1029.73 512.871 C 1034.52 506.743 1043.3 492.022 1048.22 484.618 C 1135.2 481.689 1225.78 485.826 1313.88 483.607 z" fill="rgb(240,191,151)" transform="translate(0,0)"></path>
<path d="M 1305.54 502.03 C 1315.42 501.688 1377.92 501.796 1384.63 503.917 C 1376.59 508.665 1285.23 506.766 1268.57 506.686 C 1249.17 506.745 1205.01 509.054 1189.29 504.368 C 1199.41 501.32 1290.06 502.242 1305.54 502.03 z" fill="rgb(1,1,1)" transform="translate(0,0)"></path>
<path d="M 1826.16 571.547 C 1854.66 570.413 1884.14 572.38 1912.69 572.616 C 2023.15 573.531 2133.82 571.088 2244.25 571.94 C 2241.74 601.197 2243 639.455 2246.1 668.459 C 2210.82 668.608 2170.56 666.452 2136.48 667.608 C 2023.94 669.609 1909.49 666.371 1796.79 667.872 C 1765.45 668.289 1741.09 666.052 1708.08 667.619 C 1729.72 632.916 1749.3 603.838 1776.57 573.075 C 1790.78 571.785 1811.4 571.872 1826.16 571.547 z" fill="rgb(240,191,151)" transform="translate(0,0)"></path>
<path d="M 1928 613.492 C 1946.48 611.575 1995.01 613.835 2015.35 614.068 C 2034.78 614.29 2090.88 612.408 2107.19 614.841 L 2106.05 615.98 C 2095.76 618.645 2090.52 618.271 2079.8 618.251 C 2037.73 617.186 1995.52 619.178 1953.41 617.213 C 1934.91 616.35 1916.29 618.669 1897.66 617.45 L 1897.41 616.764 C 1907.28 614.382 1917.83 614.104 1928 613.492 z" fill="rgb(1,1,1)" transform="translate(0,0)"></path>
<path d="M 598.765 215.464 L 842.506 215.738 C 895.055 216.294 942.806 218.547 995.733 217.255 C 987.735 230.046 978.197 244.131 971.677 257.481 C 963.363 274.503 959.77 287.593 948.558 303.218 C 940.338 311.915 938.808 327.264 929.42 341.903 C 900.073 341.488 872.754 342.994 844.212 342.827 C 761.764 342.051 679.311 341.918 596.86 342.429 C 597.41 324.407 594.274 304.93 594.845 288.945 C 595.497 270.682 595.328 232.124 598.765 215.464 z" fill="rgb(242,180,157)" transform="translate(0,0)"></path>
<path d="M 1289.17 1263.65 C 1300.84 1263.64 1462.5 1264.83 1463.05 1265.09 C 1463.2 1273.32 1458.04 1286.6 1458.82 1293.34 C 1461.87 1319.72 1462.16 1345 1461.67 1371.5 C 1461.44 1383.79 1465.4 1402.53 1462.15 1414.23 C 1457.18 1427.19 1462.46 1442.68 1461.04 1455.64 C 1458.66 1477.43 1461.66 1499.55 1460.77 1520.84 C 1458.72 1521.82 1304.13 1523.05 1294.57 1521.5 C 1287.17 1509.74 1294.08 1351.1 1288.99 1327.07 C 1287.03 1317.81 1290.39 1279.34 1289.32 1265.53 L 1289.17 1263.65 z" fill="rgb(242,180,157)" transform="translate(0,0)"></path>
<path d="M 1633.38 1264.69 C 1634.81 1264.43 1633.9 1264.43 1635.94 1265.69 C 1637.78 1276.87 1636.44 1297.69 1636.97 1310.53 C 1639.82 1380.46 1639.62 1451.25 1640.69 1521.36 L 1472.89 1521.49 C 1472.98 1511.58 1470.75 1499.92 1470.7 1490.11 C 1470.61 1468.56 1470.5 1446.95 1470.29 1425.4 C 1469.37 1417.48 1475.74 1396.52 1474.11 1390.08 C 1467.73 1366.39 1473.17 1341.65 1472.74 1317.63 C 1472.36 1296.11 1469.21 1286.27 1475.11 1264.86 C 1523.4 1266.27 1585.49 1266 1633.38 1264.69 z" fill="rgb(242,180,157)" transform="translate(0,0)"></path>
<path d="M 1820.16 1266.14 C 1877.39 1266.9 1934.63 1267.2 1991.87 1267.03 C 1988.97 1351.94 1988.16 1436.91 1989.43 1521.86 C 1974.81 1524.27 1949.83 1521.69 1934.51 1521.95 C 1899.28 1522.53 1859.77 1519.93 1825.04 1520.56 C 1825.4 1500.03 1823.35 1480.14 1823.17 1459.59 C 1822.9 1428.63 1822.99 1397.45 1823.57 1366.56 C 1824.03 1342.19 1818.31 1316.36 1821.41 1291.31 C 1822.15 1285.29 1820.48 1272.67 1820.16 1266.14 z" fill="rgb(242,180,157)" transform="translate(0,0)"></path>
<path d="M 2001.7 1266.69 C 2031.5 1266.37 2060.77 1267.32 2090.52 1267.7 C 2114.34 1268 2138.44 1266.8 2162.39 1266.87 C 2162.35 1352.04 2165.61 1436.51 2166.57 1521.43 L 1999.77 1521.23 C 1999.47 1500.13 1998.55 1478.8 1998.87 1457.58 C 1999.04 1445.88 2001.77 1431.45 2001.58 1420.12 C 2000.69 1369.09 2001.96 1317.65 2001.7 1266.69 z" fill="rgb(242,180,157)" transform="translate(0,0)"></path>
<path d="M 1648.18 1265.09 C 1700.06 1265.83 1759.37 1263.54 1810.1 1266.28 C 1808.32 1297.77 1813.26 1337.27 1813.03 1366.57 C 1812.9 1384.17 1812.9 1515.96 1809.51 1520.72 L 1652.52 1521.49 C 1649.28 1501.86 1652.39 1489.4 1651.09 1471.37 C 1646.16 1402.76 1652.11 1333.43 1648.18 1265.09 z" fill="rgb(242,180,157)" transform="translate(0,0)"></path>
<path d="M 2181.82 482.275 C 2193.49 481.321 2207.44 482.19 2219.38 482.225 C 2252.53 482.322 2284.58 483.348 2317.79 482.455 C 2292.31 506.036 2271.77 539.493 2246.85 565.996 C 2209.44 565.219 2174.33 566.596 2137.63 566.667 L 1921.11 566.37 C 1874.86 564.467 1828.9 567.384 1782.63 566.604 C 1792.55 547.515 1834.35 500.953 1849.51 483.034 C 1869.77 482.526 1890.14 483.536 1910.35 483.389 C 1999.53 482.741 2093.12 487.988 2181.82 482.275 z" fill="rgb(240,191,151)" transform="translate(0,0)"></path>
<path d="M 1885.83 503.067 C 1931.34 500.653 1978.23 500.751 2023.74 502.183 C 2031.57 502.429 2048.49 501.402 2054.78 502.995 L 2054.47 504.339 C 2043.4 508.588 1997.96 506.434 1982.92 506.432 C 1975.45 507.492 1882.02 506.468 1880.29 505.383 C 1879.82 502.749 1884.36 502.977 1885.83 503.067 z" fill="rgb(1,1,1)" transform="translate(0,0)"></path>
<path d="M 1982.92 506.432 C 1975.45 507.492 1882.02 506.468 1880.29 505.383 C 1879.82 502.749 1884.36 502.977 1885.83 503.067 C 1885.53 503.428 1884.86 504.071 1884.77 504.611 C 1898.07 508.186 1975.05 502.652 1982.92 506.432 z" fill="rgb(89,69,61)" transform="translate(0,0)"></path>
<path d="M 1120.26 812.965 C 1134.39 811.789 1148.18 812.559 1162.35 812.541 L 1250.65 812.972 C 1284.22 813.034 1341.16 808.211 1371.64 814.734 C 1408.88 822.703 1443.42 839.306 1464.43 871.826 L 1467.48 1162.7 C 1467.48 1169.73 1467.11 1193.86 1464.81 1198.54 C 1429.7 1269.93 1273.71 1252.26 1219.96 1252.16 L 944.235 1252.02 C 939.036 1247.26 933.485 1242.49 928.182 1237.81 C 959.948 1241.97 957.646 1231.05 986.462 1231.16 C 1009.2 1230.48 1033.78 1233.79 1056.31 1232.92 C 1130.26 1230.03 1203.12 1235.29 1277.02 1232.71 C 1326.42 1230.99 1377.98 1240.61 1421.91 1209.67 C 1432.84 1201.97 1439.12 1194.76 1441.52 1181.54 C 1443.21 1162.67 1439.36 1142.65 1439.65 1123.51 C 1440.74 1052.76 1437.92 982.019 1440.36 911.277 C 1440.71 901.316 1439.74 893.938 1442.38 883.956 C 1432.67 860.66 1418.77 853.885 1397.43 843.002 C 1359.95 823.896 1318.24 829.272 1277.81 830.04 L 1182.31 831.027 C 1157.51 831.406 1132.58 829.587 1107.75 829.817 C 1093.42 829.949 1079.12 831.451 1064.84 831.8 L 921.782 834.403 C 905.272 834.832 887.526 833.261 870.695 833.255 C 840.8 833.244 810.994 833.576 781.106 833.96 C 764.367 834.175 746.779 832.841 730.099 833.911 C 714.47 834.849 699.053 838.002 684.31 843.275 C 660.666 851.605 648.4 859.926 637.392 882.846 C 637.635 885.505 641.625 922.806 641.71 921.935 C 629.036 924.201 635.754 913.287 629.516 908.519 C 622.309 907.666 614.928 909.399 607.651 910.576 C 606.793 892.515 604.817 872.156 617.498 856.908 C 632.576 838.778 682.441 820.917 704.926 816.989 C 726.626 814.567 748.82 815.221 770.62 814.809 C 800.551 812.974 830.282 815.866 859.999 815.759 C 927.814 815.514 995.905 815.875 1063.71 814.441 C 1081.78 814.059 1100.18 814.898 1118.02 813.191 L 1120.26 812.965 z" fill="rgb(247,230,204)" transform="translate(0,0)"></path>
<path d="M 1106.48 1262.14 C 1124.58 1262.5 1143.23 1262.43 1161.17 1262.97 C 1194.87 1262.25 1243.87 1261.77 1277.51 1263.04 C 1276.82 1322.53 1282.42 1381.36 1279.3 1440.81 C 1278.2 1461.7 1283.88 1500.29 1277.08 1520.1 C 1270.89 1523.15 1178 1521.28 1162.17 1522.06 C 1149.3 1498.71 1151.79 1494.25 1143.51 1471.5 C 1150.9 1473.93 1158.56 1477.49 1165.96 1475.39 C 1171.6 1468.38 1161.59 1458.7 1156.94 1452.77 C 1163.13 1454.93 1168.66 1457.55 1175.03 1457.05 L 1177.63 1455.49 C 1177.97 1442.7 1143.59 1422.46 1133.57 1415.2 C 1140.27 1409.95 1147.71 1403.85 1154.71 1399.2 C 1163.21 1401.32 1173.93 1405.55 1181.34 1401.47 C 1182.91 1392.05 1156.45 1376.69 1148.96 1371.7 C 1153.05 1365.61 1166.1 1347.66 1168.09 1341.47 L 1167.05 1339.08 C 1161.69 1337.28 1128.79 1340.16 1119.96 1340.39 C 1125.12 1336.79 1133.09 1331.99 1134.18 1325.42 C 1130.76 1321.14 1121.78 1321.52 1121.38 1320.42 C 1117.36 1309.26 1116.86 1280.04 1119.28 1269.1 C 1117.68 1263.87 1116.65 1265.74 1111.78 1265.3 L 1109.26 1265.06 C 1108.68 1263.34 1107.97 1263.08 1106.48 1262.14 z" fill="rgb(242,180,157)" transform="translate(0,0)"></path>
<path d="M 1106.48 1262.14 C 1124.58 1262.5 1143.23 1262.43 1161.17 1262.97 C 1157.13 1267.01 1128.64 1262.84 1121.51 1264.77 C 1119.91 1265.21 1123.65 1267.96 1119.28 1269.1 C 1117.68 1263.87 1116.65 1265.74 1111.78 1265.3 L 1109.26 1265.06 C 1108.68 1263.34 1107.97 1263.08 1106.48 1262.14 z" fill="rgb(240,191,151)" transform="translate(0,0)"></path>
<path d="M 693.503 1038.11 C 739.893 1035.28 786.617 1041.04 832.127 1039.48 C 896.121 1037.28 958.39 1038.69 1022.14 1038.55 C 1025.47 1083.68 1022.1 1132.6 1021.9 1177.97 C 1021.83 1193.58 1023.61 1208.92 1023.72 1224.45 C 1001.36 1224.28 978.997 1224.37 956.636 1224.7 C 950.014 1207.74 941.338 1196.25 936.852 1178.27 C 945.697 1180.17 965.537 1186.96 971.537 1183.22 C 972.211 1169.82 945.476 1156.27 935.116 1150.14 C 941.763 1149.65 950.211 1149.72 955.91 1146.89 L 956.614 1145.11 C 949.491 1138.22 912.208 1132.71 901.005 1131.58 C 905.811 1123.2 910.859 1116.46 910.857 1106.9 C 905.483 1097.45 876.723 1112.97 867.493 1116.76 C 864.567 1082.07 859.736 1093.39 834.15 1106.14 C 827.199 1109.6 818.057 1114.99 812.1 1119.74 C 802.117 1114.55 763.627 1094.01 754.437 1098.51 C 753.898 1102.82 754.867 1102.75 757.194 1107.5 C 744.856 1102.89 728.113 1085.84 716.573 1092.06 C 712.295 1094.36 711.574 1101.51 707.876 1106 C 699.944 1108.81 682.619 1095.63 675.853 1091.34 C 678.11 1089.1 678.189 1088.83 680.713 1087.25 C 682.093 1083.42 682.019 1082.52 679.63 1077.8 C 672.785 1064.27 667.891 1058.7 663.669 1044.04 C 671.814 1048.58 680.92 1055.64 689.392 1053.46 C 695.034 1048.67 693.648 1045.33 693.503 1038.11 z" fill="rgb(252,251,252)" transform="translate(0,0)"></path>
<path d="M 1849.01 739.51 C 1859.04 738.584 1945.08 739.706 1953.69 741.656 C 1977.2 746.974 2036.36 782.964 2060.56 797.244 C 2089.88 814.333 2120.78 829.049 2150.41 845.455 C 2204.2 875.238 2261.64 913.624 2317.99 937.366 C 2318.42 955.228 2318.72 987.931 2317.06 1005.53 C 2312.16 1005.32 2307.06 1004.67 2302.16 1004.15 C 2274.16 982.725 2251.34 977.109 2223 960.158 C 2189.37 940.047 2156.51 920.698 2121.15 903.165 C 2109.13 897.74 2095.29 887.014 2083.6 882.238 C 2052.76 869.641 2027.21 853.069 1998.6 836.721 L 1884.26 771.881 C 1864.07 760.248 1847.7 754.25 1825.56 740.484 L 1849.01 739.51 z" fill="rgb(243,214,157)" transform="translate(0,0)"></path>
<path d="M 2552.22 1260.53 C 2567.83 1259.56 2583.49 1259.79 2599.14 1259.82 C 2595.51 1280.32 2599.12 1291.66 2599.24 1311.82 C 2599.12 1321.9 2597.05 1332.65 2597.24 1342.69 C 2598.22 1371.26 2599.92 1399.06 2598.92 1427.68 C 2597.47 1469.41 2601.16 1511.27 2600.12 1553.07 C 2583.03 1551.01 2566.06 1550.05 2548.89 1548.92 C 2534.85 1548.42 2514.88 1545.9 2499.68 1544.93 C 2496.2 1503.24 2501.8 1464.55 2497.61 1423.1 C 2496.57 1406.63 2498.41 1390 2498.47 1373.53 C 2498.59 1336.44 2498.02 1298.83 2498.21 1261.78 C 2516.23 1261.66 2534.24 1261.79 2552.22 1260.53 z" fill="rgb(242,180,157)" transform="translate(0,0)"></path>
<path d="M 2213.84 1265.86 C 2225 1265.3 2237.37 1265.46 2248.63 1265.37 C 2248.35 1277.14 2250.6 1281.45 2251.45 1292.1 C 2252.15 1297.57 2247.5 1317.44 2248.74 1321.41 C 2255.83 1344.11 2249.44 1358.99 2247.02 1381.96 C 2244.82 1402.75 2248.4 1425.17 2248.69 1446.06 C 2249.1 1474.63 2244.56 1495.41 2251.81 1523.81 C 2239.26 1522.26 2230.49 1521.85 2217.8 1521.54 C 2204.05 1521.2 2189.74 1521.45 2175.95 1521.51 C 2174.5 1502.25 2176.49 1481.99 2175.53 1462.8 C 2172.3 1398.49 2174.42 1331.4 2175.11 1267.08 C 2188.02 1266.83 2200.93 1266.42 2213.84 1265.86 z" fill="rgb(242,180,157)" transform="translate(0,0)"></path>
<path d="M 684.605 484.897 C 703.533 483.763 723.455 486.739 742.035 486.234 C 780.881 485.179 819.054 484.374 857.921 484.167 C 841.951 502.153 822.94 543.726 811.289 566.325 C 799.252 566.221 786.911 566.431 774.846 566.494 C 716.621 566.882 660.038 563.028 601.249 566.834 C 601.24 537.796 598.319 514.958 600.8 485.435 C 628.236 484.888 657.655 486.164 684.605 484.897 z" fill="rgb(242,180,157)" transform="translate(0,0)"></path>
<path d="M 601.098 572.119 L 808.39 572.711 C 796.025 588.912 779.514 618.772 767.84 637.216 C 764.604 644.631 754.903 661.083 750.64 668.501 C 704.879 668.154 641.737 666.108 596.985 668.933 C 597.254 654.866 597.379 639.761 598.258 625.767 C 599.351 608.37 602.987 589.518 601.098 572.119 z" fill="rgb(240,191,151)" transform="translate(0,0)"></path>
<path d="M 2023.94 767.137 C 2022.36 766.65 2020.51 766.089 2019.91 764.266 C 2019.84 764.048 2019.98 763.423 2020.19 763.39 C 2028.19 762.128 2042.44 762.285 2050.22 763.761 C 2083.16 763.547 2119.68 762.433 2152.23 763.181 L 2215.52 764.252 C 2225.78 764.344 2237.61 765.056 2247.62 763.887 C 2246.8 776.995 2246.97 790.579 2247.52 803.721 C 2248.75 833.446 2244.98 862.789 2245.62 892.509 C 2192.37 855.963 2128.27 829.382 2072.89 795.703 C 2056.69 785.852 2039.47 778.367 2023.94 767.137 z" fill="rgb(242,180,157)" transform="translate(0,0)"></path>
<path d="M 2023.94 767.137 C 2022.36 766.65 2020.51 766.089 2019.91 764.266 C 2019.84 764.048 2019.98 763.423 2020.19 763.39 C 2028.19 762.128 2042.44 762.285 2050.22 763.761 C 2039.39 764.998 2028.16 761.951 2023.94 767.137 z" fill="rgb(240,191,151)" transform="translate(0,0)"></path>
<path d="M 1733.85 483.389 C 1757.24 483.291 1780.45 482.72 1803.84 483.19 C 1766.99 532.691 1731.22 582.682 1691.16 629.617 C 1682.42 639.856 1678.11 651.976 1668.87 661.773 C 1661.99 669.068 1663.08 667.538 1653.36 667.839 C 1630.02 667.096 1606.71 667.658 1583.21 667.029 C 1603.93 644.845 1618.81 619.782 1638.8 599.089 C 1673.99 562.667 1699.89 519.821 1733.85 483.389 z" fill="rgb(247,230,204)" transform="translate(0,0)"></path>
<path d="M 945.692 483.64 C 964.244 483.118 981.663 483.878 1000.63 483.075 C 989.378 511.703 969.379 534.955 952.987 560.355 C 930.199 595.665 910.458 632.91 887.542 668.207 L 872.156 668.015 C 852.515 667.648 832.687 667.652 813.029 667.522 C 853.3 610.183 888.066 544.429 925.478 483.983 L 945.692 483.64 z" fill="rgb(247,230,204)" transform="translate(0,0)"></path>
<path d="M 159.974 483.089 C 183.621 482.061 211.881 483.022 235.691 483.535 C 221.486 529.339 200.788 575.886 185.447 621.222 C 180.179 636.79 174.307 649.984 170.957 666.229 C 170.204 666.842 169.451 667.456 168.699 668.07 C 148.862 668.003 120.774 666.84 101.618 667.406 C 108.15 646.481 113.263 627.184 118.949 606.114 C 122.05 593.674 131.643 577.978 134.079 565.869 C 140 536.435 147.411 510.691 159.974 483.089 z" fill="rgb(247,230,204)" transform="translate(0,0)"></path>
<path d="M 615.805 915.37 C 619.143 914.721 619.252 914.316 622.226 915.708 C 622.532 916.828 623.069 918.92 623.51 919.931 C 626.06 925.768 669.776 938.784 678.376 941.842 L 652.435 947.162 C 669.886 963.314 681.711 960.984 700.544 985.564 C 684.306 979.971 676.685 977.596 659.741 976.063 C 672.093 1008.95 683.294 1005.05 684.624 1047.59 C 676.536 1042.97 654.975 1028.67 647.19 1032 C 646.396 1036.18 646.918 1035.15 650.053 1040.04 C 655.502 1048.36 666.076 1071.03 670.439 1080.54 C 662.591 1078.16 654.646 1075.14 646.907 1072.36 C 651.546 1079.42 657.978 1088.43 661.038 1096.02 C 653.835 1106.37 607.42 1106 598.954 1100.68 C 598.007 1096.04 597.623 1043.85 597.472 1035.31 C 596.888 1002.41 593.531 966.294 596.854 933.621 C 597.444 927.812 598.041 923.447 598.392 917.232 L 615.805 915.37 z" fill="rgb(241,178,96)" transform="translate(0,0)"></path>
<path d="M 1902.92 216.578 C 1923.51 215.202 1960.49 216.89 1982.25 217.19 C 1978.15 225.812 1960.97 247.53 1954.43 257.332 C 1937.28 283.013 1918.01 316.524 1898.88 340.003 C 1894.88 341.783 1889.04 341.216 1884.42 341.163 L 1805.12 341.338 C 1818.5 319.319 1846.31 289.373 1862.2 268.162 C 1874.82 251.312 1886.89 229.954 1902.92 216.578 z" fill="rgb(247,230,204)" transform="translate(0,0)"></path>
<path d="M 1060.67 217.377 C 1091.31 217.77 1121.94 217.816 1152.58 217.516 C 1144.18 231.931 1132.83 244.437 1123.58 258.242 C 1114.68 271.654 1108.36 287.563 1099.73 301.019 C 1091.91 313.203 1082.66 324.46 1074.61 336.793 L 1071.72 340.166 C 1063.35 343.891 1002 341.603 989.039 341.381 C 1011.46 301.405 1041.37 258.816 1060.67 217.377 z" fill="rgb(247,230,204)" transform="translate(0,0)"></path>
<path d="M 2315.06 737.944 C 2320.67 754.181 2318.85 821.797 2318.82 840.664 L 2318.83 930.984 C 2307.12 925.222 2291.31 918.065 2280.92 910.755 C 2272.45 905.569 2265.36 902.044 2256.44 897.619 C 2254.72 880.516 2256.7 867.445 2257.16 850.478 L 2259.11 762.581 C 2282.01 754.888 2294.15 749.706 2315.06 737.944 z" fill="rgb(247,230,204)" transform="translate(0,0)"></path>
<path d="M 2282.97 802.861 C 2292.91 802.693 2291.78 811.034 2289.97 819.049 C 2283.09 817.895 2283.4 809.28 2282.97 802.861 z" fill="rgb(1,1,1)" transform="translate(0,0)"></path>
<path d="M 948.532 1257.06 C 995.261 1260.78 1058.25 1260.8 1106.48 1262.14 C 1107.97 1263.08 1108.68 1263.34 1109.26 1265.06 C 1106.45 1276.52 1107.12 1310.8 1109.99 1322.21 C 1089.49 1326.8 1068.94 1331.2 1048.35 1335.41 C 1051.91 1330.2 1054.44 1327.33 1055.98 1321.19 L 1055.26 1319.18 C 1045.48 1315.7 1011.35 1326.92 999.757 1329.82 C 1004.3 1324.89 1009.17 1320.55 1011.51 1314.43 L 1011.18 1311.38 C 1002.43 1307.84 983.009 1320.12 974.154 1323.86 C 973.726 1324.02 973.298 1324.18 972.87 1324.34 L 961.265 1328.98 C 963.574 1326.11 966.092 1322.27 968.739 1319.92 C 972.491 1314.46 977.709 1308.58 979.059 1302.45 L 977.661 1300.89 C 967.564 1299.15 936.681 1308.16 925.072 1310.92 L 916.966 1297.91 C 924.27 1299.97 934.179 1304.67 939.183 1297.87 C 939.402 1291.02 934.175 1279.18 931.644 1271.86 C 939.044 1274.28 950.741 1280.09 957.079 1275.06 C 958 1268.2 952.652 1262.67 948.532 1257.06 z" fill="rgb(242,180,157)" transform="translate(0,0)"></path>
<path d="M 961.265 1328.98 C 963.574 1326.11 966.092 1322.27 968.739 1319.92 C 970.902 1322.66 970.791 1322.43 974.154 1323.86 C 973.726 1324.02 973.298 1324.18 972.87 1324.34 L 961.265 1328.98 z" fill="rgb(240,191,151)" transform="translate(0,0)"></path>
<path d="M 2603.43 216.534 C 2627.78 216.899 2652.13 217.08 2676.48 217.077 C 2661.39 230.772 2655.97 241.009 2644.17 256.907 C 2624.12 283.939 2603.26 310.777 2581.68 336.611 C 2578.31 340.64 2576.19 339.898 2571.51 340.12 C 2546.98 341.01 2522.44 341.458 2497.89 341.462 C 2534.42 304.03 2564.41 253.056 2603.43 216.534 z" fill="rgb(247,230,204)" transform="translate(0,0)"></path>
<path d="M 2457.26 1261.41 L 2488.07 1261.33 C 2488.36 1276.11 2489.12 1292.39 2487.91 1307.1 C 2484.67 1346.41 2489.88 1385.11 2487.12 1424.55 C 2486.45 1434.15 2489.51 1447.91 2489.38 1458.5 C 2489.05 1485.25 2485.12 1515.32 2488.41 1541.73 C 2484.85 1544.81 2463.32 1542.34 2457.38 1541.98 C 2457.93 1520.56 2454.18 1498.88 2454.51 1480.28 C 2455.27 1461.89 2456.91 1442.74 2456.55 1424.36 C 2455.49 1370.29 2457.57 1315.25 2457.26 1261.41 z" fill="rgb(242,180,157)" transform="translate(0,0)"></path>
<path d="M 266.847 215.88 C 281.797 215.385 295.899 215.755 310.802 215.426 C 310.265 220.175 309.619 230.971 307.898 234.928 C 299.464 254.311 301.638 272.781 299.365 292.694 C 298.719 298.354 293.404 311.964 294.525 316.941 C 296.745 326.796 289.661 329.497 293.859 337.998 C 296.998 344.302 279.623 341.388 277.593 341.41 C 270.86 341.483 263.641 341.555 256.899 341.733 C 242.546 341.7 228.233 341.593 213.824 341.495 C 206.499 341.445 214.234 332.346 215.241 328.83 C 216.63 324.719 219.653 319.88 220.345 315.648 C 222.119 304.79 227.949 294.648 232.724 284.824 C 236.966 276.096 241.018 268.303 243.598 258.83 C 244.197 256.63 245.257 254.442 245.622 252.052 C 248.136 244.083 249.5 235.447 252.618 227.618 C 253.941 224.296 257.725 221.886 258.031 217.061 C 257.987 216 264.973 215.992 266.847 215.88 z" fill="rgb(247,230,204)" transform="translate(0,0)"></path>
<path d="M 270.408 242.17 C 273.644 243.661 274.507 244.23 271.73 247.358 C 268.16 251.38 268.073 254.616 264.555 258.804 C 255.562 254.169 265.873 246.048 270.408 242.17 z" fill="rgb(1,1,1)" transform="translate(0,0)"></path>
<path d="M 898.442 485.062 C 902.543 484.818 909.075 483.8 912.216 485.709 C 906.753 501.755 883.819 532.328 874.998 549.432 C 853.454 591.205 829.408 628.74 803.29 667.74 C 793.463 667.558 782.637 667.962 772.735 668.128 C 769.819 668.173 766.757 668.074 763.828 668.031 L 762.621 666.768 C 765.927 658.603 774.616 645.223 779.076 636.907 C 796.761 603.935 817.781 573.675 837.089 541.802 C 848.766 522.527 851.837 502.745 867.275 485.699 L 898.442 485.062 z" fill="rgb(247,230,204)" transform="translate(0,0)"></path>
<path d="M 2521.17 216.869 C 2544.48 217.177 2568.3 216.405 2591.74 216.396 C 2550.37 256.51 2531.04 294.235 2494.37 331.893 L 2488.7 341.338 L 2430.64 341.051 C 2445.41 322.923 2457.62 302.105 2471.9 283.572 C 2489.37 260.891 2500.14 236.567 2521.17 216.869 z" fill="rgb(247,230,204)" transform="translate(0,0)"></path>
<path d="M 2547.7 242.138 C 2560.62 247.967 2531.49 264.754 2525.68 267.003 C 2524.11 266.556 2523.3 266.443 2521.98 265.742 C 2522.27 263.767 2532.4 260.243 2535.27 256.224 C 2537.59 252.974 2544.72 245.075 2547.7 242.138 z" fill="rgb(1,1,1)" transform="translate(0,0)"></path>
<path d="M 1676.88 482.964 C 1691.66 483.5 1706.46 483.713 1721.26 483.6 C 1690.43 516.778 1665.46 557.496 1635.21 591.089 C 1614.03 614.611 1598.75 638.3 1578.46 661.686 C 1571.34 670.168 1548.69 666.761 1537.63 666.468 C 1557.24 637.267 1574.84 612.255 1598.15 585.648 C 1609.14 573.1 1618.43 553.944 1629.43 540.619 C 1645.27 521.412 1661.13 502.248 1676.88 482.964 z" fill="rgb(247,230,204)" transform="translate(0,0)"></path>
<path d="M 253.206 570.813 L 308.275 571.024 C 308.519 601.576 309.031 634.96 308.5 665.225 C 294.191 667.279 291.322 666.914 276.817 666.888 C 258.304 666.745 240.284 665.318 221.946 667.801 L 222.964 664.458 C 228.863 644.473 234.249 624.513 241.289 605.037 C 245.571 593.19 250.579 582.952 253.206 570.813 z" fill="rgb(240,191,151)" transform="translate(0,0)"></path>
<path d="M 2397.56 482.942 C 2420.98 482.229 2448.75 483.09 2472.51 483.203 C 2459.45 498.385 2418.44 561.546 2404.83 563.611 C 2381.74 563.93 2348.74 562.545 2327.6 564.821 C 2347.11 539.048 2376.36 509.2 2397.56 482.942 z" fill="rgb(247,230,204)" transform="translate(0,0)"></path>
<path d="M 2399.22 515.225 C 2400.02 515.483 2401.42 515.612 2401.83 516.532 C 2398.32 522.158 2388.12 536.014 2383.11 539.358 C 2372.66 533.138 2393.44 518.04 2399.22 515.225 z" fill="rgb(1,1,1)" transform="translate(0,0)"></path>
<path d="M 2254.5 571.218 C 2274.84 570.635 2295.19 570.521 2315.53 570.877 C 2315.54 573.006 2315.42 584.716 2315.94 585.862 C 2323.73 602.818 2312.19 618.768 2317.67 635.24 C 2321.13 645.642 2318.49 657.805 2317.32 668.091 C 2298.4 668.696 2276.8 668.175 2257.64 668.258 C 2257.01 654.871 2253.66 646.244 2254.65 633.281 C 2256.06 614.803 2257.39 589.336 2254.5 571.218 z" fill="rgb(247,230,204)" transform="translate(0,0)"></path>
<path d="M 1834.79 215.192 C 1853.26 215.164 1871.72 215.455 1890.17 216.067 C 1866.23 241.968 1858.28 257.637 1838.21 285.255 C 1829.34 297.475 1808.52 321.253 1797.94 333.683 L 1793.2 341.571 L 1751.82 341.5 C 1766.33 323.569 1774.47 307.888 1785.92 288.256 C 1787.72 285.155 1794.53 280.803 1796.43 277.68 C 1809.21 256.627 1823.35 237.076 1834.79 215.192 z" fill="rgb(247,230,204)" transform="translate(0,0)"></path>
<path d="M 201.204 216.359 C 216.979 216.348 232.753 216.199 248.524 215.911 C 243.026 225.482 241.168 229.034 237.845 240.198 C 233.501 254.794 224.443 271.599 218.373 285.958 C 213.595 292.729 211.67 299.855 209.596 307.772 C 206.875 318.163 204.428 331.226 201.904 341.38 C 186.156 341.208 170.407 341.255 154.661 341.523 C 161.635 322.586 168.006 301.73 175.172 283.029 C 180.923 270.815 183.802 257.069 188.912 244.116 C 193.572 232.3 197.273 229.086 201.204 216.359 z" fill="rgb(247,230,204)" transform="translate(0,0)"></path>
<path d="M 1009.33 216.937 C 1023.2 216.549 1039.5 216.893 1053.68 216.828 C 1040.03 236.481 1030.91 258.101 1016.51 277.295 C 1010.24 285.648 1008.8 293.659 1003.71 301.637 C 995.968 313.78 987.954 325.519 980.35 337.806 C 977.268 344.494 949.412 341.588 941.671 341.411 C 956.105 316.225 964.684 286.56 981.214 262.174 C 986.214 254.799 988.608 246.494 994.232 238.686 C 999.251 231.718 1004.44 224.048 1009.33 216.937 z" fill="rgb(247,230,204)" transform="translate(0,0)"></path>
<path d="M 983.682 301.689 C 985.333 302.159 986.753 302.095 986.854 304.031 C 984.289 307.829 978.048 315.566 975.095 319.534 C 964.956 314.771 978.704 305.115 983.682 301.689 z" fill="rgb(1,1,1)" transform="translate(0,0)"></path>
<path d="M 121.29 483.327 C 127.297 483.285 142.635 482.568 147.295 484.777 C 131.394 527.268 120.83 571.634 105.622 614.369 C 102.113 624.23 96.925 660.568 91.2521 666.946 L 82.3613 667.265 C 73.5187 667.756 63.3499 667.656 54.3871 667.764 C 61.0795 643.997 78.345 607.674 89.1745 585.243 C 96.294 572.547 96.1153 552.757 101.143 540.384 C 109.768 519.158 116.143 505.748 121.29 483.327 z" fill="rgb(247,230,204)" transform="translate(0,0)"></path>
<path d="M 2327.49 482.822 C 2346.52 482.177 2366.51 482.739 2385.55 483.194 C 2379.77 489.441 2374.21 495.887 2368.88 502.519 C 2360.54 513.084 2352.84 522.258 2345.08 533.382 C 2338.08 543.423 2325.35 553.05 2316.48 562.239 C 2312.26 566.05 2269.2 564.467 2259.56 564.488 C 2271.43 552.688 2279.65 544.113 2288.46 529.808 C 2292.81 522.734 2301.19 510.616 2306.61 504.523 C 2309.83 500.947 2313.19 497.503 2316.69 494.197 C 2320.53 490.565 2323.99 486.782 2327.49 482.822 z" fill="rgb(247,230,204)" transform="translate(0,0)"></path>
<path d="M 2527.28 483.279 C 2570.72 481.8 2606.88 482.329 2649.83 482.906 L 2651.11 486.771 C 2595.53 504.147 2534.54 525.995 2479.34 545.45 C 2497.1 526.161 2513.14 505.358 2527.28 483.279 z" fill="rgb(242,180,157)" transform="translate(0,0)"></path>
<path d="M 275.191 483.136 C 286.191 483.221 297.003 483.728 307.981 483.915 C 311.384 507.598 309.49 541.15 307.944 565.369 C 301.437 565.491 294.929 565.494 288.422 565.377 L 255.05 565.045 C 256.955 558.121 260.013 550.694 261.369 544.019 C 265.423 524.069 270.978 503.026 275.191 483.136 z" fill="rgb(242,180,157)" transform="translate(0,0)"></path>
<path d="M 146.925 897.641 C 151.935 896.763 190.305 895.373 191.145 897.515 C 190.238 899.3 184.826 899.612 183.274 899.886 C 180.561 900.535 178.803 900.983 176.014 901.34 C 163.159 905.719 152.529 909.099 139.947 914.563 C 141.485 909.388 142.574 904.374 144.886 899.48 L 146.925 897.641 z" fill="rgb(242,180,157)" transform="translate(0,0)"></path>
<path d="M 146.925 897.641 C 151.935 896.763 190.305 895.373 191.145 897.515 C 190.238 899.3 184.826 899.612 183.274 899.886 C 180.561 900.535 178.803 900.983 176.014 901.34 C 169.696 896.812 153.044 899.142 144.886 899.48 L 146.925 897.641 z" fill="rgb(89,69,61)" transform="translate(0,0)"></path>
<path d="M 146.925 897.641 C 151.766 897.85 182.855 896.221 183.274 899.886 C 180.561 900.535 178.803 900.983 176.014 901.34 C 169.696 896.812 153.044 899.142 144.886 899.48 L 146.925 897.641 z" fill="rgb(240,191,151)" transform="translate(0,0)"></path>
<path d="M 256.124 897.107 L 302.178 897.406 C 294.976 899.833 288.352 902.019 280.982 904.009 C 270.173 907.696 261.668 911.284 250.538 914.647 C 252.298 907.72 253.439 903.78 256.124 897.107 z" fill="rgb(247,230,204)" transform="translate(0,0)"></path>
<path d="M 92.367 895.095 C 100.772 895.155 108.128 895.246 116.508 895.92 C 108.034 899.534 95.5736 905.6 86.9326 908.324 C 80.4156 911.369 75.8878 912.96 69.3858 915.523 C 79.7597 904.098 80.7286 904.45 92.367 895.095 z" fill="rgb(240,191,151)" transform="translate(0,0)"></path>
<path d="M 767.815 1107.95 C 776.034 1110.68 780.784 1111.43 788.772 1115.98 C 785.085 1119.08 786.219 1114.07 780.802 1119.78 C 777.728 1116.19 771.631 1111.57 767.815 1107.95 z" fill="rgb(240,191,151)" transform="translate(0,0)"></path>
<path d="M 984.632 1327.17 C 986.795 1325.96 991.576 1322.62 994.097 1324.13 C 994.515 1327.04 991.65 1329.78 989.28 1331.11 C 987.296 1329.56 986.454 1328.87 984.632 1327.17 z" fill="rgb(240,191,151)" transform="translate(0,0)"></path>
<path d="M 597.052 898.531 C 601.169 902.639 600.353 906.422 600.614 912.831 C 593.791 910.742 596.166 905.979 597.052 898.531 z" fill="rgb(162,142,136)" transform="translate(0,0)"></path>
<path d="M 598.031 876.898 C 600.079 888.206 595.449 890.988 594.643 879.226 C 596.024 878.353 596.813 877.926 598.031 876.898 z" fill="rgb(89,69,61)" transform="translate(0,0)"></path>
<path d="M 675.853 1091.34 C 673.964 1090.49 672.278 1089.35 670.442 1088.39 L 670.215 1086.56 C 669.79 1086.65 669.365 1086.75 668.941 1086.84 C 668.859 1086.72 668.777 1086.6 668.696 1086.49 C 669.53 1085.49 678.476 1087.11 680.713 1087.25 C 678.189 1088.83 678.11 1089.1 675.853 1091.34 z" fill="rgb(250,240,207)" transform="translate(0,0)"></path>
<path d="M 931.583 1142.26 C 943.971 1144.64 937.143 1146.92 930.296 1144.79 C 930.556 1144.65 931.003 1144.47 931.25 1144.22 C 931.708 1143.75 931.565 1142.75 931.583 1142.26 z" fill="rgb(146,123,95)" transform="translate(0,0)"></path>
<path d="M 2649.83 482.906 C 2651.47 482.89 2657.92 482.496 2659.22 483.652 C 2657.51 484.984 2653.31 486.106 2651.11 486.771 L 2649.83 482.906 z" fill="rgb(240,191,151)" transform="translate(0,0)"></path>
<path d="M 2042.07 889.403 L 2044.05 890.47 C 2044.97 890.943 2046.66 891.598 2046.94 892.76 C 2046.57 894.092 2043.33 893.702 2042.35 893.739 L 2042.07 889.403 z" fill="rgb(240,191,151)" transform="translate(0,0)"></path>
<metadata><recraft-signature>{"signed_by": "recraft", "signature_b64": "nZdGDyg06qH79O2vCDKLc9BK/z2DhrQd7t99J4AvKr+eHRSbPD5MB4JSZPGQENiere78/RInxtiMDgKB2sBTCw==", "signing_algo": "Ed25519", "generation_timestamp": 1781921701, "identifier": "1cab759f-448c-4753-b956-c033a78e66e2"}</recraft-signature></metadata></svg>