<svg xmlns="http://www.w3.org/2000/svg" height="2688" preserveAspectRatio="none" style="display: block;" version="1.1" viewBox="0 0 2688 2688" width="1536">
<path d="M 0 0 L 2688 0 L 2688 471.727 L 2688 480.922 L 2688 592.581 L 2688 602.614 L 2688 726.162 L 2688 735.222 L 2688 1355.05 L 2688 1366.21 L 2688 1564.11 L 2688 1574.62 L 2688 1828.32 L 2688 1837.3 L 2688 2688 L 0 2688 L 0 1766.54 L 0 1445.25 L 0 1413.08 L 0 1403 L 0 816.5 L 0 807.601 L 0 750.452 L 0 738.494 L 0 624.209 L 0 615.071 L 0 0 z" fill="rgb(251,199,176)" transform="translate(0,0)"></path>
<path d="M 0 0 L 2688 0 L 2688 471.727 L 2688 480.922 L 2688 592.581 L 2688 602.614 L 2688 726.162 L 2688 735.222 C 2365.17 699.584 2040.77 679.966 1715.99 676.44 C 1651.78 675.639 1587.56 675.856 1523.35 677.088 C 1489.43 677.68 1448.93 677.262 1415.87 681.51 C 1301.36 696.226 1133.61 739.604 1040.77 811.804 C 1100.13 815.77 1159.45 820.231 1218.73 825.188 C 1242.55 827.135 1279.13 828.992 1301.64 832.294 L 1301.79 783.256 C 1312.79 780.147 1323.91 777.498 1335.13 775.313 C 1341.29 777.213 1353.59 780.598 1358.63 783.492 C 1359.73 786.44 1359.9 786.887 1360.41 789.976 C 1366.22 792.519 1455.71 796.684 1465.36 795.941 C 1467.66 792.893 1467.01 793.809 1468.4 790.109 C 1480.99 784.084 1506.76 781.231 1520.25 787.9 C 1528.26 791.859 1528.38 788.924 1529.75 798.786 C 1532.41 800.09 1650.04 806.397 1662.64 805.152 C 1667.29 798.381 1659.2 795.27 1674.26 792.324 C 1684.01 790.416 1694.84 789.37 1704.6 787.581 C 1712.24 790.26 1724.81 794.265 1731.59 797.776 L 1731.54 818.929 C 1785.82 822.711 1845.66 825.742 1899.51 830.927 L 1899.47 810.046 C 1939.43 801.836 1940.14 798.673 1977.53 813.395 L 1977.56 833.362 L 2192.1 862.811 L 2191.84 840.63 C 2235.1 830.731 2234.24 828.404 2274.94 844.25 L 2274.96 865.755 C 2357.24 881.575 2439.43 897.843 2521.53 914.561 C 2523.95 916.739 2522.98 916.497 2524.83 918.54 C 2525.44 917.699 2525.9 917.184 2526.63 915.969 C 2531.19 911.792 2587.76 900.572 2595.81 901.536 C 2613.44 903.647 2646.87 914.318 2664.42 920.402 C 2665.79 984.645 2664.12 1048.91 2664.63 1112.99 L 2588.22 1129.99 C 2570.3 1123.18 2543.38 1113.58 2526.62 1105.76 L 2249.98 1172.98 L 2249.5 1208.26 C 2221.89 1214.7 2194.09 1220.06 2166.45 1226.55 C 2146.74 1219.09 2125.28 1211 2105.98 1202.54 C 2105.26 1191.46 2105.88 1178.85 2106.17 1167.64 C 2036.11 1182.49 1964.72 1194.37 1894.46 1208.65 C 1868.02 1214.03 1840.34 1218.41 1814.12 1224.36 C 1813.99 1248.61 1814.53 1277.52 1813.65 1301.42 C 1782.91 1309.13 1751.05 1315.37 1720 1322.8 C 1699.46 1316.29 1672.33 1304.12 1652.31 1295.53 L 1652.66 1265.45 L 1326.45 1343.57 L 1326.33 1425.71 C 1289.62 1434.39 1252.28 1442.45 1215.7 1451.37 C 1192.32 1442.91 1165.81 1431.58 1142.78 1421.68 L 1142.58 1381.38 L 925.527 1436.71 C 876.067 1449.33 824.98 1461.64 775.808 1474.9 C 775.601 1505.14 776.141 1537.2 775.452 1567.2 L 651.694 1597.26 C 637.035 1592.19 586.202 1570.72 572.585 1563.31 L 572.637 1519.91 C 486.17 1542.95 399.887 1566.67 313.793 1591.06 L 209.145 1620.02 C 192.073 1624.76 169.681 1630.29 153.32 1635.74 C 153.057 1669.12 153.077 1702.51 153.382 1735.89 C 115.457 1746.62 75.9673 1754.11 37.7104 1763.9 C 24.9695 1767.16 12.0485 1772.33 0 1766.54 L 0 1445.25 L 0 1413.08 L 0 1403 L 0 816.5 L 0 807.601 L 0 750.452 L 0 738.494 L 0 624.209 L 0 615.071 L 0 0 z" fill="rgb(25,23,24)" transform="translate(0,0)"></path>
<path d="M 0 0 L 2688 0 L 2688 471.727 C 2653.61 462.127 2609.8 456.046 2574.2 450.012 C 2382.23 417.48 2193.35 435.661 2007.55 493.752 C 1963.09 482.568 1918.82 470.649 1874.76 457.998 C 1850.3 450.833 1826.23 442.401 1801.46 436.378 C 1670.63 404.57 1518.74 404.712 1392.6 456.957 L 1281.88 433.862 C 1255.28 443.512 1228.8 453.459 1202.43 463.701 C 1171.32 475.571 1148.15 482.772 1119.51 500.195 C 1058.53 498.756 985.386 481.512 926.682 465.84 C 905.933 460.301 884.802 451.991 863.747 446.663 C 828.052 437.995 791.88 431.43 755.416 427.001 C 578.214 406.199 455.311 453.649 293.248 514.803 C 196.923 551.151 98.9416 586.856 0 615.071 L 0 0 z" fill="rgb(186,209,249)" transform="translate(0,0)"></path>
<path d="M 406.459 129.179 C 475.258 125.454 562.008 140.774 594.461 209.349 C 611.21 210.467 631.097 214.171 643.83 225.502 C 657.267 237.46 658.22 259.535 644.477 271.561 C 609.758 301.941 558.503 296.999 515.743 296.949 L 438.291 296.804 L 326.192 296.842 C 302.218 296.843 278.711 298.084 253.484 294.521 C 224.26 290.256 169.235 267.007 197.306 229.579 C 208.984 214.007 237.066 210.401 254.896 209.066 C 282.154 150.01 346.706 134.384 406.459 129.179 z" fill="rgb(25,23,24)" transform="translate(0,0)"></path>
<path d="M 410.588 138.369 C 460.366 134.516 531.64 148.895 565.427 188.194 C 569.36 191.117 578.784 215.433 581.237 216.417 C 606.369 226.5 628.641 211.572 639.109 248.223 C 627.328 293.153 561.372 287.841 525.55 287.814 L 435.094 287.667 L 324.584 287.795 C 288.707 287.82 244.05 292.025 214.702 266.727 C 204.189 257.665 203.169 241.054 213.956 231.556 C 229.409 217.949 249.484 219.162 268.587 219.35 C 289.785 158 351.661 142.502 410.588 138.369 z" fill="rgb(247,241,224)" transform="translate(0,0)"></path>
<path d="M 1329.14 129.162 C 1390.16 122.501 1489.7 145.777 1515.22 209.853 C 1520.98 209.953 1526.72 210.534 1532.39 211.591 C 1552.33 215.24 1563.33 222.567 1574.66 238.728 L 1574.77 239.707 C 1582.65 303.351 1475.36 296.962 1436.98 296.919 L 1360.41 296.782 L 1247.37 296.9 C 1206.52 296.918 1158.52 301.253 1124.28 274.077 C 1109.62 262.44 1105.29 242.018 1119.85 228.256 C 1135.69 213.286 1155.28 210.073 1176.11 209.754 C 1199.63 150.612 1272.21 133.561 1329.14 129.162 z" fill="rgb(25,23,24)" transform="translate(0,0)"></path>
<path d="M 1328.55 138.567 L 1330.86 138.404 C 1381.57 134.948 1454.7 148.573 1488.34 191.075 C 1492.2 194.391 1499.51 215.845 1502.48 217.281 C 1510.68 220.322 1520.42 220.176 1529.25 221.064 C 1553.12 223.465 1571.03 248.597 1549.87 267.863 C 1529.9 286.035 1498.3 288.075 1472.52 287.741 C 1460.03 287.58 1446.74 287.754 1433.94 287.749 L 1357.78 287.669 L 1248.02 287.715 C 1217.47 287.712 1132.91 294.838 1127.43 247.541 C 1126.7 241.187 1131.51 236.187 1135.53 231.855 C 1149.04 217.275 1172.41 219.201 1190.89 219.332 C 1202.94 161.16 1278.05 142.256 1328.55 138.567 z" fill="rgb(247,241,224)" transform="translate(0,0)"></path>
<path d="M 2247.4 129.129 C 2310.34 123.971 2407.92 143.349 2434.08 209.597 C 2451.02 210.923 2470.44 214.228 2483.64 225.57 C 2496.71 236.798 2498.65 258.511 2485.46 270.463 C 2450.38 302.262 2399.93 297.072 2356.25 296.965 L 2280.47 296.755 L 2167.28 296.837 C 2126.49 296.85 2079.71 301.195 2045.41 274.697 C 2031.68 264.093 2024.59 245.682 2037.12 231.286 C 2052.42 213.692 2073.77 210.668 2095.55 209.526 C 2122.07 149.713 2187.9 134.642 2247.4 129.129 z" fill="rgb(25,23,24)" transform="translate(0,0)"></path>
<path d="M 2250.5 138.361 C 2305.23 132.051 2405.99 154.803 2419.48 219.059 C 2436.09 219.272 2453.95 218.563 2467.71 229.486 C 2480.98 239.598 2481.91 254.913 2469.59 266.405 C 2440.73 293.343 2391.11 287.784 2354.47 287.767 L 2277.84 287.676 L 2169.77 287.757 C 2146.17 287.76 2120.44 288.917 2097.11 285.338 C 2083.45 283.241 2068.06 277.314 2057.54 268.37 C 2046.26 258.771 2042.53 242.718 2054.86 232.22 C 2070.6 217.511 2090.31 219.155 2109.88 219.249 L 2110.3 217.847 L 2111.03 215.517 C 2128.5 158.397 2198.29 142.307 2250.5 138.361 z" fill="rgb(247,241,224)" transform="translate(0,0)"></path>
<path d="M 7.4607e-14 816.5 C 391.813 793.021 784.807 797.723 1175.95 830.568 C 1192.96 831.866 1295.86 839.074 1300.43 841.968 C 1301.5 845.651 1301.27 846.585 1301.24 850.384 C 1308.22 861.752 1345.67 862.558 1358.02 856.297 C 1358.84 854.118 1359.36 852.575 1360 850.339 C 1367.62 849.497 1457.77 857.985 1465.12 860.594 C 1469.23 868.38 1459.79 869.197 1475.46 874.886 C 1490.99 880.526 1512.86 883.206 1528.28 875.4 C 1529.52 871.792 1529.38 871.676 1529.55 867.803 C 1534.95 865.174 1646.34 876.955 1663.77 878.434 L 1663.98 893.803 C 1680.9 899.029 1713.81 911.586 1729.82 899.02 C 1730.24 896.218 1730.66 893.645 1731.19 890.863 C 1735.97 888.548 1882.43 908.246 1899.28 910.033 C 1899.23 913.942 1898.25 921.15 1901.11 923.962 C 1913.06 935.677 1962.57 943.753 1974.91 932.054 L 1975.87 927.032 C 1979.93 925.338 2187.63 957.849 2191.41 961.073 C 2192.87 966.854 2190.94 971.953 2194.17 973.447 C 2207.03 979.392 2226.16 984.441 2239.49 988.747 C 2270.54 974.23 2290.1 974.242 2322.12 984.364 C 2301.07 988.299 2246.87 1002.35 2231.39 995.432 C 2181.05 972.95 2159.41 985.586 2105.89 996.325 L 2105.91 1033.31 L 1911.81 1063.37 C 1887.72 1067.12 1837.81 1076.23 1815.82 1077.62 C 1812.55 1073.87 1814.71 1069.82 1811.27 1068.86 C 1798.28 1065.23 1749.96 1048.26 1739.44 1048.66 C 1716.82 1049.5 1674.92 1059.18 1652.43 1064.16 C 1652.49 1078.96 1652.73 1094.19 1652.47 1108.95 L 1459.7 1144.42 L 1384.68 1158.03 C 1370.45 1160.67 1355.18 1163.47 1341.13 1166.13 C 1327.27 1170.89 1325.3 1159.76 1317.94 1157.73 C 1297.54 1152.12 1276.78 1145.95 1256.59 1139.4 C 1236.32 1132.82 1222.01 1138.11 1201.91 1142.31 L 1143.03 1154.67 L 1143.06 1205.58 L 883.926 1261.85 C 861.684 1266.63 839.473 1271.54 817.296 1276.61 C 783.247 1284.25 785.315 1287.06 751.656 1274.09 C 734.443 1267.45 701.331 1259.45 682.142 1254.52 C 661.34 1257.34 591.551 1270.63 573.015 1276.75 C 572.658 1295.78 572.568 1314.81 572.747 1333.84 C 482.926 1354.72 392.989 1375.1 302.941 1394.98 L 211.117 1415.84 C 195.08 1419.48 170.968 1425.6 155.436 1427.46 C 152.813 1424.59 153.737 1425.74 152.551 1421.59 C 139.102 1413.13 83.3011 1404.82 65.4719 1397.54 C 47.9503 1390.39 27.9517 1396.63 9.5502 1400.81 L 0 1403 L 0 816.5 z" fill="rgb(251,199,176)" transform="translate(0,0)"></path>
<path d="M 485.209 865.512 C 558.885 861.416 684.559 887.598 732.158 945.979 C 800.495 948.663 884.822 969.73 931.196 1024 C 942.755 1037.52 947.295 1051.57 951.016 1068.66 C 949.422 1070.97 947.65 1073.15 945.717 1075.19 C 925.822 1095.73 678.715 1102.73 639.526 1097.07 C 606.206 1092.25 566.238 1098.03 532.547 1098.76 C 497.197 1099.95 438.524 1099.38 403.138 1091.3 C 399.927 1090.57 395.235 1086.19 392.731 1083.89 C 363.126 1085.67 333.543 1087.32 303.874 1087.28 C 270.094 1087.24 93.8811 1081.55 70.6803 1065.72 C 67.544 1063.59 65.3211 1060.88 64.6998 1057 C 62.6004 1043.89 74.7822 1024.3 82.8242 1014.43 C 128.68 958.119 205.828 941.95 274.174 934.739 C 329.243 885.35 413.28 868.632 485.209 865.512 z" fill="rgb(25,23,24)" transform="translate(0,0)"></path>
<path d="M 270.694 944.231 C 275.146 943.667 286.875 943.233 291.813 943.239 C 369.256 943.333 440.758 955.489 497.926 1010.04 C 459.552 1013.82 400.465 1030.92 391.432 1074.69 C 366.116 1077.5 335.558 1078.37 310.078 1078.74 C 280.348 1079.42 99.1961 1071.68 83.9511 1060.82 C 81.5354 1059.1 80.927 1057.84 80.665 1054.96 C 79.6053 1043.29 92.7487 1023.81 100.074 1015.12 C 140.5 967.138 210.903 949.549 270.694 944.231 z" fill="rgb(172,201,98)" transform="translate(0,0)"></path>
<path d="M 703.624 954.774 C 763.571 954.567 820.11 962.663 873.414 992.439 C 900.496 1008.08 926.377 1029.85 933.319 1061.84 C 935.343 1067.05 931.235 1074.27 925.317 1075 C 872.11 1081.56 816.33 1086.72 762.89 1089.31 C 731.493 1090.56 700.061 1090.66 668.657 1089.6 C 658.712 1089.32 639.183 1089.17 630.072 1086.96 L 629.063 1085.15 C 633.44 1073.96 630.185 1064.01 623.259 1054.48 C 601.389 1024.38 564.33 1016.39 529.863 1010.22 C 579.587 970.981 641.511 957.311 703.624 954.774 z" fill="rgb(172,201,98)" transform="translate(0,0)"></path>
<path d="M 480.502 874.71 C 481.228 874.668 481.955 874.636 482.682 874.615 C 561.679 871.677 655.605 890.769 714.827 945.594 C 639.187 947.27 587.821 958.421 523.506 999.176 L 513.121 1007.97 C 510.816 1005.31 508.432 1002.72 505.974 1000.2 C 454.885 948.498 364.18 934.3 294.141 934.305 C 339.209 894.546 421.856 877.65 480.502 874.71 z" fill="rgb(125,160,59)" transform="translate(0,0)"></path>
<path d="M 492.815 1020.27 C 525.346 1017.17 561.552 1021.17 589.017 1039.99 C 600.456 1047.83 623.871 1069.03 611.628 1083.58 C 601.675 1089.15 544.819 1089.36 531.234 1089.7 C 499.955 1090.07 444.731 1090.72 412.501 1083.9 C 401.766 1081.63 411.363 1061.7 416.822 1055.07 C 435.127 1032.83 465.37 1023.9 492.815 1020.27 z" fill="rgb(87,114,41)" transform="translate(0,0)"></path>
<path d="M 0 624.209 L 1.56611 623.935 C 34.9205 617.809 99.4975 595.592 133.778 583.837 C 201.151 560.015 268.272 535.486 335.13 510.254 C 460.401 463.674 560.138 426.525 696.685 431.521 C 746.676 433.513 796.353 440.386 845.007 452.044 C 870.014 458.071 894.166 466.705 918.871 473.497 C 979.319 490.114 1043.46 505.011 1106.3 508.263 L 1038.24 549.396 C 1024.68 557.553 1007.4 567.296 995.033 576.481 C 1030.86 593.815 1021.93 589.691 1055.38 574.253 L 1055.51 687.641 C 1004.87 692.794 955.847 696.786 905.066 703.333 C 827.001 713.488 749.553 727.922 673.071 746.572 C 672.056 732.598 670.399 723.319 658.806 713.531 C 623.003 683.303 535.598 684.87 500.144 712.736 C 471.576 702.024 459.306 703.501 429.435 706.662 C 386.621 635.144 245.774 632.671 180.707 672.133 C 170.95 678.05 165.058 683.671 156.88 691.452 C 126.463 687.928 74.3917 687.063 65.8732 725.184 C 40.0892 728.959 25.2618 731.137 0 738.494 L 0 624.209 z" fill="rgb(172,201,98)" transform="translate(0,0)"></path>
<path d="M 164.385 702.63 C 177.568 688.135 189.195 677.687 207.848 670.161 C 266.172 646.628 344.631 650.337 396.952 687.041 C 406.872 693.488 415.307 718.175 427.546 716.816 C 450.624 714.254 476.399 708.171 496.485 724.008 C 507.923 733.027 500.11 752.615 503.717 761.436 C 510.724 765.505 521.922 763.196 530.216 763.884 C 562.166 766.532 588.3 774.026 613.302 794.135 C 474.787 791.591 336.229 792.716 197.774 797.509 C 156.261 798.971 114.765 800.908 73.2962 803.318 C 49.9011 804.664 23.1066 806.967 0 807.601 L 0 750.452 C 37.4623 736.152 43.114 738.693 80.4729 732.907 C 86.0798 692.146 131.12 696.275 161.799 702.131 L 164.385 702.63 z" fill="rgb(172,201,98)" transform="translate(0,0)"></path>
<path d="M 2025.94 497.659 C 2265.66 429.506 2444.79 426.039 2688 480.922 L 2688 592.581 C 2680.98 593.971 2671.8 596.925 2664.71 598.994 C 2642.34 530.147 2525.63 517.329 2465.54 528.281 C 2445.16 531.996 2429.44 538.605 2410.14 545.463 C 2401.03 548.696 2383.43 547.281 2373.37 549.698 C 2365.64 550.832 2336.53 557.165 2331.25 556.585 C 2302.59 553.43 2271.95 548.791 2243.55 544.015 C 2200.57 536.801 2157.77 528.537 2115.19 519.23 C 2086.52 513.111 2053.95 506.3 2025.94 497.659 z" fill="rgb(172,201,98)" transform="translate(0,0)"></path>
<path d="M 2287.95 607.046 C 2312.6 572.25 2344.77 561.46 2386.19 556.743 C 2391.77 555.687 2410.82 557.406 2415.35 555.203 C 2451.31 537.716 2482.63 532.166 2523.57 534.199 C 2563.55 536.183 2614.97 548.876 2641.24 582.68 C 2648.04 591.419 2646.99 605.222 2653.33 612.157 C 2660.61 614.328 2675.55 605.782 2686.08 603.096 L 2688 602.614 L 2688 726.162 L 2523.91 709.68 C 2524.34 681.641 2512.63 660.739 2490.03 644.765 C 2432.28 603.948 2356.21 597.037 2287.95 607.046 z" fill="rgb(172,201,98)" transform="translate(0,0)"></path>
<path d="M 0 1413.08 C 5.06222 1412 9.86987 1410.55 15.0757 1409.51 L 21.6461 1408.15 L 28.2047 1406.75 C 46.4575 1402.97 42.9267 1401.37 61.1158 1406.54 C 77.5576 1411.21 95.0115 1415.22 111.59 1419.75 L 127.261 1424.19 C 88.5154 1432.88 49.4899 1441.84 10.6592 1450.06 C 7.06996 1448.53 3.61946 1446.72 0 1445.25 L 0 1413.08 z" fill="rgb(247,241,224)" transform="translate(0,0)"></path>
<path d="M 2521.53 914.561 C 2523.95 916.739 2522.98 916.497 2524.83 918.54 C 2525.44 917.699 2525.9 917.184 2526.63 915.969 C 2526.98 923.975 2526.11 931.906 2526.43 939.736 C 2526.59 943.593 2524.32 949.621 2523.34 946.879 C 2520.73 939.583 2523.48 927.301 2522.19 918.756 L 2521.53 914.561 z" fill="rgb(196,153,135)" transform="translate(0,0)"></path>
<path d="M 1410.8 460.898 C 1539.34 414.429 1664.41 413.348 1796.62 445.019 C 1821.84 451.291 1846.31 460.195 1871.32 467.231 C 1912.59 478.84 1954.05 489.845 1995.57 500.53 C 2099.59 527.603 2205.09 548.628 2311.54 563.499 L 2315.88 564.755 L 2315.29 566.538 L 2309.13 569.588 C 2308.39 570.294 2293.48 579.83 2291.7 580.978 C 2266.31 573.93 2239.79 571.885 2213.61 574.955 C 2183.99 578.286 2153.27 587.803 2134.12 612.019 C 2084.84 610.044 1993.57 616.86 1974.4 673.44 C 1879.33 671.395 1787.46 668.137 1692.06 667.573 L 1692.47 585.464 C 1698.84 585.43 1708.85 586.676 1712.9 581.496 C 1712.52 580.375 1712.17 579.081 1711.4 578.441 C 1700.62 569.5 1679.08 556.714 1667.57 549.782 C 1640.63 533.564 1609.12 511.835 1581.93 497.586 C 1573.96 493.407 1526.77 484.488 1515.24 482.189 C 1480.82 475.33 1445.16 467.125 1410.8 460.898 z" fill="rgb(172,201,98)" transform="translate(0,0)"></path>
<path d="M 1281.37 463.11 C 1290.34 464.354 1307.75 473.368 1317.02 476.363 C 1380.62 496.893 1428.91 528.852 1485.83 563.54 L 1485.94 668.996 C 1446.02 669.454 1405.11 671.616 1364.89 672.449 C 1364.95 662.814 1366.91 616.402 1362.44 611.485 C 1350.59 607.197 1280.83 608.903 1263.28 608.965 C 1249.26 609.102 1235.24 609.067 1221.22 608.86 C 1214.87 608.709 1187.98 606.169 1185.74 611.749 C 1179.69 626.805 1182.6 662.556 1182.78 679.59 C 1147.12 680.635 1106.96 684.102 1071.2 686.492 L 1071.23 563.845 C 1093.5 549.538 1148.65 515.483 1170.12 505.887 C 1201 492.093 1248.8 475.284 1281.37 463.11 z" fill="rgb(232,81,85)" transform="translate(0,0)"></path>
<path d="M 1240.28 517.206 C 1264.49 516.973 1297.02 516.433 1320.81 517.465 C 1321.25 526.951 1323.14 555.988 1318.58 562.51 C 1301.82 563.835 1258.29 563.621 1240.27 561.551 C 1235.13 560.96 1236.21 522.972 1239.15 518.872 L 1240.28 517.206 z" fill="rgb(25,23,24)" transform="translate(0,0)"></path>
<path d="M 1252.91 525.419 C 1270.3 525.624 1287.69 525.648 1305.08 525.493 L 1305.04 553.922 C 1287.79 554.19 1270.19 554.063 1252.9 554.091 L 1252.91 525.419 z" fill="rgb(232,81,85)" transform="translate(0,0)"></path>
<path d="M 1292.12 683.622 C 1305.63 681.552 1336.66 680.972 1350.35 681.532 L 1349.37 683.807 C 1341.97 683.887 1337.98 686.017 1331.28 686.338 C 1218.2 710.951 1117.25 741.772 1022.84 810.458 C 921.635 804.703 820.366 800.099 719.055 796.647 C 724.157 770.573 717.965 762.87 695.533 750.887 C 853.869 710.94 1024.36 697.362 1187.33 688.063 C 1221.33 686.123 1258.21 683.546 1292.12 683.622 z" fill="rgb(251,199,176)" transform="translate(0,0)"></path>
<path d="M 1292.12 683.622 C 1305.63 681.552 1336.66 680.972 1350.35 681.532 L 1349.37 683.807 C 1341.97 683.887 1337.98 686.017 1331.28 686.338 C 1324.71 680.501 1307.29 685.135 1292.12 683.622 z" fill="rgb(196,153,135)" transform="translate(0,0)"></path>
<path d="M 134.387 1428.36 L 136.075 1428.89 C 138.101 1435.73 136.673 1490.77 136.689 1501.33 L 136.91 1730.48 L 18.4829 1758.4 L 16.1508 1756.76 C 14.6898 1656.99 15.8493 1555.06 15.7194 1455.09 C 54.433 1445.64 95.4162 1437.1 134.387 1428.36 z" fill="rgb(247,241,224)" transform="translate(0,0)"></path>
<path d="M 755.542 1289.31 C 756.983 1288.92 757.315 1289.22 758.992 1289.49 C 761.322 1295.13 759.737 1534.81 759.783 1560.61 C 731.561 1569.24 689.956 1578.23 660.628 1585.46 C 659.208 1585.43 658.456 1585.03 657.031 1584.59 C 655.729 1577.34 656.536 1514.87 656.543 1504.75 L 656.462 1310.52 C 680.92 1303.86 730.61 1293.96 755.542 1289.31 z" fill="rgb(247,241,224)" transform="translate(0,0)"></path>
<path d="M 568.821 1400.64 L 571.309 1400.73 C 574.458 1405.1 572.925 1445.33 572.827 1453.79 C 437.634 1492.6 295.228 1529.33 159.103 1565.8 L 154.835 1566.92 C 151.955 1563.91 152.996 1506.63 153 1497.87 C 200.775 1487.42 250.57 1474.73 298.41 1463.53 L 568.821 1400.64 z" fill="rgb(251,199,176)" transform="translate(0,0)"></path>
<path d="M 1306.36 1168.46 C 1308.15 1168.44 1307.03 1168.31 1309.57 1169.54 C 1310.78 1175.04 1310.01 1230.24 1310.01 1240.12 C 1310.35 1300.09 1310.32 1360.06 1309.92 1420.03 C 1281.64 1425.84 1252.07 1433.02 1223.8 1439.46 L 1221.5 1438.27 C 1220.3 1432.73 1220.83 1376.44 1220.84 1366.69 L 1220.73 1185.91 L 1306.36 1168.46 z" fill="rgb(247,241,224)" transform="translate(0,0)"></path>
<path d="M 613.677 1335.14 C 619.76 1334.33 617.199 1333.69 621.976 1335.74 C 626.415 1342.38 624.218 1367.38 623.976 1377.25 C 574.46 1388.05 520.416 1402.11 470.647 1413.76 L 163.076 1485.52 C 158.568 1486.54 156.706 1487.61 153.263 1485.8 C 151.841 1476.23 152.446 1449.89 152.475 1438.98 L 464.086 1368.64 C 513.888 1357.2 563.753 1346.04 613.677 1335.14 z" fill="rgb(247,241,224)" transform="translate(0,0)"></path>
<path d="M 622.229 1450.7 C 625.433 1455.2 624.445 1487.39 624.498 1495.1 C 570.509 1508.36 511.121 1526.46 456.828 1541.5 L 155.874 1624.58 C 154.646 1624.35 155.506 1624.6 153.771 1622.9 C 152.632 1609.88 153.2 1591.1 153.216 1577.65 L 622.229 1450.7 z" fill="rgb(247,241,224)" transform="translate(0,0)"></path>
<path d="M 2323.23 612.181 C 2375.02 607.704 2493.93 626.315 2507.49 695.323 C 2508.24 699.169 2508 704.051 2505.45 707.144 C 2497.05 708.17 2468.05 704.975 2457.69 704.06 C 2432 701.773 2406.29 699.692 2380.56 697.817 C 2316.93 689.124 2247.75 691.42 2184.03 683.471 C 2178.12 682.733 2190.43 666.967 2191.82 665.278 C 2222.02 628.514 2278.36 616.036 2323.23 612.181 z" fill="rgb(87,114,41)" transform="translate(0,0)"></path>
<path d="M 1139.43 1268.24 L 1141.75 1268.74 C 1143.45 1273.65 1142.98 1311.84 1143 1319.67 C 1103.61 1330.98 1057.45 1341.3 1017.33 1351.23 L 778.779 1410.17 L 777.483 1410.26 C 774.065 1405.97 775.535 1359.67 775.576 1350.71 C 810.937 1344.64 863.663 1330.88 900.037 1322.51 L 1139.43 1268.24 z" fill="rgb(251,199,176)" transform="translate(0,0)"></path>
<path d="M 1186.93 1206.49 L 1187.83 1206.68 C 1191.76 1211.21 1190 1239.4 1189.91 1247.29 C 1143.65 1256.34 1093.92 1268.61 1047.5 1279.11 L 779.914 1340.28 L 777.105 1339.98 C 774.494 1335.55 775.73 1302.7 775.818 1295.41 L 999.409 1246.56 C 1061.79 1232.6 1124.29 1219.24 1186.93 1206.49 z" fill="rgb(247,241,224)" transform="translate(0,0)"></path>
<path d="M 1648.77 1163.36 C 1650.29 1163.11 1649.23 1163.19 1651.92 1163.85 C 1653.74 1169.61 1653.08 1202.05 1653.06 1210.58 C 1548.31 1236.86 1435.65 1260.87 1329.98 1284.51 L 1328.34 1284.34 C 1325.59 1279.83 1326.71 1233.98 1326.76 1225.04 C 1432.6 1205.52 1543.31 1180.69 1648.77 1163.36 z" fill="rgb(251,199,176)" transform="translate(0,0)"></path>
<path d="M 1185.65 1319.28 C 1188.77 1319.07 1187.69 1318.86 1190.44 1320.28 C 1192.72 1327.82 1191.57 1349.48 1191.36 1358.67 C 1153.26 1370.63 1095.31 1383.21 1055.57 1393.36 L 781.262 1463.41 C 777.995 1464.26 779.543 1464.43 776.606 1463 C 774.381 1455.11 775.292 1430.85 775.405 1421.16 L 1185.65 1319.28 z" fill="rgb(247,241,224)" transform="translate(0,0)"></path>
<path d="M 1792.82 1077.9 L 1796.12 1077.65 C 1796.59 1078.32 1797.06 1078.99 1797.54 1079.66 C 1796.99 1139.61 1797.27 1239.38 1797.09 1295.88 C 1774.32 1300.51 1751.63 1305.5 1729.02 1310.84 L 1726.3 1310.62 C 1722.83 1304.15 1724.7 1114.21 1724.79 1091.37 C 1747.53 1087.23 1770.21 1082.74 1792.82 1077.9 z" fill="rgb(247,241,224)" transform="translate(0,0)"></path>
<path d="M 1501.73 573.847 C 1508.83 576.327 1520.11 587.126 1527.7 588.396 C 1537.72 590.073 1542.45 581.359 1555.09 581.719 C 1595.58 582.874 1636.12 584.029 1676.6 585.204 C 1676.55 611.184 1676.74 637.164 1677.17 663.14 C 1677.07 666.319 1677.55 664.868 1675.69 667.484 C 1620.07 668.859 1558.3 667.657 1501.81 668.222 L 1501.73 573.847 z" fill="rgb(165,61,58)" transform="translate(0,0)"></path>
<path d="M 2220.36 583.238 C 2240.35 580.698 2265.66 583.569 2284.96 589.238 C 2277.9 596.834 2275.57 601.163 2271.7 610.529 C 2229.22 620.862 2183.25 639.377 2166.07 682.796 C 2130.92 681.414 2095.78 679.669 2060.67 677.561 C 2037.86 677.224 2011.78 675.279 1988.67 674.267 C 2015.44 620.114 2092.62 619.487 2144.05 621.552 C 2166.07 593.663 2185.54 587.483 2220.36 583.238 z" fill="rgb(172,201,98)" transform="translate(0,0)"></path>
<path d="M 1691.3 1211.55 C 1694.33 1211.39 1693.4 1211.42 1696.46 1212.23 C 1699.84 1218.64 1698.5 1236.73 1698.28 1244.49 L 1333.81 1331.41 C 1333.32 1331.58 1329.56 1331.97 1328.92 1332.04 C 1324.8 1327.04 1326.41 1303.05 1326.42 1294.99 C 1380.32 1284.07 1437.52 1270.06 1491.31 1257.67 L 1691.3 1211.55 z" fill="rgb(247,241,224)" transform="translate(0,0)"></path>
<path d="M 1687.28 1112.07 C 1691.53 1111.28 1691.48 1111.13 1695.7 1111.67 C 1701.67 1117.98 1699.18 1134.2 1698.95 1143.88 L 1340.08 1213.1 L 1326.41 1215.45 L 1326.83 1178.14 C 1446.37 1156.32 1567.92 1132.47 1687.28 1112.07 z" fill="rgb(247,241,224)" transform="translate(0,0)"></path>
<path d="M 2103.01 1082.02 L 2105 1082.86 C 2106.4 1090.01 2105.69 1111.37 2105.63 1119.7 L 1816.8 1173.17 L 1815.42 1172.95 C 1812.06 1168.11 1813.65 1135.8 1813.75 1127.86 C 1908.58 1111.04 2007.68 1096.42 2103.01 1082.02 z" fill="rgb(251,199,176)" transform="translate(0,0)"></path>
<path d="M 1360.09 459.565 L 1500.51 488.598 C 1522.75 493.196 1554.54 498.568 1575.26 506.182 C 1581.43 508.448 1606.74 524.969 1613.68 529.368 C 1636.51 543.973 1659.48 558.359 1682.59 572.526 C 1685.98 574.073 1689.07 576.567 1682.92 576.749 C 1642.98 574.38 1596.9 574.152 1556.45 573.064 C 1512.45 543.253 1460.28 515.541 1415.21 486.548 C 1404.69 479.782 1372.07 468.642 1358.78 463.57 L 1360.09 459.565 z" fill="rgb(232,81,85)" transform="translate(0,0)"></path>
<path d="M 1682.59 572.526 C 1685.98 574.073 1689.07 576.567 1682.92 576.749 L 1682.59 572.526 z" fill="rgb(232,81,85)" transform="translate(0,0)"></path>
<path d="M 2232.44 1009.65 C 2235.01 1013.19 2233.65 1179.33 2233.71 1202.55 C 2213.68 1206.41 2193.69 1210.54 2173.77 1214.95 C 2170.74 1210.64 2171.69 1043.64 2171.65 1022.3 L 2232.44 1009.65 z" fill="rgb(247,241,224)" transform="translate(0,0)"></path>
<path d="M 562.695 701.351 C 584.944 696.216 631.21 702.947 647.691 720.546 C 657.371 730.882 657.05 737.039 656.379 749.935 C 677.473 755.821 717.085 761.259 702.038 794.761 C 700.887 797.322 661.051 795.266 654.609 795.175 L 630.724 794.749 C 600.399 763.698 560.09 756.172 518.455 754.318 C 522.351 729.972 513.128 729.29 513.751 718.51 C 521.792 708.361 550.187 702.982 562.695 701.351 z" fill="rgb(125,160,59)" transform="translate(0,0)"></path>
<path d="M 2144.16 1122.58 C 2146.53 1122.59 2145.28 1122.28 2147.69 1124.11 C 2149.03 1131.9 2148.32 1142.11 2148.08 1150.24 L 1818.13 1213.6 L 1815.26 1213.7 C 1812.14 1209.61 1813.46 1189.95 1813.58 1183.37 C 1921.63 1162.67 2035.72 1140.8 2144.16 1122.58 z" fill="rgb(247,241,224)" transform="translate(0,0)"></path>
<path d="M 2644.31 928.497 C 2646.08 928.013 2644.97 928.129 2647.63 928.975 C 2650.12 935.446 2648.41 1085.54 2648.41 1106.77 C 2631.95 1110.82 2614.46 1114.29 2597.8 1117.82 C 2594.78 1118.17 2596.08 1118.58 2593.84 1116.81 C 2592.5 1102.28 2593.36 1071.32 2593.36 1055.74 L 2593.33 938.466 C 2610.41 934.828 2627.04 931.147 2644.31 928.497 z" fill="rgb(247,241,224)" transform="translate(0,0)"></path>
<path d="M 2139.1 1037.44 C 2144.9 1036.96 2142.79 1036.01 2146.29 1038.79 C 2148.4 1045.86 2147.34 1057.32 2147.19 1065.23 C 2136.95 1067.59 2120.58 1069.54 2109.8 1071.23 L 2039.67 1082.3 L 1820.99 1117.14 L 1816.46 1117.69 L 1814.45 1116.01 C 1812.33 1108.17 1813.5 1096.56 1813.77 1088.02 C 1919.29 1070.14 2033.31 1052.63 2139.1 1037.44 z" fill="rgb(247,241,224)" transform="translate(0,0)"></path>
<path d="M 589.209 1287.87 C 608.093 1295.49 627.068 1302.88 646.131 1310.04 C 647.687 1399.93 646.302 1494 646.112 1584.07 C 627.764 1575.33 607.737 1567.96 588.998 1559.11 L 589.041 1523.48 C 588.948 1519.76 588.939 1519.9 589.971 1516.32 C 596.832 1510.68 628.612 1503.75 640.337 1499.49 C 639.771 1444.88 651.369 1431.95 589.008 1449.74 L 589.014 1396.12 C 604.438 1392.06 625.521 1387.91 639.781 1382.65 L 640.133 1330.83 C 632.923 1327.96 626.103 1325.98 618.688 1323.73 C 609.384 1326.39 598.58 1328.35 588.986 1330.3 C 588.987 1316.16 589.061 1302.01 589.209 1287.87 z" fill="rgb(247,241,224)" transform="translate(0,0)"></path>
<path d="M 1198.28 618.075 C 1246.38 616.854 1300.56 617.897 1349.08 617.836 C 1349.18 626.825 1350.29 665.767 1347.81 672.093 L 1345.34 672.902 C 1296.05 674.375 1246.78 676.295 1197.52 678.662 C 1197.56 658.584 1198.02 638.18 1198.28 618.075 z" fill="rgb(232,81,85)" transform="translate(0,0)"></path>
<path d="M 1159.54 1165.42 C 1176.16 1172.02 1192.74 1178.76 1209.6 1184.74 C 1211.51 1188.94 1212.25 1424.3 1210.25 1437.84 C 1192.92 1431.15 1176.28 1424.7 1159.23 1417.33 L 1158.83 1376.45 C 1171.84 1373.48 1195.95 1368.45 1207.53 1363.51 C 1206.68 1356.23 1206.73 1323.11 1208.43 1316.05 C 1200.54 1311.87 1198.19 1311.14 1189.77 1308.6 C 1178.99 1310.85 1170.12 1313.14 1159.49 1316.11 C 1158.72 1298.74 1158.9 1281.25 1158.89 1263.85 C 1171.33 1261.21 1199.92 1257.16 1207.02 1248.86 C 1204.87 1241.47 1205.15 1211.29 1207.18 1203.8 C 1189.1 1193.51 1178.93 1198.01 1159.58 1202.31 C 1159.3 1190.13 1159.5 1177.62 1159.54 1165.42 z" fill="rgb(247,241,224)" transform="translate(0,0)"></path>
<path d="M 2256.04 872.044 C 2285.08 876.277 2320.31 884.006 2349.35 889.7 L 2506.61 921.031 L 2506.37 945.355 C 2498.42 944.516 2489.16 942.504 2481.3 940.803 C 2406.32 924.572 2330.69 911.049 2255.79 894.537 L 2256.04 872.044 z" fill="rgb(247,241,224)" transform="translate(0,0)"></path>
<path d="M 2568.3 958.515 L 2570 959.024 C 2571.84 962.698 2571.08 970.218 2570.99 974.675 C 2465.61 993.446 2357.64 1015.43 2252.37 1035.94 L 2250.85 1035.2 C 2249.07 1030.86 2249.81 1022.9 2249.93 1017.86 L 2568.3 958.515 z" fill="rgb(247,241,224)" transform="translate(0,0)"></path>
<path d="M 1961.53 840.202 L 2191.81 872.012 L 2191.95 895.115 C 2115.14 882.379 2038.26 870.077 1961.31 858.212 L 1961.53 840.202 z" fill="rgb(247,241,224)" transform="translate(0,0)"></path>
<path d="M 1960.71 897.254 C 1988.53 899.55 2023.45 905.212 2051.65 909.023 L 2191.98 927.8 L 2191.9 950.464 C 2118.63 935.584 2035.41 928.925 1961.94 913.941 L 1960.71 897.254 z" fill="rgb(247,241,224)" transform="translate(0,0)"></path>
<path d="M 2275.21 908.441 L 2435 940.732 C 2444.3 942.632 2482.89 949.572 2487.9 951.703 C 2485.51 954.316 2484.05 953.823 2479.8 954.793 C 2469.55 956.461 2443.07 962.891 2434.03 962.44 C 2417.67 961.622 2391.89 955.844 2375.28 952.613 L 2274.69 933.206 C 2274.67 924.595 2274.76 917.032 2275.21 908.441 z" fill="rgb(251,199,176)" transform="translate(0,0)"></path>
<path d="M 1282.71 443.745 C 1301.59 450.061 1326.84 460.998 1345.87 468.649 C 1363.12 475.581 1394.94 487.489 1410.46 496.107 C 1440.14 512.593 1470.75 533.935 1500.06 551.608 C 1506.18 555.296 1534.11 571.383 1537.76 575.507 C 1535.02 576.486 1531.96 577.963 1529.29 576.712 C 1517.5 571.185 1505.86 562.979 1494.66 556.473 C 1463.57 538.4 1430.35 515.488 1398.92 498.845 C 1373.01 487.019 1346.07 477.371 1319.58 466.91 C 1310.59 463.363 1286.46 451.143 1278.13 453.941 L 1205.48 481.106 C 1191.17 486.503 1166.2 495.22 1153.37 502.46 C 1112.05 525.774 1071.48 551.6 1030.48 575.649 C 1026.18 578.165 1024.15 578.389 1019.9 577.171 L 1018.89 575.009 C 1021.41 572.103 1056.71 551.01 1061.92 547.925 C 1091.61 530.345 1122.39 509.992 1152.93 494.144 C 1164.25 488.271 1190.06 479.391 1203.34 474.347 L 1282.71 443.745 z" fill="rgb(232,81,85)" transform="translate(0,0)"></path>
<path d="M 2568.9 1075.33 C 2570.19 1075.46 2569.25 1075.29 2571.43 1076.62 C 2571.91 1081.09 2572.16 1078.92 2570.26 1083.3 C 2564.66 1088.09 2542.89 1091.97 2534.77 1093.91 L 2469.99 1109.52 L 2252.58 1162.8 L 2250.55 1161.95 C 2243.38 1142.83 2265.27 1143.6 2278.61 1140.67 L 2340.3 1126.99 C 2416.59 1110.18 2492.79 1092.96 2568.9 1075.33 z" fill="rgb(247,241,224)" transform="translate(0,0)"></path>
<path d="M 2259.08 1039.9 C 2270.69 1039.51 2281.69 1034.53 2292.29 1034.71 C 2304.69 1034.92 2319.38 1037.74 2331.85 1039.53 L 2399.79 1049.1 L 2502.47 1062.15 C 2521.12 1064.51 2545.19 1067 2563.34 1070.8 C 2555.66 1072.6 2528.45 1079.74 2522.43 1079.13 C 2454.46 1072.23 2386.44 1062.02 2318.69 1052.91 C 2307.73 1051.44 2272.21 1043.55 2264.15 1044.32 C 2262.45 1042.82 2260.82 1041.35 2259.08 1039.9 z" fill="rgb(247,241,224)" transform="translate(0,0)"></path>
<path d="M 2233.99 841.798 L 2235.56 841.999 C 2237.53 844.88 2236.73 963.696 2236.77 977.072 L 2219.19 971.304 C 2215.17 970.108 2211.07 968.65 2207.09 967.297 C 2209.38 933.89 2207.92 880.765 2208.15 846.105 L 2233.99 841.798 z" fill="rgb(247,241,224)" transform="translate(0,0)"></path>
<path d="M 1977.24 869.861 L 2116.29 892.045 C 2130.09 894.214 2180.94 901.357 2190.23 904.996 C 2192.24 908.678 2191.63 914.216 2191.58 918.666 L 1977.43 889.716 L 1977.24 869.861 z" fill="rgb(251,199,176)" transform="translate(0,0)"></path>
<path d="M 677.978 1264.39 C 683.716 1263.08 740.554 1281.34 750.317 1284.3 C 722.372 1290.88 691.404 1296.76 663.124 1302.66 L 651.808 1305.29 C 632.348 1298.36 612.187 1289.9 592.935 1282.16 C 616.045 1276.07 654.344 1268.3 677.978 1264.39 z" fill="rgb(247,241,224)" transform="translate(0,0)"></path>
<path d="M 1935.72 812.828 C 1936.93 812.709 1939.86 812.399 1939.91 813.141 C 1941.58 834.588 1941.02 911.81 1940.94 928.613 C 1936.08 926.862 1931.21 925.377 1926.3 923.652 C 1922.46 922.48 1918.66 921.201 1914.89 919.818 L 1915.28 816.377 C 1922.01 815.055 1928.94 813.979 1935.72 812.828 z" fill="rgb(247,241,224)" transform="translate(0,0)"></path>
<path d="M 2255.11 939.454 C 2286.63 945.081 2318.11 950.939 2349.54 957.027 C 2362.46 959.476 2391.31 964.276 2402.68 967.876 L 2402.03 969.009 L 2394.05 971.029 C 2385.47 971.879 2357.6 978.765 2351.47 978.291 C 2323.47 976.124 2283.2 966.787 2255.5 960.802 C 2255.11 954.377 2255.21 946.035 2255.11 939.454 z" fill="rgb(247,241,224)" transform="translate(0,0)"></path>
<path d="M 1715.11 1091.79 C 1716.58 1100.25 1716.12 1123.82 1716.15 1133.31 C 1716.23 1162.07 1716.16 1190.83 1715.94 1219.58 C 1715.89 1230.95 1716.66 1271.68 1715.37 1281.04 C 1714.29 1273.51 1715.32 1254.39 1713.01 1250.85 C 1712.14 1245.18 1712.73 1213.34 1713.11 1206.64 C 1693.49 1198.51 1689.44 1202.85 1669.07 1207.4 C 1668.99 1191.42 1669.01 1175.44 1669.12 1159.47 C 1683.46 1156.37 1698.93 1154.15 1712.92 1150.43 C 1712.8 1135.79 1712.84 1121.14 1713.05 1106.5 C 1714.98 1102.68 1714.28 1096.66 1715.11 1091.79 z" fill="rgb(247,241,224)" transform="translate(0,0)"></path>
<path d="M 1715.11 1091.79 C 1716.58 1100.25 1716.12 1123.82 1716.15 1133.31 C 1716.23 1162.07 1716.16 1190.83 1715.94 1219.58 C 1715.89 1230.95 1716.66 1271.68 1715.37 1281.04 C 1714.29 1273.51 1715.32 1254.39 1713.01 1250.85 C 1712.14 1245.18 1712.73 1213.34 1713.11 1206.64 C 1715.79 1202.54 1716.29 1152.72 1712.92 1150.43 C 1712.8 1135.79 1712.84 1121.14 1713.05 1106.5 C 1714.98 1102.68 1714.28 1096.66 1715.11 1091.79 z" fill="rgb(87,78,78)" transform="translate(0,0)"></path>
<path d="M 1730.71 847.558 C 1787.08 850.968 1843.02 857.05 1899.3 861.348 L 1899.29 879.356 C 1863.41 875.007 1827.49 870.965 1791.54 867.229 C 1775.03 865.476 1747.69 863.422 1732.04 860.349 C 1729.94 856.512 1730.63 852.124 1730.71 847.558 z" fill="rgb(251,199,176)" transform="translate(0,0)"></path>
<path d="M 1237.83 1144.86 C 1256.64 1148.27 1283.51 1158.19 1302.18 1164.01 L 1275.08 1169.1 C 1272.02 1169.67 1268.96 1170.27 1265.92 1170.91 C 1252.81 1173.67 1239.34 1175.98 1226.17 1178.55 C 1214.18 1180.74 1217.13 1180.8 1205.13 1176.15 C 1191.6 1170.92 1178.09 1166.29 1164.89 1160.05 C 1173.55 1157.95 1181.71 1156.37 1190.42 1154.61 C 1206.2 1151.26 1222.01 1148.01 1237.83 1144.86 z" fill="rgb(247,241,224)" transform="translate(0,0)"></path>
<path d="M 2580.37 985.539 C 2580.55 985.576 2582.52 985.889 2582.54 986.149 C 2583.56 1002.16 2583.02 1052.01 2583.01 1065.13 C 2572.81 1063.44 2562.69 1062.25 2552.41 1061.14 C 2552.06 1061.08 2547.09 1060.47 2547.04 1059.86 C 2545.63 1042.32 2546.16 1022.91 2546.1 1005.11 C 2557.27 998.161 2568.8 991.803 2580.37 985.539 z" fill="rgb(247,241,224)" transform="translate(0,0)"></path>
<path d="M 1719.45 826.621 C 1760.82 830.734 1805.18 831.794 1846.87 835.777 C 1860.77 837.105 1885.48 837.581 1897.98 840.412 C 1900.25 843.659 1899.57 847.911 1899.56 852.149 C 1862.78 849.893 1824.33 845.363 1787.33 842.871 C 1774.31 841.994 1730.7 839.052 1720.84 836.637 C 1718.74 833.736 1719.38 830.416 1719.45 826.621 z" fill="rgb(247,241,224)" transform="translate(0,0)"></path>
<path d="M 1719.76 868.514 L 1842.66 881.844 C 1853.68 883.08 1888.7 886.314 1897.98 888.953 C 1899.99 892.372 1899.4 896.678 1899.39 900.859 C 1855.54 896.723 1811.21 889.135 1767.3 884.696 C 1752.67 883.217 1736.04 881.619 1721.77 878.863 C 1719.48 875.211 1720.06 873.279 1719.76 868.514 z" fill="rgb(247,241,224)" transform="translate(0,0)"></path>
<path d="M 1713.01 1250.85 C 1715.32 1254.39 1714.29 1273.51 1715.37 1281.04 C 1715.01 1290 1715.36 1300.59 1715.34 1309.71 C 1699.53 1303.93 1683.87 1297.71 1668.4 1291.06 L 1668.4 1261.41 C 1683.27 1257.76 1698.1 1254.63 1713.01 1250.85 z" fill="rgb(247,241,224)" transform="translate(0,0)"></path>
<path d="M 1695.39 798.591 C 1695.71 798.515 1696.02 798.424 1696.35 798.364 C 1697.26 798.196 1698.49 798.135 1699.22 798.832 C 1700.22 799.784 1700.25 801.334 1700.24 802.621 C 1700.19 810.704 1701.21 892.198 1699.48 893.413 C 1697.7 894.665 1691.98 892.165 1690.36 891.729 L 1689.06 891.39 C 1686.02 890.361 1679.82 888.961 1679.81 885.341 C 1679.79 857.409 1679.88 828.258 1679.74 800.465 C 1685.24 799.565 1689.85 799.184 1695.39 798.591 z" fill="rgb(247,241,224)" transform="translate(0,0)"></path>
<path d="M 2157.95 1157.83 C 2161.38 1158.07 2161.5 1158.79 2161.5 1162.16 C 2161.5 1179.53 2161.73 1196.96 2161.72 1214.33 L 2160.19 1213.63 C 2152.59 1210.04 2143.89 1207 2136.02 1203.62 C 2131.22 1201.44 2126.69 1199.65 2121.87 1197.27 C 2121.79 1186.52 2121.77 1175.76 2121.82 1165 C 2133.78 1163 2146.09 1160.37 2157.95 1157.83 z" fill="rgb(247,241,224)" transform="translate(0,0)"></path>
<path d="M 1735.94 1056.84 C 1740 1057.18 1750.27 1060.39 1754.17 1061.73 C 1759.41 1063.49 1764.69 1065.17 1769.98 1066.79 L 1789.02 1072.53 C 1777.25 1075.04 1765.3 1077.81 1753.49 1080.08 L 1728.57 1084.95 C 1714.62 1087.19 1688.95 1074.65 1674.75 1069.28 C 1680.08 1067.96 1684.48 1067.08 1689.85 1066.02 L 1702.98 1063.48 C 1714.02 1061.46 1724.94 1059.07 1735.94 1056.84 z" fill="rgb(247,241,224)" transform="translate(0,0)"></path>
<path d="M 1517.82 808.29 C 1546.39 809.219 1575.59 810.872 1604.2 812.093 C 1621.66 812.839 1645.9 813.243 1662.8 815.41 C 1664.91 818.754 1664.23 822.836 1664.33 827.358 C 1635.25 826.208 1605.22 824.103 1576.11 822.581 C 1562.23 821.856 1532.33 821.004 1519.67 818.577 C 1516.92 815.066 1517.95 813.972 1517.82 808.29 z" fill="rgb(247,241,224)" transform="translate(0,0)"></path>
<path d="M 2387.57 1069.32 C 2395.23 1069.69 2403.51 1071.21 2411.12 1072.46 C 2404.02 1076.65 2396.85 1080.71 2389.89 1085.13 C 2377.78 1092.77 2365.6 1100.3 2353.34 1107.7 C 2347.52 1111.23 2329.75 1123.26 2324.44 1124.53 L 2302.72 1129.67 C 2295.69 1130.9 2287.82 1132.77 2280.64 1134.17 C 2313.64 1115.1 2345.72 1094.25 2378.71 1075.12 C 2381.73 1073.37 2384.7 1071.3 2387.57 1069.32 z" fill="rgb(247,241,224)" transform="translate(0,0)"></path>
<path d="M 2556.99 983.419 C 2558.58 983.283 2559.42 983.071 2560.92 983.489 C 2560.98 983.604 2561.04 983.72 2561.1 983.835 C 2560.29 985.003 2542.62 994.29 2540.15 995.671 C 2509.54 1012.78 2479.56 1031.16 2449.16 1048.54 C 2447.9 1049.26 2438.01 1047.46 2436.05 1047.15 C 2434.59 1047.03 2430.15 1047.09 2429.5 1045.19 C 2429.94 1044.22 2431.5 1043.2 2432.4 1042.69 L 2439.9 1038.4 C 2451.35 1031.87 2463.41 1025.02 2474.62 1018.12 C 2485.86 1011.76 2497.04 1005.3 2508.16 998.735 C 2529.2 986.333 2532.85 987.62 2556.99 983.419 z" fill="rgb(247,241,224)" transform="translate(0,0)"></path>
<path d="M 2250.19 1077.18 C 2255.09 1077.6 2258.61 1078.06 2263.41 1078.69 L 2293.59 1082.54 L 2316.96 1085.55 C 2308.71 1090.22 2300.52 1095.9 2292.41 1100.28 C 2286.55 1103.89 2280.63 1107.28 2274.73 1110.79 C 2269.54 1113.83 2264.39 1116.94 2259.28 1120.11 C 2256.03 1122.16 2253.86 1123.37 2250.45 1125.23 C 2250.46 1109.21 2250.38 1093.19 2250.19 1077.18 z" fill="rgb(251,199,176)" transform="translate(0,0)"></path>
<path d="M 2558.86 952.166 L 2564.53 952.15 L 2564.21 952.623 C 2559.63 954.313 2541.03 957.447 2534.84 958.713 C 2508.8 964.213 2482.68 969.331 2456.48 974.067 L 2255.23 1011.35 C 2252.33 1011.65 2252.92 1011.52 2249.95 1011.01 L 2250.12 1009.22 C 2263.11 1001.24 2357.59 988.343 2380.57 982.625 C 2418.79 973.117 2471.9 967.158 2511.5 957.759 C 2525.63 954.403 2543.16 955.348 2558.86 952.166 z" fill="rgb(247,241,224)" transform="translate(0,0)"></path>
<path d="M 1530.03 828.771 L 1615.43 833.383 C 1626.18 833.972 1652.98 834.847 1662.51 836.942 C 1664.99 840.474 1664.16 844.635 1664.03 849.219 C 1649.3 847.346 1533.97 841.701 1529.25 837.463 C 1528.38 833.536 1529 832.677 1530.03 828.771 z" fill="rgb(251,199,176)" transform="translate(0,0)"></path>
<path d="M 2250.47 1048.26 C 2267.61 1051.76 2284.84 1054.86 2302.13 1057.54 L 2319.84 1060.27 C 2328.42 1061.52 2339.62 1063.02 2347.94 1065.13 C 2348.69 1067.44 2344.17 1069.24 2342.57 1070.16 C 2338.07 1072.73 2333.68 1075.46 2329.11 1077.9 C 2314.83 1076.16 2300.64 1074.32 2286.37 1072.52 L 2250.68 1067.73 L 2250.47 1048.26 z" fill="rgb(247,241,224)" transform="translate(0,0)"></path>
<path d="M 2159.52 1072.83 C 2164.57 1073.73 2160.12 1104.41 2161.66 1109.75 C 2162.19 1111.55 2162.18 1117.42 2158.11 1115.17 C 2149.33 1110.32 2135.06 1114.78 2125.29 1116.43 C 2121.75 1116.95 2121.54 1116.04 2121.69 1112.46 C 2122.14 1101.26 2122.25 1089.98 2122.41 1078.77 C 2134.82 1076.79 2147.11 1074.88 2159.52 1072.83 z" fill="rgb(247,241,224)" transform="translate(0,0)"></path>
<path d="M 1516.21 847.406 C 1557.59 849.816 1598.91 853.233 1640.27 855.968 C 1647.78 856.465 1655.27 856.958 1662.71 858.121 C 1665 861.447 1664.27 865.85 1664.23 870.17 C 1620.64 863.323 1564.44 861.049 1519.5 856.451 C 1516.25 853.271 1517.2 853.002 1516.21 847.406 z" fill="rgb(247,241,224)" transform="translate(0,0)"></path>
<path d="M 2333.84 1029.25 C 2339.35 1027.95 2344.48 1027.12 2350.02 1026.12 L 2356.58 1024.89 L 2371.02 1022.14 L 2418.27 1013.16 C 2428.93 1011.21 2440.09 1008.91 2450.81 1006.88 C 2438.64 1015.33 2426.8 1021.54 2413.61 1028.27 L 2403.25 1033.54 C 2402.1 1034.09 2400.95 1034.64 2399.8 1035.19 L 2392.42 1038.78 C 2373.88 1037.36 2354.48 1033.19 2336.49 1032 C 2335.79 1031.24 2334.67 1029.91 2333.84 1029.25 z" fill="rgb(247,241,224)" transform="translate(0,0)"></path>
<path d="M 2182.04 991.396 C 2187.18 990.091 2221.29 1002.17 2229.31 1004.43 C 2216.39 1007.01 2198.96 1011.32 2186.62 1013.25 L 2175.14 1015.16 C 2168.23 1016.7 2166.92 1016.24 2160.75 1014.07 C 2149.85 1010.13 2139.01 1006.04 2128.22 1001.81 L 2147.93 997.892 C 2159.3 995.68 2170.6 993.22 2182.04 991.396 z" fill="rgb(247,241,224)" transform="translate(0,0)"></path>
<path d="M 1482.93 794.671 C 1485.27 794.461 1495.42 792.569 1497.15 794.542 C 1498.7 796.297 1498.27 864.486 1497.11 870.88 C 1492 869.243 1487.57 868.023 1482.48 866.531 C 1482.39 852.754 1481.45 806.382 1482.93 794.671 z" fill="rgb(247,241,224)" transform="translate(0,0)"></path>
<path d="M 1359.73 816.613 C 1377.1 818.145 1445.17 821.32 1466.09 824.96 C 1467.3 825.17 1466.91 832.516 1466.91 834.911 C 1449.18 833.64 1381.81 828.46 1360.39 825.098 C 1359.38 824.94 1359.7 818.329 1359.73 816.613 z" fill="rgb(251,199,176)" transform="translate(0,0)"></path>
<path d="M 2592.7 909.758 C 2602.11 910.507 2630.39 919.979 2640.53 922.966 L 2626.32 925.563 C 2616.39 927.43 2606.59 929.709 2596.63 931.559 C 2584.78 933.584 2574.85 927.575 2563.34 923.812 L 2550.63 919.696 C 2558.21 917.363 2566.07 915.572 2573.83 913.899 L 2579.2 912.761 C 2583.79 911.822 2588.14 910.785 2592.7 909.758 z" fill="rgb(247,241,224)" transform="translate(0,0)"></path>
<path d="M 1346.43 799.311 C 1381.24 800.508 1430.04 803.542 1465.81 806.166 C 1467.24 806.271 1466.81 813.844 1466.82 815.057 C 1429.14 812.931 1391.48 810.474 1353.84 807.686 C 1345.91 807.067 1347.06 807.058 1346.43 799.311 z" fill="rgb(247,241,224)" transform="translate(0,0)"></path>
<path d="M 2521.44 1018.58 C 2526.54 1019.08 2530.02 1018.75 2530.03 1024.31 L 2530.13 1051.89 C 2517.02 1050.33 2503.95 1048.36 2490.81 1047.02 C 2486.76 1046.88 2480.15 1045.98 2475.86 1045.55 C 2480.7 1042.61 2485.54 1039.47 2490.39 1036.61 L 2508.16 1026.15 L 2513.1 1023.24 C 2514.31 1022.53 2515.51 1021.82 2516.72 1021.11 L 2521.44 1018.58 z" fill="rgb(247,241,224)" transform="translate(0,0)"></path>
<path d="M 1669.24 1074.01 C 1683.5 1079.85 1701.72 1085.48 1715.11 1091.79 C 1714.28 1096.66 1714.98 1102.68 1713.05 1106.5 C 1693.72 1097.95 1691.26 1101.77 1669.09 1106.03 C 1669.07 1095.36 1669.12 1084.68 1669.24 1074.01 z" fill="rgb(247,241,224)" transform="translate(0,0)"></path>
<path d="M 1344.26 833.831 C 1383.26 835.013 1426.13 841.361 1465.2 844.372 C 1466.2 844.449 1466.98 849.729 1467.06 850.17 C 1459.4 850.272 1452.68 849.028 1445.06 848.357 C 1412.21 845.49 1379.31 841.912 1346.53 839.077 C 1345.32 838.973 1344.43 834.483 1344.26 833.831 z" fill="rgb(247,241,224)" transform="translate(0,0)"></path>
<path d="M 2541.66 923.719 C 2555.06 927.903 2570.08 932.054 2582.83 937.876 C 2584.77 938.761 2584.26 944.998 2582.53 947.188 C 2562.11 944.121 2562.24 943.655 2541.35 947.777 C 2541.37 939.849 2541.3 931.613 2541.66 923.719 z" fill="rgb(247,241,224)" transform="translate(0,0)"></path>
<path d="M 2368.56 1066.87 C 2386.28 1065.16 2361.76 1076.67 2359.15 1078.2 C 2345.16 1086.41 2330.26 1095.31 2316.59 1103.78 L 2311.56 1106.88 L 2300.53 1113.68 L 2284.99 1123.23 L 2258.93 1139.41 C 2242.57 1142.15 2256.35 1134.88 2261.55 1131.56 C 2296.2 1109.51 2334.66 1089.85 2368.56 1066.87 z" fill="rgb(247,241,224)" transform="translate(0,0)"></path>
<path d="M 1318.85 787.294 C 1320.07 787.332 1327.98 786.761 1327.94 788.769 C 1327.52 808.241 1328.77 831.459 1327.43 850.615 C 1325.92 850.166 1317.69 848.291 1317.77 846.57 C 1318.32 835.068 1315.29 796.127 1318.85 787.294 z" fill="rgb(247,241,224)" transform="translate(0,0)"></path>
<path d="M 2122.33 1006.85 C 2127.12 1008.42 2172.58 1020.44 2160.35 1029.8 C 2145.9 1024.49 2137.45 1028.1 2121.8 1031.05 C 2121.93 1022.98 2122.11 1014.91 2122.33 1006.85 z" fill="rgb(247,241,224)" transform="translate(0,0)"></path>
<path d="M 2579.92 1092.21 C 2586.07 1091.88 2583.43 1112.04 2583.42 1117.66 C 2575.96 1114.42 2568.06 1110.9 2560.47 1108.02 L 2559.02 1107.36 C 2553.82 1104.94 2550.29 1103.63 2545.03 1100.89 C 2556.49 1097.95 2568.42 1094.9 2579.92 1092.21 z" fill="rgb(247,241,224)" transform="translate(0,0)"></path>
<path d="M 2493.24 1084.35 L 2499.23 1084.28 L 2499.69 1085.08 C 2489.65 1088.67 2479.15 1089.69 2468.83 1092.37 C 2435.25 1101.08 2400.78 1108.15 2366.83 1115.59 C 2363.03 1116.28 2361.61 1117.31 2358.9 1115.93 C 2364.47 1111.45 2477.52 1087.81 2493.24 1084.35 z" fill="rgb(206,198,176)" transform="translate(0,0)"></path>
<path d="M 2424.17 1076.01 C 2434.31 1075.84 2448.65 1078.82 2458.66 1081.12 C 2453.22 1082.85 2450.11 1083.88 2444.52 1085.11 L 2432.49 1087.76 C 2429.85 1088.26 2404.55 1094.84 2404.29 1089.91 C 2405.44 1087.75 2420.55 1078.58 2424.17 1076.01 z" fill="rgb(247,241,224)" transform="translate(0,0)"></path>
<path d="M 2497.2 994.914 C 2497.56 994.979 2499.52 995.253 2499.81 995.553 C 2499.1 996.668 2490.66 1000.88 2489.27 1001.66 C 2484.15 1004.48 2479.08 1007.38 2474.05 1010.36 C 2460.89 1018.26 2447.29 1025.56 2434.22 1033.46 L 2421.59 1040.7 C 2418.97 1042.24 2417.01 1043.37 2414.3 1044.79 C 2408.52 1042.31 2408.96 1042.51 2413.88 1039.89 C 2433.47 1029.6 2452.43 1017.9 2471.88 1007.38 C 2479.39 1003.32 2486.66 997.246 2494.59 995.504 L 2497.2 994.914 z" fill="rgb(206,198,176)" transform="translate(0,0)"></path>
<path d="M 2246.96 901.856 C 2248.93 902.327 2257.58 904.122 2258.18 905.411 C 2259.7 908.65 2258.86 926.968 2258.72 930.367 C 2257.02 930.491 2255.27 930.591 2253.62 930.785 C 2253.34 930.817 2247.89 931.767 2247.72 930.883 C 2246.1 922.408 2246.93 910.587 2246.96 901.856 z" fill="rgb(247,241,224)" transform="translate(0,0)"></path>
<path d="M 1950.08 865.393 C 1967.01 868.392 1961.82 866.969 1962.08 887.712 C 1955.15 887.716 1949.67 889.944 1949.8 882.047 C 1949.94 876.497 1950.03 870.945 1950.08 865.393 z" fill="rgb(247,241,224)" transform="translate(0,0)"></path>
<path d="M 2246.43 844.586 C 2261.16 850.531 2259.01 846.722 2258.9 862.877 C 2242.56 862.709 2246.42 862.726 2246.43 844.586 z" fill="rgb(247,241,224)" transform="translate(0,0)"></path>
<path d="M 1950.14 814.252 C 1964.81 818.701 1962.42 817.036 1962.05 830.741 C 1946.27 831.708 1949.99 832.396 1950.14 814.252 z" fill="rgb(247,241,224)" transform="translate(0,0)"></path>
<path d="M 1709.15 799.674 C 1719.82 804.129 1716.83 805.626 1716.03 818.681 C 1706.09 817.467 1709.04 809.754 1709.15 799.674 z" fill="rgb(247,241,224)" transform="translate(0,0)"></path>
<path d="M 1710.09 844.371 C 1710.87 844.628 1711.65 844.871 1712.43 845.099 C 1718.49 846.843 1715.9 853.872 1715.77 859.516 C 1706.52 859.965 1709.84 853.023 1710.09 844.371 z" fill="rgb(247,241,224)" transform="translate(0,0)"></path>
<path d="M 1508.6 826.215 C 1515.97 830.17 1514.5 831.309 1512.96 840.33 C 1505.72 836.65 1506.86 834.668 1508.6 826.215 z" fill="rgb(247,241,224)" transform="translate(0,0)"></path>
<path d="M 2244.39 968.575 C 2248.6 968.532 2256.36 967.84 2257.22 972.926 C 2247.72 974.899 2247.08 977.895 2244.39 968.575 z" fill="rgb(247,241,224)" transform="translate(0,0)"></path>
<path d="M 1338.33 814.101 C 1345.78 816.94 1344.66 818.171 1342.93 826.351 C 1335.73 823.61 1337.27 822.102 1338.33 814.101 z" fill="rgb(247,241,224)" transform="translate(0,0)"></path>
<path d="M 1336.97 454.665 C 1344.73 456.074 1352.44 457.654 1360.09 459.565 L 1358.78 463.57 C 1351.27 460.813 1344.31 457.762 1336.97 454.665 z" fill="rgb(165,61,58)" transform="translate(0,0)"></path>
<path d="M 1949.57 921.513 C 1953.25 922.18 1960.62 921.872 1960.06 926.535 C 1952.11 928.133 1949.59 930.316 1949.57 921.513 z" fill="rgb(247,241,224)" transform="translate(0,0)"></path>
<path d="M 1710.36 888.081 C 1711.61 886.765 1713.64 886.591 1715.09 887.675 C 1716.54 888.759 1716.95 890.758 1716.04 892.323 C 1715.35 893.51 1714.04 894.194 1712.67 894.085 C 1711.3 893.975 1710.12 893.09 1709.63 891.809 C 1709.13 890.528 1709.42 889.078 1710.36 888.081 z" fill="rgb(247,241,224)" transform="translate(0,0)"></path>
<path d="M 1507.96 865.73 C 1508.73 864.795 1509.96 864.37 1511.15 864.631 C 1512.34 864.891 1513.28 865.794 1513.59 866.967 C 1513.9 868.141 1513.52 869.39 1512.62 870.202 C 1511.36 871.336 1509.44 871.304 1508.21 870.131 C 1506.99 868.957 1506.88 867.038 1507.96 865.73 z" fill="rgb(247,241,224)" transform="translate(0,0)"></path>
<path d="M 1336.73 786.27 C 1341.69 787.27 1343.19 786.403 1343.33 791.402 C 1340.27 791.186 1336.41 791.928 1336.68 787.714 L 1336.73 786.27 z" fill="rgb(206,198,176)" transform="translate(0,0)"></path>
<path d="M 1508.69 797.063 C 1509.85 796.56 1511.08 795.745 1512.32 796.417 C 1512.82 797.698 1511.17 798.337 1510.28 798.95 C 1509.43 799.521 1508.72 800.234 1507.75 799.639 C 1507.33 798.469 1507.89 798.076 1508.69 797.063 z" fill="rgb(206,198,176)" transform="translate(0,0)"></path>
<path d="M 2264.15 1044.32 C 2260.73 1043.68 2251.08 1042.94 2259.08 1039.9 C 2260.82 1041.35 2262.45 1042.82 2264.15 1044.32 z" fill="rgb(206,198,176)" transform="translate(0,0)"></path>
<path d="M 1339.4 848.976 C 1340.07 848.685 1340.28 848.446 1340.82 848.614 C 1341.11 849.02 1340.95 848.741 1341.27 849.547 C 1340.67 849.9 1340.4 850.195 1339.83 850.1 C 1339.57 849.69 1339.73 849.997 1339.4 848.976 z" fill="rgb(154,162,161)" transform="translate(0,0)"></path>
<path d="M 2336.49 1032 L 2333.74 1031.66 C 2332.2 1031.48 2332.05 1031.56 2330.73 1031.11 C 2330.67 1031.02 2330.61 1030.93 2330.55 1030.84 C 2331.12 1029.92 2332.95 1029.57 2333.84 1029.25 C 2334.67 1029.91 2335.79 1031.24 2336.49 1032 z" fill="rgb(206,198,176)" transform="translate(0,0)"></path>
<path d="M 2387.13 1098.49 C 2388.42 1098.44 2388.18 1098.15 2388.6 1099.42 C 2387.94 1099.44 2387.29 1099.47 2386.63 1099.49 C 2386.7 1099.08 2386.61 1099.37 2387.13 1098.49 z" fill="rgb(40,38,37)" transform="translate(0,0)"></path>
<path d="M 1350.35 681.532 C 1351.18 681.545 1354.17 681.348 1355.01 681.971 C 1354.4 683.061 1350.56 683.581 1349.37 683.807 L 1350.35 681.532 z" fill="rgb(87,78,78)" transform="translate(0,0)"></path>
<path d="M 1651.65 1506.72 C 1716.45 1441.22 1799.27 1391.81 1884.51 1357.76 C 1949.89 1331.56 2017.72 1311.93 2086.99 1299.18 C 2276.94 1264.5 2509.1 1278.08 2688 1355.05 L 2688 1366.21 L 2688 1564.11 L 2688 1574.62 L 2688 1828.32 L 2688 1837.3 C 2673.89 1839.22 2660 1840.38 2645.74 1841.76 C 2422.29 1863.41 2198.11 1850.91 1975.48 1826.15 C 1953.88 1823.75 1927.69 1823.16 1908.5 1813.24 C 1685.36 1834.78 1460.65 1834.22 1237.62 1811.57 L 1168.93 1804.58 C 1139.51 1801.56 1107.72 1803.12 1091.87 1773.59 C 1096.27 1719.27 1126.59 1676.96 1166.43 1641.77 C 1287.69 1534.62 1495.12 1497.68 1651.65 1506.72 z" fill="rgb(25,23,24)" transform="translate(0,0)"></path>
<path d="M 1670.61 1507.79 C 1727.13 1445.42 1824.6 1392.63 1902.16 1361.75 C 2139.86 1267.11 2452.05 1263.43 2688 1366.21 L 2688 1564.11 C 2666.87 1554.9 2608.61 1541.63 2585.2 1537.32 C 2425.17 1507.87 2249.58 1519.53 2098.53 1582.23 C 2073.87 1592.47 2039.12 1609.27 2017.37 1624.11 C 1922.75 1546.25 1789.39 1519.05 1670.61 1507.79 z" fill="rgb(125,160,59)" transform="translate(0,0)"></path>
<path d="M 1906.62 1791.88 C 1915.33 1711.36 2000.06 1641.91 2068.37 1607.9 C 2228.19 1528.33 2419.34 1514.47 2593.03 1548.49 C 2625.6 1554.87 2656.55 1564.51 2688 1574.62 L 2688 1828.32 C 2482.87 1851 2300.79 1846.85 2096.01 1828.99 C 2062.34 1826.12 2028.72 1822.78 1995.14 1818.98 C 1975.98 1816.97 1955.99 1815.23 1936.97 1812.26 C 1920.96 1809.76 1915.26 1804.42 1906.62 1791.88 z" fill="rgb(172,201,98)" transform="translate(0,0)"></path>
<path d="M 1578.53 1515.22 C 1717.94 1510.12 1896.23 1540.86 2006.85 1631.61 C 1989.09 1642.07 1963.6 1664.94 1949.43 1679.66 C 1931.89 1675.63 1913.78 1672.51 1893.55 1671.42 C 1826.97 1667.83 1705 1688.64 1695.41 1771.94 C 1693.61 1787.53 1702.81 1805.29 1713.77 1816.88 C 1662.63 1819.33 1611.43 1820.46 1560.23 1820.27 C 1423.53 1820.48 1281.85 1807.28 1145.76 1793.03 C 1127.55 1791.13 1120.36 1788.7 1108.81 1773.99 C 1110.02 1688.26 1205.38 1618.53 1275.56 1584.25 C 1370.14 1538.06 1474.25 1520.03 1578.53 1515.22 z" fill="rgb(172,201,98)" transform="translate(0,0)"></path>
<path d="M 1859.21 1680.54 C 1885.39 1678.15 1916.1 1681.98 1941.7 1687.52 C 1913.64 1719.87 1896.11 1749.98 1891.05 1792.28 C 1892.66 1796.25 1895.19 1801.11 1897.1 1805.06 C 1863.18 1808.33 1829.2 1810.94 1795.17 1812.89 C 1773.6 1814.5 1752 1815.65 1730.38 1816.34 C 1709.54 1788.17 1701.46 1762.55 1727.68 1732.56 C 1758.24 1697.59 1814.74 1683.88 1859.21 1680.54 z" fill="rgb(87,114,41)" transform="translate(0,0)"></path>
<metadata><recraft-signature>{"signed_by": "recraft", "signature_b64": "6rGyuhSY2DYvjLPsazA3Bx1rF8/WorSCLYJGS3FDHJq1o/sffBqarwnog4bxEP70CDAbX9RPEy4zhvbe3CtHBw==", "signing_algo": "Ed25519", "generation_timestamp": 1781921698, "identifier": "4f4ab576-ddc0-4ef9-9aca-31c442293cb6"}</recraft-signature></metadata></svg>